<?xml version="1.0" encoding="utf-8"?>
<!-- Generator: Adobe Illustrator 19.2.0, SVG Export Plug-In . SVG Version: 6.00 Build 0)  -->
<svg version="1.1" id="Layer_1" xmlns="http://www.w3.org/2000/svg" xmlns:xlink="http://www.w3.org/1999/xlink" x="0px" y="0px"
	 viewBox="0 0 241 183" style="enable-background:new 0 0 241 183;" xml:space="preserve">
<style type="text/css">
	.st0{fill:#00805F;}
	.st1{fill:#FAAE17;}
	.st2{fill:#008060;}
</style>
<g>
	<g transform="translate(-152 -64)">
		<g>
			<g>
				<path id="_x38_qbda" class="st0" d="M173.5,146.3l30.4,30.4l30.4-30.4L204,115.9L173.5,146.3z M182.4,159.6l-3.1-3.1l-10.2-10.2
					l10.2-10.2l3.1-3.1v-8.3h8.3l13.3-13.3l10.2,10.2l3.1,3.1h8.3v8.3l3.1,3.1l10.2,10.2l-10.2,10.2l-3.1,3.1v8.3h-8.3l-3.1,3.1
					L204,181.1l-10.2-10.2l-3.1-3.1h-8.3V159.6z M204,109.3l-12.4,12.4h-12.2v12.2L167,146.3l12.4,12.4v12.2h12.2l12.4,12.4
					l12.4-12.4h12.2v-12.2l12.4-12.4l-12.4-12.4v-12.2h-12.2L204,109.3z"/>
			</g>
		</g>
		<g>
			<g>
				<path id="_x38_qbdb" class="st1" d="M169.2,146.3l13.3-13.3v-8.3h8.3l13.3-13.3l13.3,13.3h8.3v8.3l13.3,13.3l-13.3,13.3v8.3
					h-8.3L204,181.1l-13.3-13.3h-8.3v-8.3L169.2,146.3z M182.4,155.2c5.1-6.2,12.9-10.1,21.5-10.1c6.7,0,12.1-5.4,12.1-12.1
					c0-3.1-1.2-6-3.2-8.2l-8.9-8.9l-8.9,8.9l-12.6,12.6l-8.9,8.9L182.4,155.2L182.4,155.2z M225.5,137.4
					c-5.1,6.2-12.9,10.1-21.5,10.1c-6.7,0-12.1,5.4-12.1,12.1c0,3.1,1.2,6,3.2,8.2h0l8.9,8.9l8.9-8.9l12.6-12.6l8.9-8.9L225.5,137.4
					z"/>
			</g>
		</g>
		<g>
			<g>
				<path id="_x38_qbdc" class="st2" d="M280.2,170.9h-6.1l11.7-23.4h6.1l11.7,23.4h-6.1l-1.8-3.7H282L280.2,170.9z M242.1,147.5
					h23.7c3.2,0,5.8,2.6,5.8,5.8c0,3.2-2.6,5.8-5.8,5.8c3.2,0,5.8,2.6,5.8,5.8c0,3.2-2.6,5.8-5.8,5.8h-23.7V147.5z M242.1,121.7h6.1
					v9.8h17.2v-9.8h6.1v23.4h-6.1v-9.8h-17.2v9.8h-6.1V121.7z M295.6,141.4H282l-1.8,3.7h-6.1l11.7-23.4h6.1l11.7,23.4h-6.1
					L295.6,141.4z M283.9,137.7h9.8l-4.9-9.9L283.9,137.7z M306,121.7h6.1v19.7h17.2v3.7H306V121.7z M338,145.1h-6.2v-9.8
					l-11.7-13.5h6.2l8.6,9.8l8.6-9.8h6.2L338,135.2V145.1z M351.5,121.7h6.2v9.8l13.5-9.8h6.8l-15.9,11.7l15.9,11.7h-6.8l-13.5-9.8
					v9.8h-6.2V121.7z M364.4,170.9h-6.8l-13.5-9.8v9.8H338v-23.4h6.1v9.8l13.5-9.8h6.8l-15.9,11.7L364.4,170.9z M306,147.5h6.1
					l17.2,17.2v-17.2h6.1v23.4h-6.1l-17.2-17.2v17.2H306V147.5z M248.2,151.2v6.1h14.1c1.7,0,3.1-1.4,3.1-3.1c0-1.7-1.4-3.1-3.1-3.1
					H248.2z M248.2,161.1v6.2h14.1c1.7,0,3.1-1.4,3.1-3.1c0-1.7-1.4-3.1-3.1-3.1H248.2z M293.7,163.5l-4.9-9.9l-4.9,9.9H293.7z"/>
			</g>
		</g>
	</g>
</g>
</svg>
