<?xml version="1.0" encoding="utf-8"?>
<!-- Generator: Adobe Illustrator 19.2.0, SVG Export Plug-In . SVG Version: 6.00 Build 0)  -->
<svg version="1.1" id="Layer_1" xmlns="http://www.w3.org/2000/svg" xmlns:xlink="http://www.w3.org/1999/xlink" x="0px" y="0px"
	 viewBox="0 0 52.5 56.5" style="enable-background:new 0 0 52.5 56.5;" xml:space="preserve">
<style type="text/css">
	.st0{fill:#ECC6C3;}
	.st1{fill:#FFFFFF;}
	.st2{fill:#6563FF;}
	.st3{fill:#BDE5EC;}
	.st4{fill:none;stroke:#E44450;stroke-width:1.9498;stroke-miterlimit:10;}
	.st5{fill:none;}
</style>
<g>
	<g id="Layer_1_12_" transform="matrix(1.56 0 0 1.56 234.69 166.88)">
		<path class="st0" d="M-127.3-103.2c-4.8,0-8.7,3.9-8.7,8.7c0,1.8,0.5,3.5,1.5,4.9l-1.5,4.4l5.1-1.3c1.1,0.5,2.3,0.8,3.6,0.8
			c4.8,0,8.7-3.9,8.7-8.7S-122.5-103.2-127.3-103.2z"/>
	</g>
	<g id="Layer_1_11_" transform="matrix(1.56 0 0 1.56 234.38 165.63)">
		<circle class="st1" cx="-127.2" cy="-93.6" r="6.6"/>
	</g>
	<g id="Layer_1_10_" transform="matrix(1.56 0 0 1.56 185.16 215.55)">
		<path class="st2" d="M-100.1-112.3c-0.1,0.2-0.2,0.3-0.2,0.5c-0.2,0.4-0.4,0.4-0.9,0.4c-2.4,0-8.6-6.1-8.5-8.5
			c0-0.5-0.1-0.7,0.4-0.9c0.2-0.1,0.5-0.2,0.7-0.3c0.3-0.2-1.5-8.7-1.8-8.7c-2.4,0.1-4.9,1.9-4.9,6.7c0,6.6,9.3,17.3,17.3,17.3
			c4.6,0,6.4-2.2,6.7-4.5C-91.2-110.7-99.9-112.6-100.1-112.3z"/>
	</g>
	<g id="Layer_1_9_" transform="matrix(1.56 0 0 1.56 234.22 252.96)">
		<path class="st3" d="M-122.9-134.2c0,0,0.1,0,0.1,0c0-0.5,0-1,0-1.4c0-0.2-0.3-0.4-0.5-0.4c-2.3-0.6-4.7-1.1-7.1-1.6
			c-0.2,0-0.5,0.1-0.6,0.3c-0.2,0.4-0.4,0.8-0.6,1.2C-128.7-135.6-125.8-134.9-122.9-134.2z"/>
	</g>
	<g id="Layer_1_5_" transform="matrix(1.56 0 0 1.56 148.86 166.61)">
		<path class="st3" d="M-85.4-89.7c0.3-0.2,0.6-0.3,1-0.5c0.1-0.1,0.3-0.4,0.3-0.6c-0.5-2.4-1-4.7-1.6-7.1c0-0.2-0.2-0.5-0.4-0.5
			c-0.4-0.1-0.8-0.1-1.1-0.1C-86.7-95.5-86-92.6-85.4-89.7z"/>
	</g>
	<g id="Layer_1_6_" transform="matrix(1.56 0 0 1.56 234.38 165.63)">
		<line class="st4" x1="-130.6" y1="-93.6" x2="-123.8" y2="-93.6"/>
	</g>
	<g id="Layer_1_7_" transform="matrix(1.56 0 0 1.56 234.38 165.63)">
		<line class="st4" x1="-127.2" y1="-90.2" x2="-127.2" y2="-97"/>
	</g>
	<g id="Layer_1_8_" transform="matrix(1.56 0 0 1.56 200 200)">
		<rect x="-126.1" y="-125.9" class="st5" width="31.2" height="31.2"/>
	</g>
</g>
</svg>
