<?xml version="1.0" encoding="utf-8"?>
<!-- Generator: Adobe Illustrator 19.2.0, SVG Export Plug-In . SVG Version: 6.00 Build 0)  -->
<svg version="1.1" id="Layer_1" xmlns="http://www.w3.org/2000/svg" xmlns:xlink="http://www.w3.org/1999/xlink" x="0px" y="0px"
	 viewBox="0 0 52.5 56.5" style="enable-background:new 0 0 52.5 56.5;" xml:space="preserve">
<style type="text/css">
	.st0{fill:#09B83E;}
	.st1{fill:#FFFFFF;}
</style>
<g>
	<g id="Layer_1_4_" transform="matrix(0.39 0 0 0.39 200.01 200)">
		<path class="st0" d="M-391.2-489c2.6,3.5,3.8,9.2,4.4,16.2c0.8,10.4,1.1,22.9,1.4,35.8c-0.4,13.1-0.5,26.4-1.4,35.8
			c-0.7,7.2-2.1,12-4.4,15c-3,2.9-8.7,5.4-16.8,6c-9.9,0.8-22.1,0.8-35.6,1.2c-15-0.3-25.1-0.1-35.8-1.2c-8.3-0.6-13.7-3-17.1-6
			c-2.5-3.3-3.2-6.9-3.9-15.2c-0.9-9.6-1-22.6-1.4-35.6c0.5-13,0.5-26,1.4-35.8c0.6-7.7,1.5-12.9,3.8-16.2c3.3-2.8,8.9-4.2,17.2-4.9
			c11.4-1.3,23.4-1.6,35.7-1.6c12.7,0,24.8,0.4,35.7,1.5C-400.6-493.3-394.5-492-391.2-489L-391.2-489z"/>
	</g>
	<g id="Layer_1_2_" transform="matrix(0.39 0 0 0.39 179.73 186.23)">
		<path class="st1" d="M-379.6-413.7c-6.4,0.3-11.9,2.3-16.4,6.6c-4.6,4.4-6.6,9.8-6.1,16.5c-2.5-0.3-4.8-0.6-7.1-0.8
			c-0.8-0.1-1.7,0-2.4,0.4c-2.2,1.3-4.3,2.7-6.9,4.2c0.5-2.1,0.8-3.9,1.3-5.7c0.4-1.3,0.2-2-1-2.9c-7.7-5.4-10.9-13.5-8.5-21.8
			c2.2-7.7,7.7-12.4,15.2-14.8c10.2-3.3,21.6,0.1,27.8,8.2C-381.3-420.9-379.9-417.4-379.6-413.7z M-408.9-416.3
			c0.1-1.5-1.3-2.9-2.8-2.9c-1.6-0.1-2.9,1.2-3,2.7c0,0,0,0,0,0c-0.1,1.6,1.2,2.9,2.7,2.9c0,0,0.1,0,0.1,0
			C-410.4-413.5-409-414.7-408.9-416.3z M-393.6-419.2c-1.6,0-2.9,1.4-2.9,2.9c0,1.6,1.4,2.8,2.9,2.8c0,0,0,0,0,0
			c1.6,0,2.8-1.3,2.8-2.9C-390.7-418-392-419.3-393.6-419.2L-393.6-419.2z"/>
	</g>
	<g id="Layer_1_3_" transform="matrix(0.39 0 0 0.39 221.65 216.04)">
		<path class="st1" d="M-472.5-450.2c-2-0.9-3.9-2.2-5.8-2.5c-2-0.2-4,0.9-6.1,1.1c-6.3,0.6-11.9-1.1-16.5-5.4
			c-8.8-8.1-7.6-20.6,2.6-27.3c9.1-5.9,22.3-4,28.7,4.3c5.6,7.2,4.9,16.7-1.9,22.7c-2,1.7-2.7,3.2-1.4,5.5
			C-472.7-451.3-472.6-450.7-472.5-450.2z M-495.5-472.5c1.3,0,2.4-1.1,2.4-2.4s-1.1-2.4-2.4-2.4c-1.3,0-2.4,1.1-2.4,2.4
			S-496.8-472.5-495.5-472.5z M-480.7-477.2c-1.3,0-2.3,1-2.4,2.3c0,1.3,1,2.4,2.3,2.4c1.3,0,2.4-1,2.4-2.3
			C-478.3-476.1-479.3-477.2-480.7-477.2C-480.6-477.2-480.7-477.2-480.7-477.2z"/>
	</g>
</g>
</svg>
