<svg id="Layer_1" data-name="Layer 1" xmlns="http://www.w3.org/2000/svg" viewBox="0 0 39.35 39.18"><defs><style>.cls-1{fill:#6563ff;}</style></defs><path class="cls-1" d="M41,30.27A6,6,0,0,1,39.68,30a19.24,19.24,0,0,1-2.59-.76,4,4,0,0,0-4.89,2l-.43.88a23.74,23.74,0,0,1-5.25-3.94,24.31,24.31,0,0,1-3.94-5.24l.83-.56a3.94,3.94,0,0,0,2-4.89,20.7,20.7,0,0,1-.77-2.58c-.1-.43-.18-.89-.24-1.34a5.91,5.91,0,0,0-5.91-4.91H12.54a5.92,5.92,0,0,0-6,5.86,6.11,6.11,0,0,0,.06.86A37.46,37.46,0,0,0,39.2,47.84H40a5.9,5.9,0,0,0,5.92-5.93V36A5.92,5.92,0,0,0,41,30.27ZM42,42.1a1.94,1.94,0,0,1-.67,1.48,2,2,0,0,1-1.61.49,33.52,33.52,0,0,1-29-29.14,2.21,2.21,0,0,1,.49-1.62,2,2,0,0,1,1.48-.67h5.92a2,2,0,0,1,2,1.56c.08.54.18,1.07.3,1.6a21.36,21.36,0,0,0,.9,3.05L19,20.14a2,2,0,0,0-1,2.61h0a28.53,28.53,0,0,0,13.8,13.8,2,2,0,0,0,1.5,0,2,2,0,0,0,1.12-1l1.22-2.76a27.83,27.83,0,0,0,3.12.9c.52.12,1.06.22,1.6.3a2,2,0,0,1,1.55,2ZM45.77,9.92A2,2,0,0,0,44.7,8.86,1.89,1.89,0,0,0,44,8.7H36.07a2,2,0,1,0,0,3.94h3.11L32.7,19.15a2,2,0,0,0,2.78,2.78L42,15.44v3.12a2,2,0,0,0,4,0V10.67A2.14,2.14,0,0,0,45.77,9.92Z" transform="translate(-6.57 -8.66)"/></svg>