<svg id="Layer_1" data-name="Layer 1" xmlns="http://www.w3.org/2000/svg" viewBox="0 0 40.39 45.35"><defs><style>.cls-1{fill:#2196f3;}</style></defs><g id="surface1"><path class="cls-1" d="M46.42,26.93q-.27,6.21-3.07,9.86a9,9,0,0,1-7.54,3.66,7,7,0,0,1-3.6-.9A5.81,5.81,0,0,1,29.91,37a7.45,7.45,0,0,1-6.33,3.39,6.16,6.16,0,0,1-5.48-3c-1.3-2-1.78-4.62-1.46-7.89a20.33,20.33,0,0,1,2-7.12,12.62,12.62,0,0,1,4-4.79,9,9,0,0,1,5.24-1.68,10.54,10.54,0,0,1,5.92,1.61l1.53,1-1.23,14a4.39,4.39,0,0,0,.42,2.94,2.35,2.35,0,0,0,2.12,1c1.5,0,2.74-.86,3.74-2.6a14.48,14.48,0,0,0,1.65-6.84q.42-8.46-3.4-13T27.35,9.53A15,15,0,0,0,19,11.9a16.3,16.3,0,0,0-5.78,6.76,25.88,25.88,0,0,0-2.38,10Q10.45,37.3,14.29,42t11.48,4.7A21.14,21.14,0,0,0,30,46.23,17.1,17.1,0,0,0,33.8,45l.92,3.73a12.69,12.69,0,0,1-4,1.58,22.21,22.21,0,0,1-5.06.59,21.68,21.68,0,0,1-10.92-2.59A15.8,15.8,0,0,1,8,40.72a26.74,26.74,0,0,1-1.93-12,28.31,28.31,0,0,1,3.05-12A20,20,0,0,1,27.44,5.57,20.12,20.12,0,0,1,37.92,8.18a16.19,16.19,0,0,1,6.58,7.46A24.66,24.66,0,0,1,46.42,26.93ZM22,29.5a9.43,9.43,0,0,0,.56,4.86A2.78,2.78,0,0,0,25.26,36,3.19,3.19,0,0,0,27.51,35a7.55,7.55,0,0,0,1.77-3l1-11.48a6.18,6.18,0,0,0-1.95-.32A4.87,4.87,0,0,0,24,22.56,15.83,15.83,0,0,0,22,29.5Z" transform="translate(-6.05 -5.57)"/></g></svg>