<?xml version="1.0" encoding="utf-8"?>
<!-- Generator: Adobe Illustrator 19.2.0, SVG Export Plug-In . SVG Version: 6.00 Build 0)  -->
<svg version="1.1" id="Layer_1" xmlns="http://www.w3.org/2000/svg" xmlns:xlink="http://www.w3.org/1999/xlink" x="0px" y="0px"
	 viewBox="0 0 52.5 56.5" style="enable-background:new 0 0 52.5 56.5;" xml:space="preserve">
<style type="text/css">
	.st0{fill:#1877F2;}
	.st1{fill:#FFFFFF;}
</style>
<g>
	<g transform="matrix(0.39 0 0 0.39 200 199.39)">
		<path class="st0" d="M-387.6-435.6c0-32.1-26-58.1-58.1-58.1s-58.1,26-58.1,58.1c0,29,21.3,53.1,49.1,57.4v-40.6h-14.8v-16.8h14.8
			v-12.8c0-14.6,8.7-22.6,22-22.6c6.4,0,13,1.1,13,1.1v14.3h-7.3c-7.2,0-9.5,4.5-9.5,9.1v10.9h16.1l-2.6,16.8h-13.5v40.6
			C-408.8-382.5-387.6-406.6-387.6-435.6z"/>
	</g>
	<g transform="matrix(0.39 0 0 0.39 201.76 219.53)">
		<path class="st1" d="M-427.6-470.4l2.6-16.8h-16.1v-10.9c0-4.6,2.3-9.1,9.5-9.1h7.3v-14.3c0,0-6.7-1.1-13-1.1
			c-13.3,0-22,8-22,22.6v12.8h-14.8v16.8h14.8v40.6c3,0.5,6,0.7,9.1,0.7s6.1-0.2,9.1-0.7v-40.6H-427.6z"/>
	</g>
</g>
</svg>
