<svg id="Layer_1" data-name="Layer 1" xmlns="http://www.w3.org/2000/svg" xmlns:xlink="http://www.w3.org/1999/xlink" viewBox="0 0 45.35 45.35"><defs><style>.cls-1{fill:url(#radial-gradient);}.cls-2{fill:#fff;}</style><radialGradient id="radial-gradient" cx="-28" cy="-73" r="10.84" gradientTransform="matrix(5.55, 0, 0, -5.55, 172.17, -350.33)" gradientUnits="userSpaceOnUse"><stop offset="0.1" stop-color="#ffd87a"/><stop offset="0.14" stop-color="#fcce78"/><stop offset="0.23" stop-color="#f5b471"/><stop offset="0.34" stop-color="#eb8d65"/><stop offset="0.45" stop-color="#e36058"/><stop offset="0.68" stop-color="#cd3694"/><stop offset="1" stop-color="#6668b0"/></radialGradient></defs><g id="Layer_1-2" data-name="Layer 1"><path class="cls-1" d="M48.93,40.56A10.36,10.36,0,0,1,38.57,50.92H13.93A10.36,10.36,0,0,1,3.57,40.56V15.93A10.36,10.36,0,0,1,13.94,5.57H38.41A10.51,10.51,0,0,1,48.93,16.08Z" transform="translate(-3.57 -5.57)"/></g><g id="Layer_1-3" data-name="Layer 1"><path class="cls-2" d="M32.56,11.82H19.94A10.12,10.12,0,0,0,9.82,21.94V34.55A10.11,10.11,0,0,0,19.94,44.67H32.55A10.11,10.11,0,0,0,42.66,34.55V21.94A10.1,10.1,0,0,0,32.56,11.82Zm7,21.52a8.17,8.17,0,0,1-8.18,8.17H21.16A8.17,8.17,0,0,1,13,33.34V23.15A8.18,8.18,0,0,1,21.16,15H31.34a8.18,8.18,0,0,1,8.18,8.18Z" transform="translate(-3.57 -5.57)"/></g><g id="Layer_1-4" data-name="Layer 1"><path class="cls-2" d="M26.69,19.65a8.66,8.66,0,1,0,8.66,8.65A8.65,8.65,0,0,0,26.69,19.65Zm0,13.85a5.21,5.21,0,1,1,5.21-5.2A5.2,5.2,0,0,1,26.69,33.5Z" transform="translate(-3.57 -5.57)"/></g><g id="Layer_1-5" data-name="Layer 1"><path class="cls-2" d="M37,19.5a2.2,2.2,0,1,1-2.2-2.2A2.2,2.2,0,0,1,37,19.5Z" transform="translate(-3.57 -5.57)"/></g></svg>