<?xml version="1.0" encoding="utf-8"?>
<!-- Generator: Adobe Illustrator 19.2.0, SVG Export Plug-In . SVG Version: 6.00 Build 0)  -->
<svg version="1.1" id="Layer_1" xmlns="http://www.w3.org/2000/svg" xmlns:xlink="http://www.w3.org/1999/xlink" x="0px" y="0px"
	 viewBox="0 0 52.5 56.5" style="enable-background:new 0 0 52.5 56.5;" xml:space="preserve">
<style type="text/css">
	.st0{fill:#F27B1D;}
	.st1{fill:#FFFFFF;}
</style>
<g>
	<g id="Слой_1" transform="matrix(2.08 0 0 2.08 200 200)">
		<path class="st0" d="M-72.4-82.6L-72.4-82.6c0,6.1-4.9,10.9-10.9,10.9c-6,0-10.9-4.9-10.9-10.9c0-6,4.9-10.9,10.9-10.9h0
			c0.3,0,0.5,0,0.8,0c0.4,0,0.8,0.1,1.3,0.2c0.7,0.1,1.4,0.3,2,0.6c2.7,1.1,4.9,3.3,6,6c0.3,0.7,0.5,1.3,0.6,2l0,0
			c0.1,0.4,0.1,0.9,0.2,1.3C-72.4-83.1-72.4-82.9-72.4-82.6z"/>
	</g>
	<g id="Слой_1_4_" transform="matrix(2.08 0 0 2.08 199.73 177.92)">
		<path class="st1" d="M-83.2-72.3c-1.3,0-2.3-1-2.3-2.3s1-2.3,2.3-2.3s2.3,1,2.3,2.3l0,0C-80.9-73.4-82-72.3-83.2-72.3z
			 M-83.2-75.8c-0.7,0-1.2,0.5-1.2,1.2s0.5,1.2,1.2,1.2s1.2-0.5,1.2-1.2l0,0C-82.1-75.3-82.6-75.8-83.2-75.8z"/>
	</g>
	<g id="Слой_1_5_" transform="matrix(2.08 0 0 2.08 200.07 220.47)">
		<path class="st1" d="M-80.3-92.2c-0.2-0.3-0.6-0.4-0.9-0.2c0,0,0,0,0,0c-0.7,0.4-1.4,0.7-2.2,0.7c-0.8,0-1.6-0.3-2.2-0.7
			c-0.3-0.2-0.7,0-0.9,0.3c-0.1,0.3,0,0.7,0.2,0.8c0.4,0.2,0.8,0.4,1.2,0.5c0.2,0.1,0.4,0.1,0.5,0.2l0.2,0.1l-1.6,1.9
			c-0.2,0.2-0.2,0.6,0,0.9c0.2,0.3,0.6,0.3,0.9,0c0,0,0.1-0.1,0.1-0.1l1.6-1.9l1.6,1.9c0.2,0.3,0.6,0.3,0.9,0.1
			c0.3-0.2,0.3-0.6,0.1-0.9l-1.6-1.9l0.1,0c0.2-0.1,0.3-0.1,0.5-0.2c0.5-0.2,1-0.4,1.4-0.6c0.1-0.1,0.2-0.2,0.3-0.4
			C-80.1-91.9-80.2-92.1-80.3-92.2z"/>
	</g>
</g>
</svg>
