<?xml version="1.0" encoding="utf-8"?>
<!-- Generator: Adobe Illustrator 19.2.0, SVG Export Plug-In . SVG Version: 6.00 Build 0)  -->
<svg version="1.1" id="Layer_1" xmlns="http://www.w3.org/2000/svg" xmlns:xlink="http://www.w3.org/1999/xlink" x="0px" y="0px"
	 viewBox="0 0 52.5 56.5" style="enable-background:new 0 0 52.5 56.5;" xml:space="preserve">
<style type="text/css">
	.st0{fill:#2CA3DB;}
	.st1{fill:#FFFFFF;}
</style>
<g>
	<g id="Layer_1_1_" transform="matrix(0.39 0 0 0.39 200.01 200)">
		<path class="st0" d="M-392.4-491.5c2.6,3.5,3.8,9.2,4.4,16.2c0.8,10.4,1.1,22.9,1.4,35.8c-0.4,13.1-0.5,26.4-1.4,35.8
			c-0.7,7.2-2.1,12-4.4,15c-3,2.9-8.7,5.4-16.8,6c-9.9,0.8-22.1,0.8-35.6,1.2c-15-0.3-25.1-0.1-35.8-1.2c-8.3-0.6-13.7-3-17.1-6
			c-2.5-3.3-3.2-6.9-3.9-15.2c-0.9-9.6-1-22.6-1.4-35.6c0.5-13,0.5-26,1.4-35.8c0.6-7.7,1.5-12.9,3.8-16.2c3.3-2.8,8.9-4.2,17.2-4.9
			c11.4-1.3,23.4-1.6,35.7-1.6c12.7,0,24.8,0.4,35.7,1.5C-401.9-495.9-395.8-494.6-392.4-491.5L-392.4-491.5z"/>
	</g>
	<g id="path9" transform="matrix(0.39 0 0 0.39 197.56 197.25)">
		<path class="st1" d="M-410.5-462.6l-60.5,23.3c-4.1,1.7-4.1,4-0.8,5l15.1,4.7l5.8,17.7c0.7,1.9,0.4,2.7,2.4,2.7
			c1.6,0,2.3-0.7,3.1-1.6c0.6-0.5,3.9-3.8,7.6-7.3l15.7,11.6c2.9,1.6,5,0.8,5.7-2.7l10.3-48.6C-405-461.9-407.7-463.8-410.5-462.6z
			 M-454.3-430.6l34-21.5c1.7-1,3.3-0.5,2,0.7l-29.1,26.3l-1.1,12.1L-454.3-430.6z"/>
	</g>
</g>
</svg>
