<?xml version="1.0" encoding="utf-8"?>
<!-- Generator: Adobe Illustrator 19.2.0, SVG Export Plug-In . SVG Version: 6.00 Build 0)  -->
<svg version="1.1" id="Layer_1" xmlns="http://www.w3.org/2000/svg" xmlns:xlink="http://www.w3.org/1999/xlink" x="0px" y="0px"
	 viewBox="0 0 52.5 56.5" style="enable-background:new 0 0 52.5 56.5;" xml:space="preserve">
<style type="text/css">
	.st0{fill:#55ACEE;}
	.st1{fill:#F1F2F2;}
</style>
<g>
	<g id="Capa_1" transform="matrix(1.78 0 0 1.78 200 200)">
		<circle class="st0" cx="-97.5" cy="-96.1" r="12.7"/>
	</g>
	<g id="Capa_1_1_" transform="matrix(1.78 0 0 1.78 203 208)">
		<path class="st1" d="M-91.4-104.1c-0.5,0.2-1.1,0.4-1.7,0.5c0.6-0.4,1.1-1,1.3-1.7c-0.6,0.3-1.2,0.6-1.9,0.7c-0.6-0.6-1.3-1-2.2-1
			c-1.7,0-3,1.4-3,3c0,0.2,0,0.5,0.1,0.7c-2.5-0.1-4.8-1.3-6.3-3.2c-0.3,0.4-0.4,1-0.4,1.5c0,1.1,0.5,2,1.4,2.5
			c-0.5,0-1-0.2-1.4-0.4c0,0,0,0,0,0c0,1.5,1.1,2.7,2.4,3c-0.3,0.1-0.5,0.1-0.8,0.1c-0.2,0-0.4,0-0.6-0.1c0.4,1.2,1.5,2.1,2.8,2.1
			c-1,0.8-2.4,1.3-3.8,1.3c-0.2,0-0.5,0-0.7,0c1.3,0.9,2.9,1.4,4.7,1.4c5.6,0,8.7-4.6,8.7-8.7c0-0.1,0-0.3,0-0.4
			C-92.3-103-91.8-103.5-91.4-104.1L-91.4-104.1z"/>
	</g>
</g>
</svg>
