<?xml version="1.0" encoding="utf-8"?>
<!-- Generator: Adobe Illustrator 19.2.0, SVG Export Plug-In . SVG Version: 6.00 Build 0)  -->
<svg version="1.1" id="Layer_1" xmlns="http://www.w3.org/2000/svg" xmlns:xlink="http://www.w3.org/1999/xlink" x="0px" y="0px"
	 viewBox="0 0 52.5 56.5" style="enable-background:new 0 0 52.5 56.5;" xml:space="preserve">
<style type="text/css">
	.st0{fill:#675CA8;}
	.st1{fill:#FFFFFF;}
</style>
<g>
	<g id="Layer_1_14_" transform="matrix(0.39 0 0 0.39 200.01 200)">
		<path class="st0" d="M-392.4-490.2c2.6,3.5,3.8,9.2,4.4,16.2c0.8,10.4,1.1,22.9,1.4,35.8c-0.4,13.1-0.5,26.4-1.4,35.8
			c-0.7,7.2-2.1,12-4.4,15c-3,2.9-8.7,5.4-16.8,6c-9.9,0.8-22.1,0.8-35.6,1.2c-15-0.3-25.1-0.1-35.8-1.2c-8.3-0.6-13.7-3-17.1-6
			c-2.5-3.3-3.2-6.9-3.9-15.2c-0.9-9.6-1-22.6-1.4-35.6c0.5-13,0.5-26,1.4-35.8c0.6-7.7,1.5-12.9,3.8-16.2c3.3-2.8,8.9-4.2,17.2-4.9
			c11.4-1.3,23.4-1.6,35.7-1.6c12.7,0,24.8,0.4,35.7,1.5C-401.9-494.6-395.8-493.3-392.4-490.2L-392.4-490.2z"/>
	</g>
	<g id="Layer_1_13_" transform="matrix(0.39 0 0 0.39 197.44 197.25)">
		<path class="st1" d="M-439.8-467.3c-19,0-34.3,15.4-34.3,34.3s15.4,34.3,34.3,34.3c19,0,34.3-15.4,34.3-34.3
			S-420.8-467.3-439.8-467.3z M-440.2-452.6c0.1-0.3,0.3-0.6,0.6-0.7c0.2-0.1,0.5-0.1,0.7-0.1c0,0,0.3,0,0.6,0
			c9.1,0.2,16.9,6.7,18,16.4c0.1,1,0.2,2,0.2,3c0,0.3,0,0.9-0.4,1.3c-0.1,0.1-0.3,0.2-0.5,0.3c-0.3-0.1-0.5-0.2-0.7-0.4
			c-0.2-0.3-0.3-0.6-0.3-1c-0.1-1.8-0.3-3.5-0.8-5.3c-1.5-6.4-7.3-11.5-13.9-12.2c-0.8-0.1-1.5-0.2-2.3-0.2c-0.5,0-1-0.1-1.2-0.5
			C-440.2-452.2-440.2-452.4-440.2-452.6z M-436.6-446.6c-0.3,0-0.6-0.1-0.8-0.1c-0.4-0.1-0.6-0.2-0.9-0.4c-0.2-0.2-0.3-0.5-0.3-0.7
			c0.1-0.2,0.2-0.4,0.4-0.6c0.3-0.2,0.6-0.3,0.9-0.2c5.3,0.3,8.5,3.4,8.5,3.4c1,1,1.8,2.1,2.4,3.3c0.9,1.7,1.5,3.6,1.7,5.6
			c0,0.4,0,0.8-0.2,1.2c-0.1,0.2-0.2,0.4-0.4,0.5c-0.2,0.1-0.4,0.2-0.7,0.2c-0.2-0.1-0.3-0.2-0.5-0.3c-0.1-0.1-0.2-0.3-0.3-0.5
			c-0.3-2.5-0.7-4.9-2.2-6.9C-430.8-444.9-433.5-446.1-436.6-446.6z M-429.6-437.3c-0.1,0.7-0.3,1-0.4,1c-0.2,0.1-0.4,0.2-0.6,0.2
			c-0.2,0-0.5-0.1-0.6-0.3c-0.2-0.2-0.3-0.5-0.4-0.8c-0.1-0.6-0.5-2.6-1.5-3.5c-0.6-0.6-1.5-0.9-2.8-1.1c-0.5-0.1-1-0.2-1.2-0.5
			c-0.1-0.2-0.1-0.4,0-0.6c0.2-0.7,1-0.9,1.1-0.9c0.5,0.1,4,0.6,5.6,3.2C-429.8-439.5-429.5-438.4-429.6-437.3L-429.6-437.3z
			 M-420-418.1c-1.3,1.6-2.6,3.3-4.1,4.6c-1.3,1.1-3.1,1.3-4.8,0.6c-14.1-5.8-24.3-15.6-30.2-29.8c-0.1-0.4-0.3-0.7-0.4-1.1
			c-1.1-3.2-0.8-4.4,1.8-6.6c0.9-0.7,1.8-1.3,2.7-1.9c1.6-1,3.3-1,4.4,0.4c2,2.3,3.8,4.8,5.4,7.4c1.2,1.9,0.8,3-1,4.5
			c-0.4,0.3-0.8,0.6-1.2,1c-1,0.8-1.4,1.9-1,3.2c2,5.9,6.1,9.6,11.8,11.5c0.7,0.2,1.7-0.3,2.4-0.7c0.5-0.3,0.9-1,1.3-1.5
			c1.1-1.4,3-2,4.5-1.1c2.7,1.7,5.3,3.6,7.9,5.6c0.5,0.4,0.7,1.4,1,2C-419.7-419.2-419.7-418.5-420-418.1L-420-418.1z"/>
	</g>
</g>
</svg>
