<?xml version="1.0" encoding="utf-8"?>
<!-- Generator: Adobe Illustrator 19.2.0, SVG Export Plug-In . SVG Version: 6.00 Build 0)  -->
<svg version="1.1" id="Layer_1" xmlns="http://www.w3.org/2000/svg" xmlns:xlink="http://www.w3.org/1999/xlink" x="0px" y="0px"
	 viewBox="0 0 52.5 56.5" style="enable-background:new 0 0 52.5 56.5;" xml:space="preserve">
<style type="text/css">
	.st0{fill:url(#SVGID_1_);}
</style>
<g id="Layer_1_21_" transform="matrix(0.39 0 0 0.39 200 200)">
	
		<linearGradient id="SVGID_1_" gradientUnits="userSpaceOnUse" x1="54.0145" y1="213.493" x2="160.1205" y2="319.5989" gradientTransform="matrix(0.39 0 0 -0.39 -523.6667 -300.4615)">
		<stop  offset="0" style="stop-color:#025BC7"/>
		<stop  offset="1" style="stop-color:#0089FD"/>
	</linearGradient>
	<path class="st0" d="M-445.3-499.2c-32.1,0-58.1,26-58.1,58.1s26,58.1,58.1,58.1s58.1-26,58.1-58.1S-413.2-499.2-445.3-499.2z
		 M-414.3-421.3h-7.4c-1.6,0-3.2-0.7-4.2-2c-2.2-2.8-6.6-7.7-11.1-9.8c-0.9-0.4-1.9,0-2.3,0.8c-0.1,0.2-0.2,0.5-0.2,0.7v7.3
		c0,1.6-1.3,2.9-2.9,2.9h0h-3.4c-4.4,0-14-2.7-21.6-13.8c-6.5-9.4-9.4-16.8-11.1-22.7c-0.4-1.2,0.4-2.5,1.6-2.9
		c0.2-0.1,0.4-0.1,0.6-0.1h7.5c1.5,0,2.9,1,3.3,2.5c1.4,4.6,5,14.7,11.3,19.6c0.6,0.4,1.4,0.4,1.8-0.2c0.2-0.2,0.3-0.5,0.3-0.8
		v-11.7c0-2.3-1-4.6-2.6-6.4c-0.6-0.7-0.6-1.9,0.2-2.5c0.3-0.3,0.7-0.4,1.2-0.4h11.5c1.2,0,2.2,1,2.2,2.2v15.7
		c0,0.7,0.6,1.2,1.2,1.2c0.3,0,0.5-0.1,0.7-0.2c2.1-1.5,3.9-3.7,5.6-6.2c2.1-3.1,4.6-8.3,5.9-11c0.5-1.1,1.6-1.7,2.8-1.7h8.1
		c1.1,0,2,0.9,2,2c0,0.3-0.1,0.6-0.2,0.9c-2.1,4.1-6.1,11.7-9.8,16.1c-1.1,1.3-1,3.3,0.4,4.4c2.5,2.1,6.3,6,10.4,12.4
		c0.7,1.1,0.4,2.5-0.7,3.2C-413.4-421.4-413.9-421.3-414.3-421.3z"/>
</g>
</svg>
