<?xml version="1.0" encoding="utf-8"?>
<!-- Generator: Adobe Illustrator 19.2.0, SVG Export Plug-In . SVG Version: 6.00 Build 0)  -->
<svg version="1.1" id="Layer_1" xmlns="http://www.w3.org/2000/svg" xmlns:xlink="http://www.w3.org/1999/xlink" x="0px" y="0px"
	 viewBox="0 0 52.5 56.5" style="enable-background:new 0 0 52.5 56.5;" xml:space="preserve">
<style type="text/css">
	.st0{fill:url(#SVGID_1_);}
	.st1{fill:#FFFFFF;}
</style>
<g>
	<g id="Background_7_" transform="matrix(2 0 0 2 200.7 199.3)">
		
			<linearGradient id="SVGID_1_" gradientUnits="userSpaceOnUse" x1="-223.9643" y1="-330.6798" x2="-223.9643" y2="-330.3023" gradientTransform="matrix(120 0 0 120 26789.1504 39585.3086)">
			<stop  offset="0" style="stop-color:#62FA7F"/>
			<stop  offset="0.6865" style="stop-color:#22CC40"/>
			<stop  offset="1" style="stop-color:#05B723"/>
		</linearGradient>
		<path class="st0" d="M-92.1-96.3c-0.1,0-0.4,0-0.6,0c-0.5,0-1.2,0.1-1.4,0.1c-0.5,0.1-0.9,0.2-1.2,0.4c-0.4,0.2-0.8,0.5-1.1,0.8
			c-0.3,0.3-0.6,0.7-0.8,1.1c-0.2,0.4-0.3,0.8-0.4,1.2c-0.1,0.3-0.1,1-0.1,1.5c0,0.2,0,0.5,0,0.6v11.1c0,0.1,0,0.4,0,0.6
			c0,0.5,0.1,1.2,0.1,1.4c0.1,0.5,0.2,0.9,0.4,1.2c0.2,0.4,0.5,0.8,0.8,1.1c0.3,0.3,0.7,0.6,1.1,0.8c0.4,0.2,0.8,0.3,1.2,0.4
			c0.3,0.1,1,0.1,1.5,0.1c0.2,0,0.5,0,0.6,0H-81c0.1,0,0.4,0,0.6,0c0.5,0,1.2-0.1,1.4-0.1c0.5-0.1,0.9-0.2,1.2-0.4
			c0.4-0.2,0.8-0.5,1.1-0.8c0.3-0.3,0.6-0.7,0.8-1.1c0.2-0.4,0.3-0.8,0.4-1.2c0.1-0.3,0.1-1,0.1-1.5c0-0.2,0-0.5,0-0.6v-11.1
			c0-0.1,0-0.4,0-0.6c0-0.5-0.1-1.2-0.1-1.4c-0.1-0.5-0.2-0.9-0.4-1.2c-0.2-0.4-0.5-0.8-0.8-1.1c-0.3-0.3-0.7-0.6-1.1-0.8
			c-0.4-0.2-0.8-0.3-1.2-0.4c-0.3-0.1-1-0.1-1.5-0.1c-0.2,0-0.5,0-0.6,0H-92.1z"/>
	</g>
	<g id="WhatsApp-Icon" transform="matrix(2 0 0 2 202.2 197.7)">
		<path class="st1" d="M-83.2-82.9c-0.2-0.1-1.2-0.6-1.4-0.7c-0.2-0.1-0.3-0.1-0.5,0.1c-0.1,0.2-0.5,0.7-0.6,0.8
			c-0.1,0.1-0.2,0.2-0.4,0.1s-0.9-0.3-1.7-1c-0.6-0.5-1-1.2-1.1-1.4c-0.1-0.2,0-0.3,0.1-0.4s0.2-0.2,0.3-0.4
			c0.1-0.1,0.1-0.2,0.2-0.3c0.1-0.1,0-0.3,0-0.4s-0.5-1.1-0.6-1.5c-0.2-0.4-0.3-0.3-0.5-0.4c-0.1,0-0.3,0-0.4,0
			c-0.1,0-0.4,0.1-0.5,0.3s-0.7,0.7-0.7,1.7s0.7,1.9,0.8,2.1c0.1,0.1,1.4,2.2,3.5,3c0.5,0.2,0.9,0.3,1.2,0.4
			c0.5,0.2,0.9,0.1,1.3,0.1c0.4-0.1,1.2-0.5,1.4-0.9c0.2-0.5,0.2-0.9,0.1-0.9C-82.9-82.8-83-82.8-83.2-82.9 M-87.1-77.7L-87.1-77.7
			c-1.2,0-2.4-0.3-3.4-0.9l-0.3-0.2l-2.5,0.7l0.7-2.5l-0.2-0.3c-0.7-1.1-1-2.3-1-3.6c0-3.7,3-6.7,6.7-6.7c1.8,0,3.5,0.7,4.7,2
			c1.3,1.3,2,2.9,2,4.7C-80.4-80.7-83.4-77.7-87.1-77.7 M-81.4-90.1c-1.5-1.5-3.6-2.4-5.7-2.4c-4.4,0-8.1,3.6-8.1,8.1
			c0,1.4,0.4,2.8,1.1,4l-1.1,4.2l4.3-1.1c1.2,0.6,2.5,1,3.9,1l0,0l0,0c4.4,0,8.1-3.6,8.1-8.1C-79-86.5-79.8-88.6-81.4-90.1"/>
	</g>
</g>
</svg>
