<?xml version="1.0" encoding="utf-8"?>
<!-- Generator: Adobe Illustrator 19.2.0, SVG Export Plug-In . SVG Version: 6.00 Build 0)  -->
<svg version="1.1" id="Layer_1" xmlns="http://www.w3.org/2000/svg" xmlns:xlink="http://www.w3.org/1999/xlink" x="0px" y="0px"
	 viewBox="0 0 52.5 56.5" style="enable-background:new 0 0 52.5 56.5;" xml:space="preserve">
<style type="text/css">
	.st0{fill:url(#SVGID_1_);}
	.st1{fill:url(#SVGID_2_);}
	.st2{fill:url(#SVGID_3_);}
</style>
<g>
	<g id="Layer_1_16_" transform="matrix(0.39 0 0 0.39 203.31 200)">
		
			<linearGradient id="SVGID_1_" gradientUnits="userSpaceOnUse" x1="264.9384" y1="-1451.5985" x2="283.8687" y2="-1432.6681" gradientTransform="matrix(0.39 0 0 0.39 -570.4967 116.5785)">
			<stop  offset="0" style="stop-color:#DD272D"/>
			<stop  offset="0.5153" style="stop-color:#CA2429"/>
			<stop  offset="1" style="stop-color:#B22025"/>
		</linearGradient>
		<polygon class="st0" points="-462.2,-426.8 -440,-440.2 -462.2,-453.5 		"/>
	</g>
	<g id="Layer_1_15_" transform="matrix(0.39 0 0 0.39 200 200)">
		
			<linearGradient id="SVGID_2_" gradientUnits="userSpaceOnUse" x1="178.5282" y1="-1557.8929" x2="281.1723" y2="-1455.2489" gradientTransform="matrix(0.39 0 0 0.39 -565.3267 116.5785)">
			<stop  offset="0" style="stop-color:#DD272D"/>
			<stop  offset="0.5153" style="stop-color:#CA2429"/>
			<stop  offset="1" style="stop-color:#B22025"/>
		</linearGradient>
		<path class="st1" d="M-420.5-498.3h-48.8c-18.6,0-33.8,15.1-33.8,33.8v48.8c0,18.6,15.1,33.8,33.8,33.8h48.8
			c18.6,0,33.8-15.1,33.8-33.8v-48.8C-386.7-483.2-401.8-498.3-420.5-498.3z M-409.3-437.3c0,6.1-0.7,12.3-0.7,12.3
			s-0.7,5.2-2.8,7.5c-2.7,3-5.7,3-7.1,3.2c-10,0.8-24.9,0.8-24.9,0.8s-18.5-0.2-24.2-0.8c-1.6-0.3-5.1-0.2-7.8-3.2
			c-2.1-2.3-2.8-7.5-2.8-7.5s-0.7-6.1-0.7-12.3v-5.8c0-6.1,0.7-12.3,0.7-12.3s0.7-5.2,2.8-7.5c2.7-3,5.7-3,7.1-3.2
			c10-0.8,24.9-0.8,24.9-0.8h0c0,0,14.9,0,24.9,0.8c1.4,0.2,4.4,0.2,7.1,3.2c2.1,2.3,2.8,7.5,2.8,7.5s0.7,6.1,0.7,12.3V-437.3
			L-409.3-437.3z"/>
	</g>
	<g id="Layer_1_22_" transform="matrix(0.39 0 0 0.39 200 200)">
		
			<linearGradient id="SVGID_3_" gradientUnits="userSpaceOnUse" x1="178.5282" y1="-1557.8929" x2="281.1723" y2="-1455.2489" gradientTransform="matrix(0.39 0 0 0.39 -565.3267 116.5785)">
			<stop  offset="0" style="stop-color:#DD272D"/>
			<stop  offset="0.5153" style="stop-color:#CA2429"/>
			<stop  offset="1" style="stop-color:#B22025"/>
		</linearGradient>
		<path class="st2" d="M-420.5-498.3h-48.8c-18.6,0-33.8,15.1-33.8,33.8v48.8c0,18.6,15.1,33.8,33.8,33.8h48.8
			c18.6,0,33.8-15.1,33.8-33.8v-48.8C-386.7-483.2-401.8-498.3-420.5-498.3z M-409.3-437.3c0,6.1-0.7,12.3-0.7,12.3
			s-0.7,5.2-2.8,7.5c-2.7,3-5.7,3-7.1,3.2c-10,0.8-24.9,0.8-24.9,0.8s-18.5-0.2-24.2-0.8c-1.6-0.3-5.1-0.2-7.8-3.2
			c-2.1-2.3-2.8-7.5-2.8-7.5s-0.7-6.1-0.7-12.3v-5.8c0-6.1,0.7-12.3,0.7-12.3s0.7-5.2,2.8-7.5c2.7-3,5.7-3,7.1-3.2
			c10-0.8,24.9-0.8,24.9-0.8h0c0,0,14.9,0,24.9,0.8c1.4,0.2,4.4,0.2,7.1,3.2c2.1,2.3,2.8,7.5,2.8,7.5s0.7,6.1,0.7,12.3V-437.3
			L-409.3-437.3z"/>
	</g>
</g>
</svg>
