<?xml version="1.0" encoding="utf-8"?>
<!-- Generator: Adobe Illustrator 19.2.0, SVG Export Plug-In . SVG Version: 6.00 Build 0)  -->
<svg version="1.1" id="Layer_1" xmlns="http://www.w3.org/2000/svg" xmlns:xlink="http://www.w3.org/1999/xlink" x="0px" y="0px"
	 viewBox="0 0 50 48.9" style="enable-background:new 0 0 50 48.9;" xml:space="preserve">
<style type="text/css">
	.st0{fill:#028AB4;stroke:#028AB4;stroke-width:1.3284;stroke-miterlimit:10;}
	.st1{fill:none;stroke:#028AB4;stroke-width:0.7454;stroke-linecap:round;stroke-linejoin:round;}
	.st2{fill:#028AB4;}
</style>
<g>
	<g id="Layer_1_18_" transform="matrix(1.56 0 0 1.56 199.64 148.7)">
		<path class="st0" d="M-107.4-86.9h-10.1c-0.2,0-0.4-0.2-0.4-0.4v-1.5c0-1,0.8-1.9,1.9-1.9h7.2c1,0,1.9,0.8,1.9,1.9v1.5
			C-107-87.1-107.2-86.9-107.4-86.9z M-117-87.8h9.2v-1c0-0.6-0.5-1-1-1h-7.2c-0.6,0-1,0.5-1,1V-87.8z"/>
	</g>
	<g id="Layer_1_16_" transform="matrix(1.56 0 0 1.56 261.03 218.02)">
		<path class="st1" d="M-140.4-120.4c0,0,0.1,0,0.1,0C-140.3-120.4-140.4-120.4-140.4-120.4z"/>
	</g>
	<g id="Layer_1_4_" transform="matrix(1.56 0 0 1.56 259.52 218.3)">
		<path class="st1" d="M-139.8-120.5c0.1,0,0.2,0,0.2,0C-139.6-120.5-139.7-120.5-139.8-120.5z"/>
	</g>
	<g id="Layer_1_6_" transform="matrix(1.56 0 0 1.56 200.24 187.44)">
		<path class="st0" d="M-101.8-100.3h-8c-0.2,0-0.4-0.2-0.4-0.4c0-0.2,0.2-0.4,0.4-0.4h8c0.1,0,0.1,0,0.2,0c0,0,0,0,0.1,0
			c0,0,0.1,0,0.1,0c0.1,0,0.1-0.1,0.2-0.1c0.3-0.2,0.5-0.5,0.5-0.9v-8.6c0-0.6-0.5-1-1-1h-21.8c-0.6,0-1,0.5-1,1v8.6
			c0,0.4,0.2,0.7,0.5,0.9c0.1,0,0.1,0.1,0.2,0.1c0,0,0.1,0,0.1,0c0,0,0.1,0,0.1,0c0,0,0.1,0,0.2,0h8.8c0.2,0,0.4,0.2,0.4,0.4
			c0,0.2-0.2,0.4-0.4,0.4h-8.8c-0.1,0-0.2,0-0.3,0c0,0-0.1,0-0.1,0c0,0-0.1,0-0.1,0c-0.1-0.1-0.3-0.1-0.4-0.2
			c-0.6-0.3-0.9-0.9-0.9-1.6v-8.6c0-1,0.8-1.9,1.9-1.9h21.8c1,0,1.9,0.8,1.9,1.9v8.6c0,0.7-0.3,1.3-0.9,1.6
			c-0.1,0.1-0.2,0.1-0.4,0.2c-0.1,0-0.1,0-0.2,0c0,0-0.1,0-0.1,0C-101.6-100.3-101.7-100.3-101.8-100.3z"/>
	</g>
	<g id="Layer_1_8_" transform="matrix(1.56 0 0 1.56 211.75 208.41)">
		<path class="st1" d="M-117.9-116"/>
	</g>
	<g id="Layer_1_10_" transform="matrix(1.56 0 0 1.56 200.24 238.45)">
		<path class="st0" d="M-102.7-125.3h-20c-1.1,0-2-0.9-2-2v-6.3c0-0.2,0.2-0.4,0.4-0.4c0.2,0,0.4,0.2,0.4,0.4v6.3
			c0,0.6,0.5,1.2,1.2,1.2h20c0.6,0,1.2-0.5,1.2-1.2v-6.3c0-0.2,0.2-0.4,0.4-0.4c0.2,0,0.4,0.2,0.4,0.4v6.3
			C-100.6-126.2-101.6-125.3-102.7-125.3z"/>
	</g>
	<g id="Layer_1_11_" transform="matrix(1.56 0 0 1.56 262.08 217.59)">
		<path class="st1" d="M-141-119.7c-0.2,0-0.3-0.1-0.4-0.3c-0.1-0.2,0-0.5,0.3-0.6c0.1,0,0.1-0.1,0.2-0.1c0,0,0,0,0,0l0,0l0,0
			c0,0,0,0,0,0l0,0c0.2-0.1,0.5-0.1,0.6,0.2c0.1,0.2,0.1,0.5-0.2,0.6l0,0c0,0,0,0,0,0h0h0c0,0,0,0,0,0l0,0l0,0c0,0,0,0,0,0
			c-0.1,0.1-0.2,0.1-0.4,0.2C-140.9-119.7-140.9-119.7-141-119.7z M-140.9-120.6l0.2,0.4L-140.9-120.6z"/>
	</g>
	<g id="Layer_1_14_" transform="matrix(1.56 0 0 1.56 260.46 218.18)">
		<path class="st1" d="M-140.2-120c-0.2,0-0.4-0.1-0.4-0.4c0-0.2,0.1-0.5,0.3-0.5l0.1,0c0.2-0.1,0.5,0.1,0.5,0.3
			c0.1,0.2-0.1,0.5-0.3,0.5c0,0,0,0-0.1,0C-140-120-140.1-120-140.2-120C-140.1-120-140.1-120-140.2-120z"/>
	</g>
	<g id="Layer_1_15_" transform="matrix(1.56 0 0 1.56 202.5 216.37)">
		<path class="st2" d="M-112.2-117.3h-3c-0.8,0-1.4-0.6-1.4-1.4v-1.7c0-0.8,0.6-1.4,1.4-1.4h3c0.8,0,1.4,0.6,1.4,1.4v1.7
			C-110.8-118-111.4-117.3-112.2-117.3z M-115.2-121c-0.3,0-0.6,0.3-0.6,0.6v1.7c0,0.3,0.3,0.6,0.6,0.6h3c0.3,0,0.6-0.3,0.6-0.6
			v-1.7c0-0.3-0.3-0.6-0.6-0.6H-115.2z"/>
	</g>
</g>
</svg>
