<?xml version="1.0" encoding="utf-8"?>
<!-- Generator: Adobe Illustrator 19.2.0, SVG Export Plug-In . SVG Version: 6.00 Build 0)  -->
<svg version="1.1" id="Layer_1" xmlns="http://www.w3.org/2000/svg" xmlns:xlink="http://www.w3.org/1999/xlink" x="0px" y="0px"
	 viewBox="0 0 50 48.9" style="enable-background:new 0 0 50 48.9;" xml:space="preserve">
<style type="text/css">
	.st0{fill:#028AB4;}
</style>
<g id="Layer_1_1_" transform="matrix(0.45 0 0 0.45 200 200)">
	<path class="st0" d="M-340.9-387.1c0,25.7-20.8,46.5-46.5,46.6c-12.3,0-24.2-4.9-32.9-13.6c-8.8-8.7-13.7-20.6-13.6-32.9h6.3
		c0,22.2,18.1,40.3,40.3,40.3c22.2,0,40.3-18.1,40.3-40.3s-18.1-40.3-40.3-40.3c-11.1,0-21.6,4.6-29.2,12.6h12.2v6.3h-22v-22h6.3
		v10.3c18.3-18.1,47.7-17.9,65.8,0.3C-345.8-411.1-340.9-399.4-340.9-387.1z M-388.7-411.6v29.6h25.8v-6.3h-19.5v-23.3H-388.7z"/>
</g>
</svg>
