<svg id="Layer_1" data-name="Layer 1" xmlns="http://www.w3.org/2000/svg" viewBox="0 0 44.82 44.82"><defs><style>.cls-1{fill:#0089b4;}.cls-2{fill:none;stroke:#0089b4;stroke-miterlimit:10;stroke-width:2.3px;}</style></defs><g id="Layer_2" data-name="Layer 2"><path class="cls-1" d="M18,27.51h1.08a1.21,1.21,0,0,0,0-2.41H18A1.21,1.21,0,0,0,18,27.51Z" transform="translate(-2.59 -2.04)"/></g><g id="Layer_2-2" data-name="Layer 2"><path class="cls-1" d="M30.87,27.51H32a1.21,1.21,0,0,0,0-2.41H30.87A1.21,1.21,0,0,0,30.87,27.51Z" transform="translate(-2.59 -2.04)"/></g><g id="Layer_2-3" data-name="Layer 2"><path class="cls-1" d="M36.27,18.18H34.8L32.9,14a1.22,1.22,0,0,0-1.11-.72H18.19a1.19,1.19,0,0,0-1.1.72l-1.91,4.23H13.72a1.21,1.21,0,0,0,0,2.42h.37a11.22,11.22,0,0,0-.87,2.19v7A1.21,1.21,0,0,0,14.43,31h.09v1.53a3.13,3.13,0,0,0,6.26,0V31H29.2v1.53a3.14,3.14,0,0,0,6.27,0V31h.08a1.21,1.21,0,0,0,1.21-1.21v-7a1.4,1.4,0,0,0-.11-.5l-.76-1.69a1.3,1.3,0,0,0,1.59-1.21A1.21,1.21,0,0,0,36.27,18.18ZM19,15.65H31l2.67,5.93H16.3Zm-.61,16.91a.72.72,0,0,1-1.43,0V31h1.43Zm14.69,0a.72.72,0,0,1-1.43,0V31h1.43Zm1.29-4H15.64V24h18.7Z" transform="translate(-2.59 -2.04)"/></g><circle class="cls-2" cx="22.41" cy="22.41" r="21.26"/></svg>