<svg id="Layer_1" data-name="Layer 1" xmlns="http://www.w3.org/2000/svg" viewBox="0 0 44.82 44.82"><defs><style>.cls-1{fill:none;stroke:#0089b4;stroke-width:2.3px;}.cls-1,.cls-2{stroke-miterlimit:10;}.cls-2{fill:#0089b4;stroke:#028ab4;stroke-width:1.01px;}</style></defs><circle class="cls-1" cx="22.41" cy="22.41" r="21.26"/><g id="Fill"><path class="cls-2" d="M26.79,13.37a2.6,2.6,0,0,0-3.58,0L12.6,24l1.19,1.2,1.94-1.93V33.71a2.52,2.52,0,0,0,2.52,2.53h13.5a2.52,2.52,0,0,0,2.52-2.53V23.25l1.94,1.93L37.4,24ZM23.31,34.55v-5.9h3.38v5.9Zm9.28-.84a.84.84,0,0,1-.84.84H28.37V27H21.63v7.59H18.25a.84.84,0,0,1-.84-.84V21.56l7-7a.84.84,0,0,1,1.19,0h0l7,7Z" transform="translate(-2.59 -2.04)"/></g></svg>