<?xml version="1.0" encoding="utf-8"?>
<!-- Generator: Adobe Illustrator 19.2.0, SVG Export Plug-In . SVG Version: 6.00 Build 0)  -->
<svg version="1.1" id="Layer_1" xmlns="http://www.w3.org/2000/svg" xmlns:xlink="http://www.w3.org/1999/xlink" x="0px" y="0px"
	 viewBox="0 0 50 48.9" style="enable-background:new 0 0 50 48.9;" xml:space="preserve">
<style type="text/css">
	.st0{fill:none;stroke:#0089B4;stroke-width:2.2958;stroke-miterlimit:10;}
	.st1{fill:#028AB4;stroke:#028AB4;stroke-width:1.0124;stroke-miterlimit:10;}
</style>
<g>
	<circle class="st0" cx="25.2" cy="25.4" r="21.3"/>
	<g>
		<g id="Outline" transform="matrix(0.39 0 0 0.39 199.63 200.02)">
			<path class="st1" d="M-419.3-478.4h-56c-2.8,0-5,2.3-5,5.1v36.5c0,2.8,2.3,5,5,5h26v10.6H-466c-1.1,0-2,0.9-2,2c0,1.1,0.9,2,2,2
				h37.7c1.1,0,2-0.9,2-2c0-1.1-0.9-2-2-2c0,0,0,0,0,0h-17v-10.6h26c2.8,0,5-2.3,5-5v-36.5C-414.2-476.1-416.5-478.4-419.3-478.4z
				 M-475.3-474.3h56c0.6,0,1,0.5,1,1v23.5h-58.1v-23.5C-476.3-473.9-475.9-474.3-475.3-474.3C-475.3-474.3-475.3-474.3-475.3-474.3
				z M-419.3-435.8h-56c-0.6,0-1-0.5-1-1v-9h58.1v9C-418.3-436.2-418.7-435.8-419.3-435.8L-419.3-435.8z"/>
		</g>
		<g id="Outline_1_" transform="matrix(0.39 0 0 0.39 199.88 215.18)">
			<path class="st1" d="M-442-481.7h-11.6c-1.1,0-2,0.9-2,2c0,1.1,0.9,2,2,2c0,0,0,0,0,0h11.6c1.1,0,2-0.9,2-2
				C-440-480.8-440.9-481.7-442-481.7z"/>
		</g>
	</g>
</g>
</svg>
