<?xml version="1.0" encoding="utf-8"?>
<!-- Generator: Adobe Illustrator 19.2.0, SVG Export Plug-In . SVG Version: 6.00 Build 0)  -->
<svg version="1.1" id="Layer_1" xmlns="http://www.w3.org/2000/svg" xmlns:xlink="http://www.w3.org/1999/xlink" x="0px" y="0px"
	 viewBox="0 0 45.2 48.9" style="enable-background:new 0 0 45.2 48.9;" xml:space="preserve">
<style type="text/css">
	.st0{fill:#028AB4;}
</style>
<g>
	<g id="user_people_person_users_man" transform="matrix(6.25 0 0 6.25 200 240.28)">
		<path class="st0" d="M-26.4-34.4c-0.1-0.1-0.3-0.1-0.4,0s-0.1,0.3,0,0.4c0.4,0.4,0.7,1,0.7,1.7c0,0.3-0.9,0.8-2.3,0.8
			c-1.4,0-2.3-0.5-2.3-0.8c0-0.6,0.2-1.2,0.7-1.6c0.1-0.1,0.1-0.3,0-0.4c-0.1-0.1-0.3-0.1-0.4,0c-0.5,0.5-0.8,1.3-0.8,2
			c0,0.8,1.5,1.3,2.8,1.3c1.4,0,2.8-0.5,2.8-1.3C-25.5-33.1-25.8-33.8-26.4-34.4z"/>
	</g>
	<g id="user_people_person_users_man_1_" transform="matrix(6.25 0 0 6.25 200 162.5)">
		<path class="st0" d="M-28.4-21.7c1,0,1.8-0.8,1.8-1.8c0-1-0.8-1.8-1.8-1.8c-1,0-1.8,0.8-1.8,1.8C-30.2-22.5-29.4-21.7-28.4-21.7z
			 M-28.4-24.8c0.7,0,1.3,0.6,1.3,1.3c0,0.7-0.6,1.3-1.3,1.3c-0.7,0-1.3-0.6-1.3-1.3C-29.7-24.2-29.1-24.8-28.4-24.8z"/>
	</g>
</g>
</svg>
