<svg id="Layer_1" data-name="Layer 1" xmlns="http://www.w3.org/2000/svg" viewBox="0 0 40.65 40.63"><defs><style>.cls-1{fill:#028ab4;stroke:#fff;stroke-miterlimit:10;stroke-width:0.8px;}</style></defs><g id="Layer_2" data-name="Layer 2"><path class="cls-1" d="M45.09,4.07,43.46,4c-.81-.05-18.53-1.2-26.57,6.86-7,7.07-5.23,19.58-4.47,23.28L5.61,40.88l2.65,2.64,6.79-6.78a40.36,40.36,0,0,0,7.83.77c5.07,0,11.27-1,15.45-5.26,8.08-8,6.93-25.74,6.87-26.55ZM35.7,29.62C31.07,34.24,23,34,18.37,33.38l4.38-4.32h8.62V25.3H26.51l3.76-3.76H37V17.78H34l4.31-4.3-2.65-2.67-4.31,4.32v-3H27.62v6.74l-3.76,3.76V17.78H20.1v8.63L15.7,30.8c-.56-4.6-.77-12.7,3.76-17.32C25.08,8,37,7.58,41.52,7.64c.06,4.51-.32,16.44-5.84,22Z" transform="translate(-5.05 -3.47)"/></g></svg>