<svg id="Layer_1" data-name="Layer 1" xmlns="http://www.w3.org/2000/svg" viewBox="0 0 43.55 46.12"><defs><style>.cls-1{fill:#028ab4;}</style></defs><g id="Your_Icons" data-name="Your Icons"><path class="cls-1" d="M19.5,38.71a1.27,1.27,0,0,0-1.8,0,2.65,2.65,0,0,1-3.63,0,.59.59,0,0,0-.19-.13l.41-.42c.52-.53.37-1.29-.22-1.29h-.13l-2,.3a1.13,1.13,0,0,0-.89.88l-.3,2a.53.53,0,0,0,.39.65l.14,0a1.06,1.06,0,0,0,.7-.32l.11-.12c0,.06.08.14.13.19a5.13,5.13,0,0,0,7.25,0h0A1.27,1.27,0,0,0,19.5,38.71Z" transform="translate(-3.07 -1.06)"/></g><g id="Your_Icons-2" data-name="Your Icons"><path class="cls-1" d="M5.64,10h7.68V27a10.25,10.25,0,0,0,2.56,20.16A9.72,9.72,0,0,0,17.75,47a3.55,3.55,0,0,0,1.12.18c2.78,0,2.78-2.56,5.55-2.56S27.2,47.18,30,47.18s2.78-2.56,5.56-2.56,2.77,2.56,5.55,2.56c2,0,2.56-1.28,3.75-2.06a3.85,3.85,0,0,0,1.81-3.27V7.47a6.41,6.41,0,0,0-6.41-6.41H9.48a6.11,6.11,0,0,0-1.28.13h0A6.41,6.41,0,0,0,3.07,7.47,2.57,2.57,0,0,0,5.64,10ZM8.2,36.93a7.69,7.69,0,0,1,5.12-7.24,8.37,8.37,0,0,1,1.19-.32h.17a8.15,8.15,0,0,1,1.2-.13A7.69,7.69,0,1,1,8.2,36.93Zm32-33.31a3.85,3.85,0,0,1,3.85,3.85V41.85a1.29,1.29,0,0,1-.61,1.09A8.62,8.62,0,0,0,42.12,44c-.64.58-.69.61-1,.61s-.41,0-1-.61a6.2,6.2,0,0,0-8.75-.22l-.22.22c-.62.58-.69.61-1,.61s-.4,0-1-.61a6.34,6.34,0,0,0-4.25-2h0a10.63,10.63,0,0,0,.95-2.25l.07-.31a7,7,0,0,0,.18-.91,2.16,2.16,0,0,0,0-.36,9.31,9.31,0,0,0,.18-1.29,10.1,10.1,0,0,0-.75-3.84H40.22a1.28,1.28,0,1,0,0-2.56H24.16a1,1,0,0,0-.24,0A10.44,10.44,0,0,0,20.84,28H40.22a1.28,1.28,0,0,0,0-2.56H19.73a1.28,1.28,0,0,0-1.28,1.28,1,1,0,0,0,.07.36,9.78,9.78,0,0,0-2.64-.36V7.47A9,9,0,0,0,15,3.62ZM8.48,3.75h.27a4.46,4.46,0,0,1,.73-.13A3.86,3.86,0,0,1,12.2,4.74a4,4,0,0,1,1.05,2c0,.25.06.51.07.77H5.64A3.83,3.83,0,0,1,8.48,3.75Z" transform="translate(-3.07 -1.06)"/></g><g id="Your_Icons-3" data-name="Your Icons"><path class="cls-1" d="M32.53,11.32h7.68a1.28,1.28,0,1,0,0-2.56H32.53a1.28,1.28,0,0,0,0,2.56Z" transform="translate(-3.07 -1.06)"/></g><g id="Your_Icons-4" data-name="Your Icons"><path class="cls-1" d="M32.53,16.44h7.68a1.28,1.28,0,1,0,0-2.56H32.53a1.28,1.28,0,0,0,0,2.56Z" transform="translate(-3.07 -1.06)"/></g><g id="Your_Icons-5" data-name="Your Icons"><path class="cls-1" d="M32.53,21.56h7.68a1.28,1.28,0,1,0,0-2.56H32.53a1.28,1.28,0,0,0,0,2.56Z" transform="translate(-3.07 -1.06)"/></g><g id="Your_Icons-6" data-name="Your Icons"><path class="cls-1" d="M21,21.56h5.13A2.56,2.56,0,0,0,28.7,19V11.32a2.57,2.57,0,0,0-2.56-2.57H21a2.57,2.57,0,0,0-2.56,2.57V19A2.56,2.56,0,0,0,21,21.56Zm0-10.24h5.13V19H21Z" transform="translate(-3.07 -1.06)"/></g><g id="Your_Icons-7" data-name="Your Icons"><path class="cls-1" d="M14.07,35.09a2.65,2.65,0,0,1,3.63,0,1.14,1.14,0,0,0,.23.15l-.44.44c-.52.52-.37,1.28.22,1.28h.13l2-.3a1.12,1.12,0,0,0,.88-.88l.31-2a.54.54,0,0,0-.4-.65.38.38,0,0,0-.15,0,1,1,0,0,0-.7.32l-.11.11a.87.87,0,0,0-.16-.23,5.12,5.12,0,0,0-7.24,0h0a1.29,1.29,0,0,0,1.82,1.82Z" transform="translate(-3.07 -1.06)"/></g></svg>