<svg id="Layer_1" data-name="Layer 1" xmlns="http://www.w3.org/2000/svg" viewBox="0 0 43.43 45.96"><defs><style>.cls-1{fill:#028ab4;}</style></defs><g id="icon-15"><path class="cls-1" d="M17.8,1.44a1.64,1.64,0,0,0-1.64,1.65V6.37a1.64,1.64,0,1,0,3.28,0V4.73h23V44.11h-23V42.48a1.64,1.64,0,1,0-3.28,0v3.28A1.64,1.64,0,0,0,17.8,47.4H44.06a1.65,1.65,0,0,0,1.65-1.64V3.09a1.65,1.65,0,0,0-1.65-1.65Zm-1.66,9.07v3.13A10.93,10.93,0,0,0,7,22.77H3.88a1.64,1.64,0,0,0,0,3.28H7a10.93,10.93,0,0,0,9.13,9.14v3.14a1.65,1.65,0,1,0,3.29,0V35.19a10.94,10.94,0,0,0,9.13-9.14h3.15a1.64,1.64,0,1,0,0-3.28H28.56a11,11,0,0,0-9.13-9.13V10.51A1.65,1.65,0,1,0,16.14,10.51Zm1.62,6.28a7.59,7.59,0,0,1,7.65,7.63A7.39,7.39,0,0,1,17.86,32c-4.71,0-7.57-3.33-7.7-7.62A7.6,7.6,0,0,1,17.76,16.79Zm0,1.35a6.28,6.28,0,1,0,6.28,6.28A6.3,6.3,0,0,0,17.78,18.14Zm0,3.28a3,3,0,1,1-3,3A3,3,0,0,1,17.78,21.42Z" transform="translate(-2.28 -1.44)"/></g></svg>