<svg id="Layer_1" data-name="Layer 1" xmlns="http://www.w3.org/2000/svg" viewBox="0 0 43.74 37.74"><defs><style>.cls-1{fill:#028ab4;stroke:#028ab4;stroke-miterlimit:10;}</style></defs><g id="Capa_1" data-name="Capa 1"><path class="cls-1" d="M44.12,6.08H8.88V17.33H7.94a4.32,4.32,0,0,0-4.31,4.31V32.32a3.75,3.75,0,0,0,3.75,3.75h1.5v6.75H46.37V6.08Zm-1.5,1.5V12a5.26,5.26,0,0,1-4.45-4.45ZM10.38,11.39a13.15,13.15,0,0,1,9.89,5.94H10.38ZM5.13,21.64a2.81,2.81,0,0,1,2.81-2.81H25.37v9.74h-18a4.05,4.05,0,0,0-.7.07l-.2.06a2.15,2.15,0,0,0-.45.14l-.22.09a3.11,3.11,0,0,0-.4.22l-.19.11-.09.06V21.64Zm25.49.94v2.24a3.75,3.75,0,0,1-3.75,3.75V18.83A3.75,3.75,0,0,1,30.62,22.58Zm-23.24,12a2.25,2.25,0,0,1,0-4.5h1.5v4.5Zm3-4.5H21.1a13.07,13.07,0,0,1-10.72,7.44V30.07Zm0,11.25V39a14.53,14.53,0,0,0,12.35-8.93h4.14a5.25,5.25,0,0,0,5.25-5.25V22.58a5.25,5.25,0,0,0-5.25-5.25H22A14.67,14.67,0,0,0,10.38,9.89V7.58H36.67a6.74,6.74,0,0,0,5.95,5.95V35.37a6.74,6.74,0,0,0-5.95,6Zm32.24,0H38.17a5.26,5.26,0,0,1,4.45-4.45Zm2.25,0h-.75V7.58h.75Z" transform="translate(-3.13 -5.58)"/></g></svg>