<svg id="Layer_1" data-name="Layer 1" xmlns="http://www.w3.org/2000/svg" viewBox="0 0 42.9 35.87"><defs><style>.cls-1{fill:#028ab4;}.cls-2{fill:none;stroke:#028ab4;stroke-linecap:round;stroke-linejoin:round;stroke-width:2.57px;}</style></defs><g id="Layer_1-2" data-name="Layer 1"><path class="cls-1" d="M21.15,31a3,3,0,0,1-.95-1.38V26.8a7.62,7.62,0,0,0,2.41-3.33,6.5,6.5,0,0,1-.93-2.69A4.72,4.72,0,0,1,22,18.35a10,10,0,0,1-.4-2.65,12.34,12.34,0,0,1,1.11-5.22,3.44,3.44,0,0,0-2.5-1s-.52-2.08-3.47-2.08c-4.84,0-7.63,3.78-7.63,8.33a8.29,8.29,0,0,0,.73,3.07,1.64,1.64,0,0,0-.66,1.66c.23,1.78,1,2.23,1.49,2.27a7.3,7.3,0,0,0,2.6,4.1v2.77C11.87,33.74,3.55,31,3.55,40.67H16C16,34.88,18.62,32.33,21.15,31Z" transform="translate(-3.55 -6.09)"/></g><g id="Layer_1-3" data-name="Layer 1"><path class="cls-2" d="M35.45,29.57V26.8a7.25,7.25,0,0,0,2.6-4.1c.49,0,1.26-.49,1.49-2.27a1.62,1.62,0,0,0-.66-1.66,7.27,7.27,0,0,0,.74-3.07c0-3.37-1.33-6.25-4.17-6.25,0,0-.51-2.08-3.46-2.08-4.84,0-7.64,3.78-7.64,8.33a8.2,8.2,0,0,0,.74,3.07,1.62,1.62,0,0,0-.66,1.66c.23,1.78,1,2.23,1.49,2.27a7.25,7.25,0,0,0,2.6,4.1v2.77C27.13,33.74,18.8,31,18.8,40.67H45.17C45.17,31,36.84,33.74,35.45,29.57Z" transform="translate(-3.55 -6.09)"/></g></svg>