<?xml version="1.0" encoding="utf-8"?>
<!-- Generator: Adobe Illustrator 19.2.0, SVG Export Plug-In . SVG Version: 6.00 Build 0)  -->
<svg version="1.1" id="Layer_1" xmlns="http://www.w3.org/2000/svg" xmlns:xlink="http://www.w3.org/1999/xlink" x="0px" y="0px"
	 viewBox="0 0 181 183" style="enable-background:new 0 0 181 183;" xml:space="preserve">
<style type="text/css">
	.st0{fill:#546E7A;}
	.st1{fill:#BBDEFB;}
	.st2{fill:#455A64;}
	.st3{fill:#263238;}
	.st4{fill:#42A5F5;}
	.st5{fill:#37474F;}
	.st6{fill:#E3F2FD;}
</style>
<g id="surface1" transform="matrix(4.17 0 0 4.17 200 204.17)">
	<path class="st0" d="M-44.4-36.7h36v24h-36V-36.7z"/>
</g>
<g id="surface1_1_" transform="matrix(4.17 0 0 4.17 200 202.08)">
	<path class="st1" d="M-42.4-34.2h32v19h-32V-34.2z"/>
</g>
<g id="surface1_2_" transform="matrix(4.17 0 0 4.17 200 260.42)">
	<path class="st2" d="M-29.4-26.2h6v3h-6V-26.2z"/>
</g>
<g id="surface1_3_" transform="matrix(4.17 0 0 4.17 200 272.92)">
	<path class="st2" d="M-17.4-26.2c-2,0-16,0-18,0s-2,2-2,2v1h22v-1C-15.4-24.2-15.4-26.2-17.4-26.2z"/>
</g>
<g id="surface1_4_" transform="matrix(4.17 0 0 4.17 200 200)">
	<path class="st3" d="M-13.4-22.7c0,0.6-0.4,1-1,1h-24c-0.6,0-1-0.4-1-1v-4c0-0.6,0.4-1,1-1h24c0.6,0,1,0.4,1,1V-22.7z"/>
</g>
<g id="surface1_5_" transform="matrix(4.17 0 0 4.17 200 160.42)">
	<path class="st4" d="M-19.4-34.2c2.2,0,4,1.8,4,4v15h-22v-15c0-2.2,1.8-4,4-4H-19.4z"/>
</g>
<g id="surface1_6_" transform="matrix(4.17 0 0 4.17 183.33 160.42)">
	<path class="st5" d="M-28.4-34.2h4v19h-4V-34.2z"/>
</g>
<g id="surface1_7_" transform="matrix(4.17 0 0 4.17 208.33 164.58)">
	<path class="st6" d="M-28.4-33.2h4v17h-4V-33.2z"/>
</g>
</svg>
