<?xml version="1.0" encoding="utf-8"?>
<!-- Generator: Adobe Illustrator 19.2.0, SVG Export Plug-In . SVG Version: 6.00 Build 0)  -->
<svg version="1.1" id="Layer_1" xmlns="http://www.w3.org/2000/svg" xmlns:xlink="http://www.w3.org/1999/xlink" x="0px" y="0px"
	 viewBox="0 0 241 183" style="enable-background:new 0 0 241 183;" xml:space="preserve">
<style type="text/css">
	.st0{fill:#2D3540;}
	.st1{fill:#FF8C00;}
</style>
<g>
	<path class="st0" d="M119.5,102.3h3.6v8.1h2.6l4.7-8.1h3.9l-5.6,9.5v0.1l6,10.4h-4.1l-4.8-8.7h-2.6v8.7h-3.6L119.5,102.3
		L119.5,102.3z M142.8,107.6c4.3,0,7.9,3.1,7.9,7.5c0,4.4-3.5,7.5-7.8,7.5s-7.8-3.1-7.8-7.5C135,110.7,138.4,107.6,142.8,107.6z
		 M153.5,108h3.4v11.2h4.5V108h3.4v11.2h4.5V108h3.4v14.3h-19.1V108H153.5z M182.8,107.6c4.1,0,6.3,3,6.3,6.8c0,0.5-0.1,0.9-0.1,1.4
		h-9.8c0.2,2.5,2.1,3.8,4.3,3.8c1.5-0.1,2.9-0.6,4.1-1.5l1.4,2.5c-1.6,1.3-3.7,2.1-5.8,2.1c-4.7,0-7.7-3.4-7.7-7.5
		C175.5,110.7,178.5,107.6,182.8,107.6L182.8,107.6z M190.8,119.3c1.7-0.3,3-1.7,3-6.8V108h10.4v14.3h-3.6v-11.4h-3.5v1.6
		c0,6.2-1.7,9.8-6.4,10V119.3L190.8,119.3z M214.4,107.6c4.1,0,6.3,3,6.3,6.8c0,0.5-0.1,0.9-0.1,1.4h-9.8c0.2,2.5,2.1,3.8,4.3,3.8
		c1.5-0.1,2.9-0.6,4.1-1.5l1.4,2.5c-1.6,1.3-3.7,2.1-5.8,2.1c-4.8,0-7.7-3.4-7.7-7.5C207.1,110.7,210.2,107.6,214.4,107.6
		L214.4,107.6z M223.7,108h3.5v5.5h1.7l3.5-5.5h3.9l-4.6,6.8v0.1l5.1,7.4h-4.1l-3.7-5.8h-1.9v5.8h-3.6L223.7,108L223.7,108z
		 M142.8,119.5c2.3,0,4.3-1.8,4.3-4.5c0.1-2.4-1.8-4.4-4.2-4.5c0,0-0.1,0-0.1,0c-2.3,0-4.2,1.8-4.2,4.5
		C138.6,117.7,140.4,119.5,142.8,119.5L142.8,119.5z M185.5,113.3c0-1.9-1.3-3-2.9-3c-1.8,0-3.1,1.2-3.5,3H185.5z M217.2,113.3
		c0-1.9-1.3-3-2.9-3c-1.8,0-3.1,1.2-3.5,3H217.2z"/>
	<path class="st1" d="M169.5,58.9v33.8c0,0.5-0.4,0.9-0.9,0.9c0,0,0,0,0,0h-6.9c-0.5,0-0.9-0.4-0.9-0.9c0,0,0,0,0,0V58.9
		c0-0.5,0.4-0.9,0.9-0.9c0,0,0,0,0.1,0h6.9C169.1,58,169.5,58.4,169.5,58.9C169.5,58.9,169.5,58.9,169.5,58.9L169.5,58.9z M223.3,58
		c0.3,0,0.6,0.1,0.9,0.4c0.2,0.2,0.2,0.5,0.1,0.8L213,93c-0.1,0.4-0.5,0.6-0.9,0.6H206c-0.4,0-0.7-0.2-0.9-0.6l-6.6-19.7L191.8,93
		c-0.1,0.4-0.5,0.6-0.9,0.6h-6.2c-0.4,0-0.7-0.2-0.9-0.6l-11.4-33.8c-0.1-0.3-0.1-0.5,0.1-0.8c0.1-0.3,0.5-0.4,0.7-0.4h7.7
		c0.4,0,0.7,0.3,0.9,0.7l6.1,20l6.7-20c0.1-0.4,0.5-0.6,0.9-0.6h5.4c0.4,0,0.7,0.2,0.9,0.6l6.7,20l6.1-20c0.1-0.4,0.5-0.7,0.9-0.7
		L223.3,58z M234.9,58c0.5,0,0.9,0.4,0.9,0.9v33.8c0,0.5-0.4,0.9-0.9,0.9c0,0,0,0-0.1,0H228c-0.5,0-0.9-0.4-0.9-0.9c0,0,0,0,0-0.1
		V58.9c0-0.5,0.4-0.9,0.9-0.9c0,0,0,0,0.1,0H234.9z M156.7,92.4c0.4,0.5,0.1,1.1-0.5,1.1h-8.4c-0.3,0-0.7-0.1-0.9-0.4l-1.4-1.7
		c-3,1.9-6.5,3-10.1,3c-10.3-0.3-18.4-8.9-18.1-19.2c0.3-9.9,8.2-17.8,18.1-18.1c10.3,0,18.7,8.4,18.7,18.7c0,3.6-1,7.1-3,10.1
		L156.7,92.4L156.7,92.4z M86.3,108.8c1.7,0.7,2.4,3.3,2.5,4.4c0.3,2.1-0.3,2.9-1,2.9c-0.7,0-1.6-0.8-2.6-2.4
		c-1-1.6-1.4-3.4-0.9-4.3C84.7,108.8,85.4,108.5,86.3,108.8L86.3,108.8z M76.1,116.4c1.1,0,2.3,0.5,3.3,1.4c2.1,1.7,2.7,3.7,1.6,5.2
		c-0.6,0.7-1.6,1.2-2.7,1.2c-1.1,0-2.3-0.4-3.1-1.1c-1.9-1.6-2.4-4.3-1.2-5.8C74.5,116.7,75.3,116.3,76.1,116.4L76.1,116.4z
		 M52.7,135.7c-25.4,0-46-20.6-46-46c0-25.4,20.6-46,46-46c25.4,0,46,20.6,46,46c0,8.3-2.2,16.5-6.5,23.6c-0.1,0.2-0.5,0.1-0.5-0.1
		c-1.6-11.3-8.5-17.5-18.5-19.4c-0.9-0.1-1-0.7,0.1-0.8c3.1-0.3,7.4-0.2,9.7,0.2c1.9-16.7-10-31.8-26.7-33.8
		c-1.2-0.1-2.3-0.2-3.5-0.2c-16.8,0-30.4,13.7-30.4,30.4s13.7,30.4,30.4,30.4h1.4c-0.5-2.7-0.7-5.5-0.6-8.2c0.1-1.9,0.5-2.1,1.3-0.7
		c4.2,7.3,10.2,13.9,22,16.5c9.6,2.1,19.3,4.6,29.6,17.8c0.9,1.1-0.5,2.3-1.5,1.4c-10.6-9.4-20.2-12.4-29-12.4
		C66.1,134.4,59.4,135.7,52.7,135.7L52.7,135.7z M140,84.9l-3.7-4.5c-0.4-0.5-0.1-1.2,0.5-1.2h7.8c0.4-1.1,0.6-2.3,0.6-3.5
		c0-5.5-4.1-10.4-9.8-10.4c-5.7,0-9.8,4.8-9.8,10.4s4.1,10.3,9.8,10.3C137,86.1,138.6,85.7,140,84.9z"/>
</g>
</svg>
