<?xml version="1.0" encoding="utf-8"?>
<!-- Generator: Adobe Illustrator 19.2.0, SVG Export Plug-In . SVG Version: 6.00 Build 0)  -->
<svg version="1.1" id="Layer_1" xmlns="http://www.w3.org/2000/svg" xmlns:xlink="http://www.w3.org/1999/xlink" x="0px" y="0px"
	 viewBox="0 0 241 183" style="enable-background:new 0 0 241 183;" xml:space="preserve">
<style type="text/css">
	.st0{fill:#FF8C00;}
	.st1{clip-path:url(#SVGID_2_);fill:#2D3540;}
</style>
<g>
	<path class="st0" d="M166,64.5v33.1c0,0.5-0.4,0.9-0.9,0.9h-6.8c-0.5,0-0.9-0.4-0.9-0.9V64.5c0-0.5,0.4-0.9,0.9-0.9h6.8
		C165.6,63.6,166,64,166,64.5z M218.7,63.6h-7.5c-0.4,0-0.7,0.3-0.9,0.7l-6,19.6l-6.6-19.6c-0.1-0.4-0.5-0.6-0.9-0.6h-5.3
		c-0.4,0-0.7,0.3-0.9,0.6l-6.6,19.6l-6-19.6c-0.1-0.4-0.5-0.7-0.9-0.7h-7.5c-0.3,0-0.6,0.1-0.7,0.4c-0.2,0.3-0.2,0.5-0.1,0.8
		L180.1,98c0.1,0.4,0.5,0.6,0.9,0.6h6c0.4,0,0.7-0.3,0.9-0.6l6.5-19.3l6.5,19.3c0.1,0.4,0.5,0.6,0.9,0.6h6c0.4,0,0.7-0.3,0.9-0.6
		l11.1-33.2c0.1-0.3,0.1-0.6-0.1-0.8C219.3,63.7,218.9,63.6,218.7,63.6z M230.1,63.6h-6.8c-0.5,0-0.9,0.4-0.9,0.9v33.1
		c0,0.5,0.4,0.9,0.9,0.9h6.8c0.5,0,0.9-0.4,0.9-0.9V64.5C230.9,64,230.5,63.6,230.1,63.6z M153.4,97.4c0.4,0.5,0.1,1.1-0.5,1.1h-8.3
		c-0.3,0-0.7-0.1-0.9-0.4l-1.4-1.7c-2.9,1.8-6.3,3-9.9,3c-10.1,0-18.3-8.2-18.3-18.3s8.2-18.3,18.3-18.3s18.3,8.2,18.3,18.3
		c0,3.6-1,7-2.9,9.9L153.4,97.4z M137.1,90l-3.6-4.4c-0.4-0.5-0.1-1.2,0.5-1.2h7.6c0.4-1,0.6-2.2,0.6-3.4c0-5.4-4.1-10.2-9.6-10.2
		c-5.6,0-9.6,4.7-9.6,10.2c0,5.4,4.1,10.1,9.6,10.1C134.1,91.2,135.7,90.8,137.1,90z M84.4,113.4c-0.9-0.3-1.6-0.1-1.9,0.5
		c-0.5,0.9-0.1,2.7,0.9,4.3c1,1.6,1.9,2.4,2.6,2.4c0.7,0,1.2-0.8,1-2.8C86.8,116.6,86.1,114.1,84.4,113.4z M74.4,120.8
		c-0.9,0-1.6,0.3-2.1,0.9c-1.2,1.4-0.7,4.1,1.2,5.6c0.8,0.7,2,1.1,3.1,1.1c1.1,0,2.1-0.5,2.7-1.2c1-1.4,0.5-3.4-1.6-5.1
		C76.7,121.3,75.5,120.8,74.4,120.8z M51.5,139.8c-24.9,0-45.1-20.2-45.1-45.1s20.2-45.1,45.1-45.1s45.1,20.2,45.1,45.1
		c0,8.5-2.4,16.4-6.4,23.1c-0.1,0.2-0.5,0.1-0.5-0.1c-1.6-11.1-8.3-17.2-18.2-19c-0.9-0.1-1-0.7,0.1-0.8c3-0.3,7.3-0.2,9.5,0.2
		c0.1-1.1,0.2-2.3,0.2-3.5c0-16.5-13.4-29.8-29.8-29.8S21.7,78.2,21.7,94.6s13.4,29.8,29.8,29.8c0.5,0,0.9,0,1.4,0l0,0
		c-0.5-2.9-0.7-5.8-0.6-8.1c0.1-1.8,0.5-2.1,1.2-0.7c4.1,7.1,10,13.6,21.6,16.1c9.4,2.1,18.9,4.5,29,17.4c0.9,1.1-0.5,2.3-1.5,1.4
		c-10.4-9.2-19.8-12.2-28.4-12.2C64.7,138.5,58.1,139.8,51.5,139.8z"/>
</g>
<g>
	<g>
		<defs>
			<path id="SVGID_1_" d="M219.2,127.8V125h0.2c1.4-0.3,2.4-1.6,2.4-5.7v-4.2h9.1v12.5h-3.1v-10h-3v1.4
				C224.8,124.5,223.3,127.7,219.2,127.8z M209.3,123.9c0-1.8,2.6-2,4.2-2h0.5v0.3c0,1.5-1.1,3.3-2.9,3.3
				C209.9,125.6,209.3,124.7,209.3,123.9z M206.2,124.2c0,2.3,1.8,3.7,4.1,3.7c1.7,0,3.2-0.9,3.9-2.2h0.1v0.1c0,0.1-0.1,0.4-0.1,0.7
				v1.2h2.9v-7.9c0-3.1-2-5-5.2-5c-1.8,0-3.9,0.7-4.9,1.6l1.2,2.2c1-0.7,2.2-1.2,3.5-1.2c1.3,0,2.4,0.6,2.4,2.2v0.2h-0.5
				C210.7,119.8,206.2,120.4,206.2,124.2z M192.1,127.7h3.1v-5h5.4v5h3.1v-12.5h-3.1v4.9h-5.4v-4.9h-3.1V127.7z M177.2,127.7h3
				l4.7-6.7l0.2-0.3c0.3-0.5,0.7-1,0.8-1.2h0.1v0.4c0,0.3-0.1,0.8-0.1,1.1v6.7h3v-12.5h-3l-4.7,6.7l-0.5,0.7
				c-0.2,0.3-0.4,0.7-0.5,0.9h-0.1v-0.3c0-0.3,0.1-0.7,0.1-1.1v-6.8h-3L177.2,127.7L177.2,127.7z M158.4,127.7h3l0.5-6.8v-0.2
				c0-0.9-0.1-1.9-0.1-1.9h0.1l0.6,1.4c0.1,0.1,0.1,0.3,0.2,0.5l2.4,5.5h2.6l2.6-5.8c0.3-0.8,0.7-1.6,0.7-1.6h0.1v0.7
				c0,0.5,0,1,0,1.5l0.5,6.8h3l-1.1-12.5h-3.5l-2.7,6.5l-0.6,1.6h-0.1l-0.3-0.7c-0.1-0.3-0.3-0.7-0.4-1l-2.6-6.5h-3.5L158.4,127.7z
				 M146.8,121.4c0-2.8,1.5-3.9,3.1-3.9c1.8,0,3.1,1.6,3.1,3.9c0,2.5-1.4,3.9-3.1,3.9C147.8,125.3,146.8,123.4,146.8,121.4z
				 M143.7,132.6h3.1v-5.3V127c0-0.5-0.1-0.9-0.1-0.9h0.1c0.9,1.1,2.2,1.8,3.6,1.8c3.3,0,5.7-2.6,5.7-6.6c0-3.9-2.2-6.6-5.6-6.6
				c-1.7,0-3.2,0.8-4,2.1h-0.1v-0.3c0-0.1,0-0.3,0-0.5v-1h-2.8V132.6z M132.4,119.8c0.3-1.6,1.4-2.6,3-2.6c1.4,0,2.5,1,2.5,2.6
				H132.4z M129.1,121.4c0,3.5,2.6,6.6,6.8,6.6c1.8,0,3.7-0.7,5-1.8l-1.2-2.2c-1,0.8-2.3,1.4-3.6,1.4c-1.9,0-3.5-1.1-3.7-3.3h8.7
				c0.1-0.4,0.1-0.8,0.1-1.2c0-3.3-2-6-5.6-6C131.7,114.8,129.1,117.5,129.1,121.4z M121.1,127.7h3.1V113h5.7v-2.8h-14.6v2.8h5.7
				L121.1,127.7L121.1,127.7z"/>
		</defs>
		<clipPath id="SVGID_2_">
			<use xlink:href="#SVGID_1_"  style="overflow:visible;"/>
		</clipPath>
		<rect x="112.1" y="106.9" class="st1" width="122.2" height="29"/>
	</g>
</g>
</svg>
