<?xml version="1.0" encoding="utf-8"?>
<!-- Generator: Adobe Illustrator 19.2.0, SVG Export Plug-In . SVG Version: 6.00 Build 0)  -->
<svg version="1.1" id="Layer_1" xmlns="http://www.w3.org/2000/svg" xmlns:xlink="http://www.w3.org/1999/xlink" x="0px" y="0px"
	 viewBox="0 0 181 183" style="enable-background:new 0 0 181 183;" xml:space="preserve">
<style type="text/css">
	.st0{fill:#C6C6C6;}
	.st1{fill:#63B5F6;}
	.st2{opacity:0.1;fill:#1D1D1B;}
</style>
<g>
	<g>
		<rect x="67.8" y="78.7" class="st0" width="21.2" height="4"/>
		<rect x="67.8" y="138.5" class="st0" width="21.2" height="4"/>
		<path class="st1" d="M86.8,138.5c-5.6,0-11.2,0-16.8,0c-2-18.6-2-37.3,0-55.8c5.6,0,11.2,0,16.8,0
			C88.9,101.2,88.9,119.9,86.8,138.5z"/>
	</g>
	<g>
		<rect x="102.2" y="78.7" class="st0" width="21.2" height="4"/>
		<rect x="102.2" y="138.5" class="st0" width="21.2" height="4"/>
		<path class="st1" d="M121.2,138.5c-5.6,0-11.2,0-16.8,0c-2-18.6-2-37.3,0-55.8c5.6,0,11.2,0,16.8,0
			C123.3,101.2,123.3,119.9,121.2,138.5z"/>
	</g>
	<g>
		<rect x="136.6" y="78.7" class="st0" width="21.2" height="4"/>
		<rect x="136.6" y="138.5" class="st0" width="21.2" height="4"/>
		<path class="st1" d="M138.8,138.5c5.6,0,11.2,0,16.8,0c2-18.6,2-37.3,0-55.8c-5.6,0-11.2,0-16.8,0
			C136.8,101.2,136.8,119.9,138.8,138.5z"/>
	</g>
	<g>
		<rect x="56.8" y="142.5" class="st1" width="112.1" height="5.8"/>
		<rect x="53.5" y="148.3" class="st1" width="118.6" height="5.8"/>
		<rect x="49.8" y="154.1" class="st1" width="126" height="5.8"/>
		<rect x="56.8" y="145.4" class="st0" width="112.1" height="2.9"/>
		<rect x="53.5" y="151.2" class="st0" width="118.6" height="2.9"/>
		<rect x="49.8" y="157" class="st0" width="126" height="2.9"/>
	</g>
	<rect x="62.6" y="71.5" class="st1" width="100.4" height="7.2"/>
	<rect x="57.6" y="64.5" class="st0" width="110.5" height="7"/>
	<g>
		<g>
			<polygon class="st0" points="57.6,64.5 112.8,31.2 168.1,64.5 			"/>
			<path class="st0" d="M112.8,38.7L145,58.1H80.6L112.8,38.7L112.8,38.7z M112.8,31.2L57.6,64.5h110.5L112.8,31.2L112.8,31.2z"/>
		</g>
		<g>
			<polygon class="st0" points="57.6,64.5 112.8,31.2 168.1,64.5 			"/>
			<path class="st1" d="M112.8,38.7L145,58.1H80.6L112.8,38.7L112.8,38.7z M112.8,31.2L57.6,64.5h110.5L112.8,31.2L112.8,31.2z"/>
		</g>
	</g>
	<polygon class="st2" points="57.6,64.5 57.6,71.5 62.6,71.5 62.6,78.7 112.8,78.7 112.8,31.2 	"/>
	<path class="st2" d="M78.4,78.7H67.8v4H70c-2,18.6-2,37.3,0,55.8h-2.2v4h10.6V78.7z"/>
	<path class="st2" d="M112.8,78.7h-10.6v4h2.2c-2,18.6-2,37.3,0,55.8h-2.2v4h10.6V78.7z"/>
	<path class="st2" d="M147.2,78.7h-10.6v4h2.2c-2,18.6-2,37.3,0,55.8h-2.2v4h10.6V78.7z"/>
	<polygon class="st2" points="112.8,142.5 56.8,142.5 56.8,145.4 56.8,148.3 53.5,148.3 53.5,151.2 53.5,154.1 49.8,154.1 49.8,157 
		49.8,159.9 112.8,159.9 	"/>
</g>
<g>
	<polygon class="st1" points="38.9,103.1 38.9,89.7 50.5,96.4 62.1,103.1 50.5,109.8 38.9,116.5 	"/>
	<rect x="5.3" y="99" class="st1" width="29.6" height="9.6"/>
</g>
</svg>
