<svg xmlns="http://www.w3.org/2000/svg" xmlns:xlink="http://www.w3.org/1999/xlink" width="28" height="27" viewBox="0 0 28.4286 27.574499" fill="#ffffff">
<path d="M 16.027344 12.355469 L 15.425781 12.355469 L 15.425781 12.6875 L 3.695312 19.269531 L 4.542969 20.789062 L 15.425781 14.683594 L 15.425781 25.398438 L 4.828125 25.398438 L 4.828125 27.574219 L 27.671875 27.574219 L 27.671875 25.398438 L 17.078125 25.398438 L 17.078125 13.757812 L 28.429688 7.175781 L 27.582031 5.660156 Z M 16.027344 12.355469 "/>
<path d="M 25.355469 3.1875 C 25.355469 4.949219 23.925781 6.375 22.167969 6.375 C 20.40625 6.375 18.980469 4.949219 18.980469 3.1875 C 18.980469 1.425781 20.40625 0 22.167969 0 C 23.925781 0 25.355469 1.425781 25.355469 3.1875 "/>
<path d="M 9.292969 11.167969 C 9.292969 13.734375 7.210938 15.8125 4.644531 15.8125 C 2.078125 15.8125 0 13.734375 0 11.167969 C 0 8.601562 2.078125 6.519531 4.644531 6.519531 C 7.210938 6.519531 9.292969 8.601562 9.292969 11.167969 "/>
</svg>