<svg xmlns="http://www.w3.org/2000/svg" xmlns:xlink="http://www.w3.org/1999/xlink" width="26" height="21" viewBox="0 0 66.3799 55.3164" fill="#bcbaba">
<path d="M 63.617188 44.25 L 2.765625 44.25 C 2.015625 44.25 1.367188 44.523438 0.824219 45.074219 C 0.273438 45.621094 0 46.269531 0 47.019531 L 0 52.550781 C 0 53.300781 0.273438 53.945312 0.824219 54.496094 C 1.371094 55.042969 2.015625 55.316406 2.765625 55.316406 L 63.617188 55.316406 C 64.363281 55.316406 65.011719 55.042969 65.558594 54.496094 C 66.105469 53.945312 66.378906 53.300781 66.378906 52.550781 L 66.378906 47.019531 C 66.378906 46.269531 66.109375 45.621094 65.558594 45.074219 C 65.011719 44.523438 64.363281 44.25 63.617188 44.25 "/>
<path d="M 65.558594 0.820312 C 65.011719 0.273438 64.363281 0 63.617188 0 L 2.765625 0 C 2.015625 0 1.367188 0.273438 0.824219 0.820312 C 0.273438 1.371094 0 2.015625 0 2.761719 L 0 8.296875 C 0 9.046875 0.273438 9.691406 0.824219 10.242188 C 1.371094 10.789062 2.015625 11.0625 2.765625 11.0625 L 63.617188 11.0625 C 64.363281 11.0625 65.011719 10.789062 65.558594 10.242188 C 66.109375 9.691406 66.378906 9.046875 66.378906 8.296875 L 66.378906 2.761719 C 66.378906 2.015625 66.109375 1.371094 65.558594 0.820312 "/>
<path d="M 63.617188 22.125 L 2.765625 22.125 C 2.015625 22.125 1.367188 22.398438 0.824219 22.945312 C 0.273438 23.492188 0 24.144531 0 24.890625 L 0 30.425781 C 0 31.171875 0.273438 31.820312 0.824219 32.367188 C 1.371094 32.914062 2.015625 33.1875 2.765625 33.1875 L 63.617188 33.1875 C 64.363281 33.1875 65.011719 32.914062 65.558594 32.367188 C 66.105469 31.820312 66.378906 31.171875 66.378906 30.425781 L 66.378906 24.890625 C 66.378906 24.144531 66.105469 23.492188 65.558594 22.945312 C 65.011719 22.398438 64.363281 22.125 63.617188 22.125 "/>
</svg>
