<svg xmlns="http://www.w3.org/2000/svg" xmlns:xlink="http://www.w3.org/1999/xlink" width="25" height="22" viewBox="0 0 206.765015 191.334" fill="#bcbaba">
<path d="M 0 0 L 45.945312 0 L 45.945312 44.152344 L 0 44.152344 Z M 0 0 "/>
<path d="M 0 73.582031 L 45.945312 73.582031 L 45.945312 117.734375 L 0 117.734375 Z M 0 73.582031 "/>
<path d="M 0 147.183594 L 45.945312 147.183594 L 45.945312 191.335938 L 0 191.335938 Z M 0 147.183594 "/>
<path d="M 80.402344 147.183594 L 126.347656 147.183594 L 126.347656 191.335938 L 80.402344 191.335938 Z M 80.402344 147.183594 "/>
<path d="M 80.402344 73.582031 L 126.347656 73.582031 L 126.347656 117.734375 L 80.402344 117.734375 Z M 80.402344 73.582031 "/>
<path d="M 80.402344 0 L 126.347656 0 L 126.347656 44.152344 L 80.402344 44.152344 Z M 80.402344 0 "/>
<path d="M 160.816406 147.183594 L 206.765625 147.183594 L 206.765625 191.335938 L 160.816406 191.335938 Z M 160.816406 147.183594 "/>
<path d="M 160.816406 73.582031 L 206.765625 73.582031 L 206.765625 117.734375 L 160.816406 117.734375 Z M 160.816406 73.582031 "/>
<path d="M 160.816406 0 L 206.765625 0 L 206.765625 44.152344 L 160.816406 44.152344 Z M 160.816406 0 "/>
</svg>
