<svg xmlns="http://www.w3.org/2000/svg" xmlns:xlink="http://www.w3.org/1999/xlink" width="24" height="24" viewBox="0 0 54.6771 54.6753" fill="#bcbaba">
<path d="M 53.175781 45.925781 L 40.632812 33.378906 C 38.761719 36.289062 36.289062 38.761719 33.382812 40.628906 L 45.925781 53.171875 C 47.929688 55.175781 51.175781 55.175781 53.175781 53.171875 C 55.175781 51.175781 55.175781 47.929688 53.175781 45.925781 "/>
<path d="M 20.503906 35.882812 C 12.023438 35.882812 5.125 28.984375 5.125 20.503906 C 5.125 12.023438 12.023438 5.125 20.503906 5.125 C 28.984375 5.125 35.882812 12.023438 35.882812 20.503906 C 35.882812 28.984375 28.984375 35.882812 20.503906 35.882812 M 41.007812 20.503906 C 41.007812 9.183594 31.828125 0 20.503906 0 C 9.179688 0 0 9.183594 0 20.503906 C 0 31.824219 9.179688 41.007812 20.503906 41.007812 C 31.828125 41.007812 41.007812 31.824219 41.007812 20.503906 "/>
</svg>
