<?xml version="1.0" encoding="utf-8"?>
<!-- Generator: Adobe Illustrator 19.2.0, SVG Export Plug-In . SVG Version: 6.00 Build 0)  -->
<svg version="1.1" id="Layer_1" xmlns="http://www.w3.org/2000/svg" xmlns:xlink="http://www.w3.org/1999/xlink" x="0px" y="0px"
	 viewBox="0 0 207 152" style="enable-background:new 0 0 207 152;" xml:space="preserve">
<style type="text/css">
	.st0{fill:#64B5F6;}
	.st1{fill:#37474F;}
	.st2{fill:#E3F2FD;}
</style>
<g id="surface1" transform="matrix(4.17 0 0 4.17 200 200)">
	<path class="st0" d="M-1.5-18.5c0,2.2-1.8,4-4,4h-34c-2.2,0-4-1.8-4-4v-22c0-2.2,1.8-4,4-4h34c2.2,0,4,1.8,4,4V-18.5z"/>
</g>
<g id="surface1_1_" transform="matrix(4.17 0 0 4.17 200 170.83)">
	<path class="st1" d="M-43.5-32.5h42v6h-42V-32.5z"/>
</g>
<g id="surface1_2_" transform="matrix(4.17 0 0 4.17 200 202.08)">
	<path class="st2" d="M-41.5-32h38v5h-38V-32z"/>
</g>
</svg>
