<?xml version="1.0" encoding="utf-8"?>
<!-- Generator: Adobe Illustrator 19.2.0, SVG Export Plug-In . SVG Version: 6.00 Build 0)  -->
<svg version="1.1" id="Layer_1" xmlns="http://www.w3.org/2000/svg" xmlns:xlink="http://www.w3.org/1999/xlink" x="0px" y="0px"
	 viewBox="0 0 207 152" style="enable-background:new 0 0 207 152;" xml:space="preserve">
<style type="text/css">
	.st0{fill:#4AC3AF;}
	.st1{fill:#8CE3D4;}
	.st2{fill:#0D9681;}
	.st3{fill:#C2F8F0;}
	.st4{fill:#17B198;}
	.st5{fill:#FFFFFF;}
</style>
<g id="Multicolor_1_" transform="matrix(1.82 0 0 1.82 200 241.79)">
	<rect x="-101.8" y="-88.5" class="st0" width="98.6" height="27.7"/>
</g>
<g id="Multicolor_2_" transform="matrix(1.82 0 0 1.82 200 210.88)">
	<polygon class="st1" points="-101.8,-71.5 -89.5,-96.2 -15.5,-96.2 -3.2,-71.5 	"/>
</g>
<g id="Multicolor_3_" transform="matrix(1.82 0 0 1.82 200 210.88)">
	<polygon class="st2" points="-94.1,-74.6 -84.8,-93.1 -20.1,-93.1 -10.9,-74.6 	"/>
</g>
<g id="Multicolor_4_" transform="matrix(1.82 0 0 1.82 229.09 210.88)">
	<circle class="st3" cx="-43.8" cy="-83.8" r="1.5"/>
</g>
<g id="Multicolor_5_" transform="matrix(1.82 0 0 1.82 170.91 210.88)">
	<circle class="st3" cx="-61.1" cy="-83.8" r="1.5"/>
</g>
<g id="Multicolor_7_" transform="matrix(1.82 0 0 1.82 199.77 210.72)">
	<path class="st4" d="M-53.1-85.2v-1.6c-0.7,0.1-1,0.4-1,0.8C-54.1-85.7-53.9-85.5-53.1-85.2z M-51.7-83.1v1.7c0.7-0.1,1-0.3,1-0.8
		C-50.7-82.6-50.9-82.9-51.7-83.1z"/>
</g>
<g id="Multicolor_8_" transform="matrix(1.82 0 0 1.82 200 230.88)">
	<rect x="-101.8" y="-79.4" class="st3" width="98.6" height="3.1"/>
</g>
<g id="Multicolor_9_" transform="matrix(1.82 0 0 1.82 200 238.15)">
	<rect x="-101.8" y="-77.3" class="st3" width="98.6" height="3.1"/>
</g>
<g id="Multicolor_10_" transform="matrix(1.82 0 0 1.82 200 245.42)">
	<rect x="-101.8" y="-75.1" class="st3" width="98.6" height="3.1"/>
</g>
<g id="Multicolor_11_" transform="matrix(1.82 0 0 1.82 200 252.69)">
	<rect x="-101.8" y="-73" class="st3" width="98.6" height="3.1"/>
</g>
<g id="Multicolor_12_" transform="matrix(1.82 0 0 1.82 163.21 227.24)">
	<polygon class="st1" points="-81.5,-77.4 -48.4,-77.4 -45.3,-80.5 -81.5,-80.5 	"/>
</g>
<g id="Multicolor_13_" transform="matrix(1.82 0 0 1.82 159.57 234.51)">
	<polygon class="st1" points="-79.5,-75.3 -52.5,-75.3 -49.4,-78.4 -79.5,-78.4 	"/>
</g>
<g id="Multicolor_14_" transform="matrix(1.82 0 0 1.82 148.66 256.33)">
	<polygon class="st1" points="-73.5,-71.9 -73.5,-68.8 -65,-68.8 -61.9,-71.9 	"/>
</g>
<g id="Multicolor_15_" transform="matrix(1.82 0 0 1.82 155.93 241.79)">
	<polygon class="st1" points="-77.5,-73.1 -56.7,-73.1 -53.6,-76.2 -77.5,-76.2 	"/>
</g>
<g id="Multicolor_16_" transform="matrix(1.82 0 0 1.82 152.3 249.06)">
	<polygon class="st1" points="-75.5,-71 -60.9,-71 -57.8,-74 -75.5,-74 	"/>
</g>
<g id="Multicolor_17_" transform="matrix(1.82 0 0 1.82 177.75 210.88)">
	<polygon class="st3" points="-89.5,-71.5 -53.3,-71.5 -50.2,-74.6 -81.8,-74.6 -72.6,-93.1 -31.7,-93.1 -28.6,-96.2 -77.2,-96.2 	
		"/>
</g>
<g id="Multicolor_18_" transform="matrix(1.82 0 0 1.82 180.48 210.88)">
	<path class="st4" d="M-51-83.8c0-4.3,4.1-7.7,9.2-7.7c2.1,0,3.9,0.6,5.5,1.5l3-3h-40.9l-9.2,18.5h31.6l3.6-3.6
		C-49.8-79.6-51-81.6-51-83.8z M-66.4-82.3c-0.9,0-1.5-0.7-1.5-1.5s0.7-1.5,1.5-1.5s1.5,0.7,1.5,1.5S-65.5-82.3-66.4-82.3z"/>
</g>
<g id="Multicolor_19_" transform="matrix(1.82 0 0 1.82 170.91 210.88)">
	<circle class="st5" cx="-61.1" cy="-83.8" r="1.5"/>
</g>
<g id="Multicolor_21_" transform="matrix(1.82 0 0 1.82 201.45 208.33)">
	<path class="st5" d="M-52.7-85.4v1.6l1.2-1.2c0,0,0,0,0,0C-51.9-85.2-52.3-85.3-52.7-85.4z"/>
</g>
<g id="Multicolor_22_" transform="matrix(1.82 0 0 1.82 198.54 208.2)">
	<path class="st5" d="M-53.4-84.7c0,0.4,0.2,0.6,1,0.9v-1.6C-53.1-85.4-53.4-85.1-53.4-84.7z"/>
</g>
<g id="Multicolor_23_" transform="matrix(1.82 0 0 1.82 161.39 230.88)">
	<polygon class="st5" points="-80.5,-76.4 -50.4,-76.4 -47.4,-79.4 -80.5,-79.4 	"/>
</g>
<g id="Multicolor_24_" transform="matrix(1.82 0 0 1.82 157.75 238.15)">
	<polygon class="st5" points="-78.5,-74.2 -54.6,-74.2 -51.5,-77.3 -78.5,-77.3 	"/>
</g>
<g id="Multicolor_25_" transform="matrix(1.82 0 0 1.82 154.12 245.42)">
	<polygon class="st5" points="-76.5,-72 -58.8,-72 -55.7,-75.1 -76.5,-75.1 	"/>
</g>
<g id="Multicolor_26_" transform="matrix(1.82 0 0 1.82 150.48 252.69)">
	<polygon class="st5" points="-74.5,-69.9 -62.9,-69.9 -59.9,-73 -74.5,-73 	"/>
</g>
</svg>
