<?xml version="1.0" encoding="utf-8"?>
<!-- Generator: Adobe Illustrator 19.2.0, SVG Export Plug-In . SVG Version: 6.00 Build 0)  -->
<svg version="1.1" id="Layer_1" xmlns="http://www.w3.org/2000/svg" xmlns:xlink="http://www.w3.org/1999/xlink" x="0px" y="0px"
	 viewBox="0 0 207 152" style="enable-background:new 0 0 207 152;" xml:space="preserve">
<style type="text/css">
	.st0{fill:#0285AD;}
	.st1{fill:#00A8EA;}
	.st2{fill:#FFFFFF;}
	.st3{fill:#57606D;}
	.st4{fill:#EAB353;}
	.st5{opacity:0.1;fill:#FFFFFF;enable-background:new    ;}
	.st6{opacity:0.1;fill:#231F20;enable-background:new    ;}
</style>
<g id="Layer_1_2_" transform="matrix(3.13 0 0 3.13 200 194.84)">
	<path class="st0" d="M-11.5-40.8v7.9h-2.7v-6.9c0-1-0.8-1.8-1.8-1.8h-28.3v6l-3.4-4.9l0.2-1.1c0.3-1.6,1.7-2.8,3.5-2.8h28.9
		C-13.2-44.4-11.5-42.8-11.5-40.8z"/>
</g>
<g id="Layer_1_3_" transform="matrix(3.13 0 0 3.13 207.19 152.08)">
	<path class="st1" d="M-16.9-33.2L-25-28h-15.1l-0.1-0.1l-1.5-2.3l-1.6-2.4c-0.3-0.4-0.2-1,0.3-1.2l18.1-11.5c0.4-0.3,1-0.2,1.2,0.3
		l1.6,2.4l1.5,2.3l3.9,6.2C-16.4-33.9-16.5-33.4-16.9-33.2z"/>
</g>
<g id="Layer_1_4_" transform="matrix(3.13 0 0 3.13 203.28 157.03)">
	<polyline class="st2" points="-19.2,-42.1 -38.8,-29.7 -40.3,-32 -20.7,-44.4 	"/>
</g>
<g id="Layer_1_5_" transform="matrix(3.13 0 0 3.13 260.16 249.37)">
	<path class="st0" d="M-33.5-44.6h2.7v5.5c0,1-0.8,1.8-1.8,1.8h-0.9V-44.6z"/>
</g>
<g id="Layer_1_6_" transform="matrix(3.13 0 0 3.13 196.09 225.94)">
	<path class="st1" d="M-22.3-42.4c-0.6,0.6-1,1.5-1,2.4c0,1.9,1.6,3.4,3.4,3.4h7.5v7c0,1-0.8,1.8-1.8,1.8h-30.3
		c-1,0-1.8-0.8-1.8-1.8v-20.8c0-1,0.8-1.8,1.8-1.8h30.4c1,0,1.8,0.8,1.8,1.8v7h-7.5C-20.8-43.4-21.7-43-22.3-42.4z"/>
</g>
<g id="Layer_1_7_" transform="matrix(3.13 0 0 3.13 195.94 226.09)">
	<path class="st0" d="M-44.1-30.1v-19.8h29.3v4.2h-5.1c-1.6,0-2.9,0.6-4.1,1.6c-1.1,1.1-1.6,2.5-1.6,4.1c0,3.2,2.6,5.7,5.7,5.7h5.1
		v4.2L-44.1-30.1L-44.1-30.1z"/>
</g>
<g id="Layer_1_8_" transform="matrix(3.13 0 0 3.13 196.25 226.09)">
	<path class="st3" d="M-14.6-28.8h-1.1c-0.1,0-0.1-0.1-0.1-0.1l0.1-0.1h1.1C-14.5-29-14.5-28.9-14.6-28.8
		C-14.5-28.9-14.5-28.8-14.6-28.8z M-16.9-28.8H-18c-0.1,0-0.1-0.1-0.1-0.1s0-0.1,0.1-0.1h1.1C-16.8-29-16.8-28.9-16.9-28.8
		C-16.8-28.9-16.8-28.8-16.9-28.8z M-19.1-28.8h-1.1c-0.1,0-0.1-0.1-0.1-0.1l0.1-0.1h1.1C-19.1-29-19.1-28.9-19.1-28.8L-19.1-28.8z
		 M-21.5-28.8h-1.1c-0.1,0-0.1-0.1-0.1-0.1l0.1-0.1h1.1C-21.4-29-21.4-28.9-21.5-28.8C-21.4-28.9-21.4-28.8-21.5-28.8z M-23.8-28.8
		H-25c-0.1,0-0.1-0.1-0.1-0.1S-25-29-25-29h1.1C-23.7-29-23.7-28.9-23.8-28.8C-23.7-28.9-23.7-28.8-23.8-28.8z M-26.2-28.8h-1.1
		c-0.1,0-0.1-0.1-0.1-0.1l0.1-0.1h1.1C-26.1-29-26.1-28.9-26.2-28.8C-26.1-28.9-26.1-28.8-26.2-28.8z M-28.4-28.8h-1.1
		c-0.1,0-0.1-0.1-0.1-0.1l0.1-0.1h1.1C-28.3-29-28.3-28.9-28.4-28.8L-28.4-28.8z M-30.8-28.8h-1.1c-0.1,0-0.1-0.1-0.1-0.1
		s0-0.1,0.1-0.1h1.1C-30.7-29-30.7-28.9-30.8-28.8C-30.7-28.9-30.7-28.8-30.8-28.8z M-33.1-28.8h-1.1c-0.1,0-0.1-0.1-0.1-0.1
		l0.1-0.1h1.1C-33-29-33-28.9-33.1-28.8C-33-28.9-33-28.8-33.1-28.8z M-35.4-28.8h-1.1c-0.1,0-0.1-0.1-0.1-0.1l0.1-0.1h1.1
		C-35.4-29-35.4-28.9-35.4-28.8C-35.4-28.9-35.4-28.8-35.4-28.8z M-37.7-28.8h-1.1c-0.1,0-0.1-0.1-0.1-0.1l0.1-0.1h1.1
		C-37.6-29-37.6-28.9-37.7-28.8L-37.7-28.8z M-40-28.8h-1.1c-0.1,0-0.1-0.1-0.1-0.1l0.1-0.1h1.1C-40-29-40-28.9-40-28.8
		C-40-28.9-40-28.8-40-28.8z M-42.4-28.8h-1.1c-0.1,0-0.1-0.1-0.1-0.1l0.1-0.1h1.1C-42.3-29-42.3-28.9-42.4-28.8
		C-42.3-28.9-42.3-28.8-42.4-28.8z M-44.7-28.8L-44.7-28.8c-0.4,0-0.8-0.3-0.8-0.8v-0.1c0-0.1,0.1-0.1,0.1-0.1l0.1,0.1v0.1
		c0,0.3,0.3,0.5,0.5,0.5c0.1,0,0.1,0.1,0.1,0.1S-44.6-28.8-44.7-28.8z M-13.7-29.4L-13.7-29.4C-13.8-29.4-13.8-29.4-13.7-29.4
		l-0.1-0.2v-1c0-0.1,0.1-0.1,0.1-0.1l0.1,0.1v1C-13.6-29.4-13.6-29.4-13.7-29.4C-13.6-29.4-13.6-29.4-13.7-29.4z M-45.3-30.7
		C-45.4-30.7-45.4-30.8-45.3-30.7l-0.1-1.2c0-0.1,0.1-0.1,0.1-0.1l0.1,0.1L-45.3-30.7L-45.3-30.7z M-13.6-31.6
		C-13.7-31.6-13.7-31.7-13.6-31.6l-0.1-1.2c0-0.1,0.1-0.1,0.1-0.1l0.1,0.1L-13.6-31.6C-13.5-31.7-13.6-31.6-13.6-31.6z M-45.3-33.1
		C-45.4-33.1-45.4-33.2-45.3-33.1l-0.1-1.2c0-0.1,0.1-0.1,0.1-0.1l0.1,0.1L-45.3-33.1C-45.2-33.1-45.3-33.1-45.3-33.1z M-13.6-34
		C-13.7-34-13.7-34-13.6-34l-0.1-1.2c0-0.1,0.1-0.1,0.1-0.1l0.1,0.1L-13.6-34C-13.5-34-13.6-34-13.6-34z M-45.3-35.3
		C-45.4-35.3-45.4-35.4-45.3-35.3l-0.1-1.2c0-0.1,0.1-0.1,0.1-0.1l0.1,0.1L-45.3-35.3C-45.2-35.4-45.3-35.3-45.3-35.3z M-13.6-36.3
		C-13.7-36.3-13.7-36.4-13.6-36.3l-0.1-1.2c0-0.1,0.1-0.1,0.1-0.1l0.1,0.1L-13.6-36.3C-13.5-36.3-13.6-36.3-13.6-36.3z M-45.3-37.7
		C-45.4-37.7-45.4-37.8-45.3-37.7l-0.1-1.2c0-0.1,0.1-0.1,0.1-0.1l0.1,0.1L-45.3-37.7L-45.3-37.7z M-13.6-38.6
		C-13.7-38.6-13.7-38.7-13.6-38.6l-0.1-1.2c0-0.1,0.1-0.1,0.1-0.1l0.1,0.1L-13.6-38.6C-13.5-38.6-13.6-38.6-13.6-38.6z M-45.3-40
		C-45.4-40-45.4-40.1-45.3-40l-0.1-1.2c0-0.1,0.1-0.1,0.1-0.1l0.1,0.1L-45.3-40C-45.2-40-45.3-40-45.3-40z M-13.6-40.9
		C-13.7-40.9-13.7-41-13.6-40.9l-0.1-1.2c0-0.1,0.1-0.1,0.1-0.1l0.1,0.1L-13.6-40.9C-13.5-41-13.6-40.9-13.6-40.9z M-45.3-42.4
		C-45.4-42.4-45.4-42.5-45.3-42.4l-0.1-1.2c0-0.1,0.1-0.1,0.1-0.1l0.1,0.1L-45.3-42.4C-45.2-42.4-45.3-42.4-45.3-42.4z M-13.6-43.2
		C-13.7-43.2-13.7-43.3-13.6-43.2l-0.1-1.2c0-0.1,0.1-0.1,0.1-0.1l0.1,0.1L-13.6-43.2C-13.5-43.3-13.6-43.2-13.6-43.2z M-45.3-44.6
		C-45.4-44.6-45.4-44.7-45.3-44.6l-0.1-1.2c0-0.1,0.1-0.1,0.1-0.1l0.1,0.1L-45.3-44.6L-45.3-44.6z M-13.6-45.6
		C-13.7-45.6-13.7-45.7-13.6-45.6l-0.1-1.2c0-0.1,0.1-0.1,0.1-0.1l0.1,0.1L-13.6-45.6C-13.5-45.6-13.6-45.6-13.6-45.6z M-45.3-47
		C-45.4-47-45.4-47-45.3-47l-0.1-1.2c0-0.1,0.1-0.1,0.1-0.1l0.1,0.1L-45.3-47L-45.3-47z M-13.6-47.9C-13.7-47.9-13.7-48-13.6-47.9
		l-0.1-1.2c0-0.1,0.1-0.1,0.1-0.1l0.1,0.1L-13.6-47.9C-13.5-47.9-13.6-47.9-13.6-47.9z M-45.3-49.3C-45.4-49.3-45.4-49.4-45.3-49.3
		l-0.1-1.1c0-0.1,0-0.1,0-0.2s0.1-0.1,0.1-0.1c0.1,0,0.1,0.1,0.1,0.1v0.1v1C-45.2-49.3-45.3-49.3-45.3-49.3z M-13.6-50.2
		C-13.7-50.2-13.7-50.3-13.6-50.2l-0.1-0.2c0-0.3-0.3-0.5-0.5-0.5c-0.1,0-0.1-0.1-0.1-0.1l0.1-0.1l0,0c0.4,0,0.8,0.3,0.8,0.8v0.1
		C-13.5-50.3-13.6-50.2-13.6-50.2z M-15.4-50.9h-1.1c-0.1,0-0.1-0.1-0.1-0.1l0.1-0.1h1.1C-15.3-51.1-15.3-51-15.4-50.9L-15.4-50.9z
		 M-17.8-50.9h-1.1C-19-50.9-19-51-19-51l0.1-0.1h1.1C-17.7-51.1-17.7-51-17.8-50.9L-17.8-50.9z M-20.1-50.9h-1.1
		c-0.1,0-0.1-0.1-0.1-0.1l0.1-0.1h1.1C-20-51.1-20-51-20.1-50.9C-20-51-20-50.9-20.1-50.9z M-22.4-50.9h-1.1c-0.1,0-0.1-0.1-0.1-0.1
		l0.1-0.1h1.1C-22.4-51.1-22.4-51-22.4-50.9C-22.4-51-22.4-50.9-22.4-50.9z M-24.7-50.9h-1.1c-0.1,0-0.1-0.1-0.1-0.1l0.1-0.1h1.1
		C-24.6-51.1-24.6-51-24.7-50.9L-24.7-50.9z M-27-50.9h-1.1c-0.1,0-0.1-0.1-0.1-0.1l0.1-0.1h1.1C-26.9-51.1-26.9-51-27-50.9
		L-27-50.9z M-29.4-50.9h-1.1c-0.1,0-0.1-0.1-0.1-0.1l0.1-0.1h1.1C-29.3-51.1-29.3-51-29.4-50.9C-29.3-51-29.3-50.9-29.4-50.9z
		 M-31.7-50.9h-1.1c-0.1,0-0.1-0.1-0.1-0.1l0.1-0.1h1.1C-31.6-51.1-31.6-51-31.7-50.9C-31.6-51-31.6-50.9-31.7-50.9z M-34-50.9h-1.1
		c-0.1,0-0.1-0.1-0.1-0.1l0.1-0.1h1.1C-33.9-51.1-33.9-51-34-50.9L-34-50.9z M-36.3-50.9h-1.1c-0.1,0-0.1-0.1-0.1-0.1l0.1-0.1h1.1
		C-36.2-51.1-36.2-51-36.3-50.9L-36.3-50.9z M-38.7-50.9h-1.1c-0.1,0-0.1-0.1-0.1-0.1l0.1-0.1h1.1C-38.6-51.1-38.6-51-38.7-50.9
		C-38.6-51-38.6-50.9-38.7-50.9z M-41-50.9h-1.1c-0.1,0-0.1-0.1-0.1-0.1l0.1-0.1h1.1C-40.9-51.1-40.9-51-41-50.9
		C-40.9-51-40.9-50.9-41-50.9z M-43.2-50.9h-1.1c-0.1,0-0.1-0.1-0.1-0.1l0.1-0.1h1.1C-43.2-51.1-43.2-51-43.2-50.9L-43.2-50.9z"/>
</g>
<g id="Layer_1_9_" transform="matrix(3.13 0 0 3.13 240.78 226.25)">
	<path class="st4" d="M-24.6-36.6h-10.2c-1.9,0-3.4-1.6-3.4-3.4l0,0c0-1.9,1.6-3.4,3.4-3.4h10.2L-24.6-36.6L-24.6-36.6z"/>
</g>
<g id="Layer_1_10_" transform="matrix(3.13 0 0 3.13 233.91 226.09)">
	<path class="st5" d="M-26.2-42.3c0-0.3,0-0.8-0.1-1.1h-6.3c-1.9,0-3.4,1.6-3.4,3.4l0,0c0,1.1,0.5,2.1,1.4,2.8
		c0.8,0.4,1.7,0.7,2.7,0.7C-28.8-36.6-26.2-39.2-26.2-42.3z"/>
</g>
<g id="Layer_1_11_" transform="matrix(3.13 0 0 3.13 230.94 225.94)">
	<circle class="st2" cx="-30.9" cy="-40" r="1.9"/>
</g>
<g id="Layer_1_12_" transform="matrix(3.13 0 0 3.13 231.72 226.25)">
	<path class="st6" d="M-30.2-41.7c0.2,0.3,0.3,0.7,0.3,1c0,1-0.9,1.9-1.9,1.9c-0.3,0-0.8-0.1-1-0.3c0.3,0.5,1,0.9,1.6,0.9
		c1,0,1.9-0.9,1.9-1.9C-29.3-40.8-29.6-41.4-30.2-41.7z"/>
</g>
</svg>
