<?xml version="1.0" encoding="utf-8"?>
<!-- Generator: Adobe Illustrator 19.2.0, SVG Export Plug-In . SVG Version: 6.00 Build 0)  -->
<svg version="1.1" id="Layer_1" xmlns="http://www.w3.org/2000/svg" xmlns:xlink="http://www.w3.org/1999/xlink" x="0px" y="0px"
	 viewBox="0 0 2500 318" style="enable-background:new 0 0 2500 318;" xml:space="preserve">
<style type="text/css">
	.st0{fill:#2056AE;}
</style>
<path class="st0" d="M1017,162.2h57.5l18.1-89L1017,162.2z M1097.7,12.4h52.4l-40.3,233H1056l8.9-43.6h-79.7l-37.1,43.6h-55.7
	L1097.7,12.4z M1160,165.3h50.7c-2.1,3.4-3.8,7.1-5.1,10.9c-3.1,9.3-2,17.1,3.1,23.3c5.1,6.2,16,9.4,32.7,9.4
	c17.7,0,31.7-3.9,42-11.6c10.2-7.7,16.9-16.4,20.1-26.1c5.1-15.7-3.3-23.5-25.1-23.5h-31.1l22.5-42.7h25.8c15.3,0,26.8-3.1,34.4-9.4
	c7.6-6.3,12.6-13.2,15.1-20.8c2.7-8.3,1.6-14.7-3.4-18.9c-5-4.3-13.4-6.5-25.3-6.5c-12.5,0-23.8,2.9-33.9,8.7
	c-10.1,5.8-19.1,15.8-27.1,29.9h-52.4c11.1-20,23.8-36,38.2-48c14.4-12.1,29.9-20.6,46.6-25.7c16.7-5.1,34.7-7.6,54.1-7.6
	c28.9,0,48.2,5.2,58,15.7c9.8,10.4,11.8,24.4,6.1,41.8c-3.5,10.8-9.1,20.7-16.6,29.3c-7.5,8.5-15.8,15.4-25.2,20.7
	c-8.8,5.1-18.3,8.7-28.3,10.6l-0.2,0.6c23.5,6.3,31.2,22,23,47.1c-2.8,8.5-7.2,17.1-13.3,26c-6.1,8.9-14.5,17.3-25.1,25.4
	c-10.6,8-24.1,14.6-40.4,19.7c-16.3,5.1-35.1,7.7-56.5,7.7c-15.3,0-29.4-1.2-41.9-3.6c-12.6-2.4-22.5-7.6-29.6-15.8
	c-7.2-8.1-8.3-19.8-3.2-35.2C1153.5,181.9,1157.3,171.4,1160,165.3L1160,165.3z M1510,57.6l-99,187.7h-51.8l123-233h186.6
	l-123.1,233H1494l99-187.7L1510,57.6z M1717.4,206.7c12.6,0,24.5-3.1,35.7-9.3c11.3-6.3,21.4-14.4,30-24.1
	c8.7-9.7,16.3-20.3,22.5-31.7c6.2-11.2,10.9-21.8,14.3-32c12.8-39.1,3.7-58.7-27.3-58.7c-12.5,0-24.4,3.1-35.5,9.3
	c-11.3,6.3-21.4,14.5-29.9,24.2c-8.6,9.7-16.1,20.3-22.5,31.7c-5.7,10.2-10.5,20.8-14.2,31.9c-5.7,17.4-6.7,31.5-3,42.4
	C1691.1,201.2,1701.1,206.7,1717.4,206.7L1717.4,206.7z M1698.5,251.9c-26.2,0-44.9-5.2-56.2-15.7c-11.3-10.4-17-22.8-17.4-37.1
	c-0.3-14.3,1.9-28.7,6.7-43.3c5.3-16.1,13.3-32.9,24-50.2c11.1-17.8,24.4-34.2,39.5-48.8c15.7-15.2,33.8-27.7,53.6-36.9
	c20.2-9.5,42.3-14.3,64.6-14.2c9,0,17.9,0.9,26.7,2.7c9.7,2,18.9,6.1,26.9,12c8.6,6.2,14.4,15.9,17.5,29.3c3.1,13.3,1.1,30.7-6,52.2
	c-5.3,16.2-13.2,32.9-23.8,50.2c-10.9,17.8-24.1,34.2-39,48.7c-15.5,15.2-33.5,27.7-53.2,36.9C1742.5,247.1,1720.6,252,1698.5,251.9
	L1698.5,251.9z M1954.3,12.4h51.9l-30,56.2c-2.8,5.6-5.3,11.4-7.4,17.3c-2.1,6.5-2,11.4,0.6,14.7c2.5,3.2,6.1,5.3,10.9,6.1
	c4.7,0.8,10.5,1.2,17.5,1.2c11.2,0,22.5-0.8,34-2.5l49.1-92.9h51.8l-123,233h-51.8l50.2-94.8c-14.9,1.7-30.6,2.5-47.3,2.5
	c-12.1,0-22.6-1.1-31.5-3.3c-8.5-1.9-15.7-7.5-19.8-15.2c-4.2-7.9-3.9-19.4,1.1-34.5c2.5-7.6,6.2-16.1,11-25.4L1954.3,12.4
	L1954.3,12.4z M2202.5,57.6h-66.4l23.7-45.2h184.5l-23.7,45.2h-66.4l-99,187.7h-51.8L2202.5,57.6L2202.5,57.6z M2347,162.2h57.5
	l18.1-89L2347,162.2L2347,162.2z M2427.7,12.4h52.4l-40.3,233h-53.9l8.9-43.6h-79.7l-37,43.6h-55.7L2427.7,12.4z M796.5,111.6
	l122.2-99.2h62.7L838.9,124.1l21,98.9h37.5l-42.9,82.3h-51.8l32-60h-30.5l-17.7-115.2h-0.9l-59.9,115.2H674l123-233h51.8l-53.2,99.2
	H796.5L796.5,111.6z M738.4,12.6H13.8l446.6,271.9H586l9.4-15.2l82.2-147.4H491.3l63.4,50.5h-78.4L358,96.3h333.8L738.4,12.6"/>
</svg>
