<?xml version="1.0" encoding="utf-8"?>
<!-- Generator: Adobe Illustrator 19.2.0, SVG Export Plug-In . SVG Version: 6.00 Build 0)  -->
<svg version="1.1" id="Layer_1" xmlns="http://www.w3.org/2000/svg" xmlns:xlink="http://www.w3.org/1999/xlink" x="0px" y="0px"
	 viewBox="0 0 188 205" style="enable-background:new 0 0 188 205;" xml:space="preserve">
<style type="text/css">
	.st0{fill:#03A9F4;}
</style>
<g id="mail-envelope-open" transform="matrix(8 0 0 8 200 200)">
	<path class="st0" d="M-9.3-10.1l-1.5,1.3l0,0l4.1,3.5l0,0l-0.6,0.6l-4.1-3.6l-3.6,0l0,0l-4.1,3.6l-0.6-0.6l0,0l4.1-3.5l-1.5-1.3
		l-2.6-2.2v-3.8l-2.1,1.8v9.7c0,0.8,0.6,1.4,1.4,1.4H-6c0.8,0,1.4-0.6,1.4-1.4v-9.7l0,0l-2.1-1.8v3.8L-9.3-10.1L-9.3-10.1L-9.3-10.1
		z M-15.6-19.8l2.4-2.1l2.4,2.1H-15.6L-15.6-19.8L-15.6-19.8z M-18.4-19.2c-0.4,0-0.7,0.3-0.7,0.7v5.7l4.3,3.7h3.1l4.4-3.7v-5.7
		c0-0.4-0.3-0.7-0.7-0.7H-18.4L-18.4-19.2z"/>
</g>
</svg>
