<?xml version="1.0" encoding="utf-8"?>
<!-- Generator: Adobe Illustrator 19.2.0, SVG Export Plug-In . SVG Version: 6.00 Build 0)  -->
<svg version="1.1" id="Layer_1" xmlns="http://www.w3.org/2000/svg" xmlns:xlink="http://www.w3.org/1999/xlink" x="0px" y="0px"
	 viewBox="0 0 188 205" style="enable-background:new 0 0 188 205;" xml:space="preserve">
<style type="text/css">
	.st0{fill:#03A9F4;}
	.st1{fill:#BBDEFB;}
	.st2{fill:#78909C;}
</style>
<g>
	<g id="surface1_4_" transform="matrix(4.17 0 0 4.17 200 200)">
		<path class="st0" d="M-37.9-7.5v-32c0-2.2,1.8-4,4-4h16c2.2,0,4,1.8,4,4v32c0,2.2-1.8,4-4,4h-16C-36.1-3.5-37.9-5.3-37.9-7.5z"/>
	</g>
	<g id="surface1_3_" transform="matrix(4.17 0 0 4.17 200 193.75)">
		<path class="st1" d="M-17.9-39h-16c-0.6,0-1,0.4-1,1v29c0,0.6,0.4,1,1,1h16c0.6,0,1-0.4,1-1v-29C-16.9-38.6-17.3-39-17.9-39z"/>
	</g>
	<g id="surface1_2_" transform="matrix(4.17 0 0 4.17 200 270.83)">
		<path class="st2" d="M-28.9-24.5h6v2h-6V-24.5z"/>
	</g>
</g>
</svg>
