<svg id="Layer_1" data-name="Layer 1" xmlns="http://www.w3.org/2000/svg" viewBox="0 0 43.58 43.58"><defs><style>.cls-1{fill:#2893ea;}.cls-2{fill:#ccc;}</style></defs><g id="Layer_1-2" data-name="Layer 1"><path class="cls-1" d="M28,5.23a21.72,21.72,0,0,0-14.39,5.46l7.74,7.75a10.69,10.69,0,0,1,13.3,0l7.74-7.74A21.68,21.68,0,0,0,28,5.23Z" transform="translate(-6.21 -5.23)"/></g><g id="Layer_1-3" data-name="Layer 1"><path class="cls-2" d="M21.35,35.61l-7.74,7.74a21.69,21.69,0,0,0,28.78,0l-7.74-7.74a10.69,10.69,0,0,1-13.3,0Z" transform="translate(-6.21 -5.23)"/></g><g id="Layer_1-4" data-name="Layer 1"><path class="cls-2" d="M36.58,20.38a10.68,10.68,0,0,1,0,13.29l7.75,7.74a21.69,21.69,0,0,0,0-28.78Z" transform="translate(-6.21 -5.23)"/></g><g id="Layer_1-5" data-name="Layer 1"><path class="cls-2" d="M19.42,33.67a10.68,10.68,0,0,1,0-13.29l-7.75-7.75a21.69,21.69,0,0,0,0,28.78Z" transform="translate(-6.21 -5.23)"/></g></svg>