<?xml version="1.0" encoding="utf-8"?>
<!-- Generator: Adobe Illustrator 19.2.0, SVG Export Plug-In . SVG Version: 6.00 Build 0)  -->
<svg version="1.1" id="Layer_1" xmlns="http://www.w3.org/2000/svg" xmlns:xlink="http://www.w3.org/1999/xlink" x="0px" y="0px"
	 viewBox="0 0 58.1 55.4" style="enable-background:new 0 0 58.1 55.4;" xml:space="preserve">
<style type="text/css">
	.st0{fill-rule:evenodd;clip-rule:evenodd;fill:#727270;}
	.st1{fill-rule:evenodd;clip-rule:evenodd;fill:#FEFEFE;}
	.st2{fill-rule:evenodd;clip-rule:evenodd;fill:#67CDFD;}
</style>
<g>
	<path class="st0" d="M30.9,6.8L30.9,6.8c1.1,0,2,0.4,2.7,1.1c0.6,0.7,1,1.5,1.1,2.5h1v1.9H47v39.3H14.8V12.4h11.3v-1.9h1
		c0-1,0.4-1.9,1.1-2.5C28.9,7.2,29.8,6.8,30.9,6.8L30.9,6.8z"/>
	<path class="st0" d="M27.5,10.5L27.5,10.5h6.8c-0.1-0.8-0.4-1.7-1-2.2c-0.6-0.7-1.4-1-2.4-1c-1,0-1.8,0.4-2.4,1
		C27.9,8.8,27.6,9.6,27.5,10.5L27.5,10.5z"/>
	<polygon class="st1" points="44.6,48.8 17.2,48.8 17.2,15.1 26.1,15.1 35.7,15.1 44.6,15.1 	"/>
	<polygon class="st2" points="20.2,21.3 20.2,21.3 41.6,21.3 41.6,23.5 20.2,23.5 	"/>
	<polygon class="st2" points="20.2,18.5 20.2,18.5 41.6,18.5 41.6,20.7 20.2,20.7 	"/>
	<polygon class="st2" points="20.2,15.6 20.2,15.6 41.6,15.6 41.6,17.8 20.2,17.8 	"/>
</g>
</svg>
