<?xml version="1.0" encoding="utf-8"?>
<!-- Generator: Adobe Illustrator 19.2.0, SVG Export Plug-In . SVG Version: 6.00 Build 0)  -->
<svg version="1.1" id="Layer_1" xmlns="http://www.w3.org/2000/svg" xmlns:xlink="http://www.w3.org/1999/xlink" x="0px" y="0px"
	 viewBox="0 0 58.1 55.4" style="enable-background:new 0 0 58.1 55.4;" xml:space="preserve">
<style type="text/css">
	.st0{fill:#D34405;}
	.st1{fill:#FEFEFE;}
	.st2{fill-rule:evenodd;clip-rule:evenodd;fill:#2893EA;}
	.st3{fill-rule:evenodd;clip-rule:evenodd;fill:#0277BD;}
</style>
<g>
	<path class="st0" d="M30.8,5.7L30.8,5.7c6.3,0,12.1,2.6,16.2,6.7c4.2,4.2,6.7,10,6.7,16.3c0,6.3-2.5,12.1-6.7,16.2
		c-4.1,4.2-9.9,6.9-16.2,6.9c-6.3,0-12.1-2.6-16.2-6.9c-4.2-4.1-6.9-9.9-6.9-16.2c0-6.3,2.6-12.1,6.9-16.3
		C18.7,8.4,24.5,5.7,30.8,5.7L30.8,5.7z"/>
	<path class="st1" d="M15.3,42.8L15.3,42.8l29.3-29.3c-3.7-3.3-8.6-5.3-13.8-5.3c-5.7,0-10.9,2.4-14.6,6.1c-3.7,3.8-6.1,9-6.1,14.6
		C10,34.2,12,39.1,15.3,42.8L15.3,42.8z"/>
	<path class="st1" d="M46.5,15.2L46.5,15.2L17.4,44.5c3.6,3.3,8.4,5.3,13.7,5.3c5.7,0,10.9-2.4,14.6-6.1c3.8-3.8,6.1-9,6.1-14.6
		C51.8,23.7,49.8,18.9,46.5,15.2L46.5,15.2z"/>
	<g>
		<path class="st2" d="M31.3,32c1.7,0,2.3,0.5,2.3,2.3c0,1.6,0,3.3-0.1,4.9c0,0.4,0.2,0.6,0.6,0.6c2.1,0,4.3,0,6.4,0
			c0.5,0,0.7-0.1,0.8-0.5v-2.5c0-3.1,0-6,0-9.1v-0.1v-0.9h2.6c-1.2-1.2-2.5-2.3-3.8-3.5L31.3,32C31.3,32,31.3,32,31.3,32z"/>
		<path class="st3" d="M26.7,39.3c0-0.9,0-1.8,0-2.6l-3.2,3.2c0.9,0,1.7,0,2.6,0C26.6,39.9,26.7,39.7,26.7,39.3z"/>
	</g>
	<path class="st2" d="M38,13.9h-3.2c-0.4,0-0.8,0.3-0.8,0.8v2.6c-1.3-1.1-2.6-2.2-3.7-3.4c-0.4-0.3-0.7-0.3-1.2,0
		c-4.1,3.7-8.1,7.2-12.2,10.8c-0.3,0.3-0.6,0.5-0.8,0.8h2v0.9c0,0.1,0,0.3,0,0.4c0,3.7,0,7.4,0,11.1c0,0.5,0.2,0.6,0.7,0.6
		c0,0,0,0,0,0l19.9-19.9v-4C38.7,14.3,38.4,13.9,38,13.9z"/>
</g>
</svg>
