<?xml version="1.0" encoding="utf-8"?>
<!-- Generator: Adobe Illustrator 19.2.0, SVG Export Plug-In . SVG Version: 6.00 Build 0)  -->
<svg version="1.1" id="Layer_1" xmlns="http://www.w3.org/2000/svg" xmlns:xlink="http://www.w3.org/1999/xlink" x="0px" y="0px"
	 viewBox="0 0 58.1 55.4" style="enable-background:new 0 0 58.1 55.4;" xml:space="preserve">
<style type="text/css">
	.st0{fill:#CCEAFF;}
	.st1{fill:#027DE5;}
</style>
<g>
	<g id="fill_5_" transform="matrix(3.13 0 0 3.13 246.88 237.5)">
		<rect x="-73.8" y="-73.3" class="st0" width="9.8" height="13.9"/>
	</g>
	<g id="fill_6_" transform="matrix(3.13 0 0 3.13 246.88 237.5)">
		<path class="st0" d="M-64.8-73.3v3.3c0,5.1-3.9,9.3-9,9.7v0.9h9.8v-13.9H-64.8z"/>
	</g>
	<g id="fill_7_" transform="matrix(3.13 0 0 3.13 246.88 206.25)">
		<rect x="-72.6" y="-61.7" class="st1" width="7.3" height="2.4"/>
	</g>
	<g id="fill_8_" transform="matrix(3.13 0 0 3.13 265.63 264.06)">
		<rect x="-73.2" y="-73.2" class="st1" width="1.6" height="3.7"/>
	</g>
	<g id="fill_9_" transform="matrix(3.13 0 0 3.13 259.38 225)">
		<rect x="-71.7" y="-64.4" class="st1" width="0.8" height="0.8"/>
	</g>
	<g id="fill_10_" transform="matrix(3.13 0 0 3.13 271.88 225)">
		<rect x="-74" y="-64.4" class="st1" width="0.8" height="0.8"/>
	</g>
	<g id="fill_11_" transform="matrix(3.13 0 0 3.13 234.38 225)">
		<rect x="-66.9" y="-64.4" class="st1" width="0.8" height="0.8"/>
	</g>
	<g id="fill_12_" transform="matrix(3.13 0 0 3.13 246.88 225)">
		<rect x="-69.3" y="-64.4" class="st1" width="0.8" height="0.8"/>
	</g>
	<g id="fill_13_" transform="matrix(3.13 0 0 3.13 259.38 237.5)">
		<rect x="-71.7" y="-66.8" class="st1" width="0.8" height="0.8"/>
	</g>
	<g id="fill_14_" transform="matrix(3.13 0 0 3.13 271.88 237.5)">
		<rect x="-74" y="-66.8" class="st1" width="0.8" height="0.8"/>
	</g>
	<g id="fill_15_" transform="matrix(3.13 0 0 3.13 221.88 225)">
		<rect x="-64.6" y="-64.4" class="st1" width="0.8" height="0.8"/>
	</g>
	<g id="fill_16_" transform="matrix(3.13 0 0 3.13 234.38 237.5)">
		<rect x="-66.9" y="-66.8" class="st1" width="0.8" height="0.8"/>
	</g>
	<g id="fill_17_" transform="matrix(3.13 0 0 3.13 246.88 237.5)">
		<rect x="-69.3" y="-66.8" class="st1" width="0.8" height="0.8"/>
	</g>
	<g id="fill_18_" transform="matrix(3.13 0 0 3.13 221.88 237.5)">
		<rect x="-64.6" y="-66.8" class="st1" width="0.8" height="0.8"/>
	</g>
	<g id="fill_19_" transform="matrix(3.13 0 0 3.13 234.38 250)">
		<rect x="-66.9" y="-69.2" class="st1" width="0.8" height="0.8"/>
	</g>
	<g id="fill_20_" transform="matrix(3.13 0 0 3.13 221.88 250)">
		<rect x="-64.6" y="-69.2" class="st1" width="0.8" height="0.8"/>
	</g>
	<g id="fill_21_" transform="matrix(3.13 0 0 3.13 234.38 262.5)">
		<rect x="-66.9" y="-71.5" class="st1" width="0.8" height="0.8"/>
	</g>
	<g id="fill_22_" transform="matrix(3.13 0 0 3.13 221.88 262.5)">
		<rect x="-64.6" y="-71.5" class="st1" width="0.8" height="0.8"/>
	</g>
	<g id="fill_23_" transform="matrix(3.13 0 0 3.13 234.38 275)">
		<rect x="-66.9" y="-73.9" class="st1" width="0.8" height="0.8"/>
	</g>
	<g id="fill_24_" transform="matrix(3.13 0 0 3.13 246.88 250)">
		<rect x="-69.3" y="-69.2" class="st1" width="0.8" height="0.8"/>
	</g>
	<g id="fill_25_" transform="matrix(3.13 0 0 3.13 246.88 262.5)">
		<rect x="-69.3" y="-71.5" class="st1" width="0.8" height="0.8"/>
	</g>
	<g id="fill_26_" transform="matrix(3.13 0 0 3.13 246.88 275)">
		<rect x="-69.3" y="-73.9" class="st1" width="0.8" height="0.8"/>
	</g>
	<g id="fill_27_" transform="matrix(3.13 0 0 3.13 221.88 275)">
		<rect x="-64.6" y="-73.9" class="st1" width="0.8" height="0.8"/>
	</g>
	<g id="fill_28_" transform="matrix(3.13 0 0 3.13 225 203.13)">
		<polygon class="st1" points="-65.6,-59.1 -65.6,-60.7 -63.9,-60.7 		"/>
	</g>
</g>
</svg>
