<?xml version="1.0" encoding="utf-8"?>
<!-- Generator: Adobe Illustrator 19.2.0, SVG Export Plug-In . SVG Version: 6.00 Build 0)  -->
<svg version="1.1" id="Layer_1" xmlns="http://www.w3.org/2000/svg" xmlns:xlink="http://www.w3.org/1999/xlink" x="0px" y="0px"
	 viewBox="0 0 58.1 55.4" style="enable-background:new 0 0 58.1 55.4;" xml:space="preserve">
<style type="text/css">
	.st0{fill:#FFF59D;}
	.st1{fill:#FBC02D;}
	.st2{fill:#027DE5;}
	.st3{fill:#9FA8DA;}
</style>
<g>
	<g id="surface1" transform="matrix(4.17 0 0 4.17 200 191.67)">
		<path class="st0" d="M-36.4-39.6c0,2.5-2.1,4.6-4.6,4.6s-4.6-2.1-4.6-4.6c0-2.5,2.1-4.6,4.6-4.6S-36.4-42.1-36.4-39.6z"/>
	</g>
	<g id="surface1_1_" transform="matrix(4.17 0 0 4.17 200.05 195.86)">
		<path class="st1" d="M-38-40.6c0-1.8-1.5-3.2-3.3-3c-1.4,0.2-2.5,1.3-2.6,2.6c-0.1,1.1,0.3,2,1.1,2.6c0.3,0.3,0.5,0.7,0.5,1.1v0.1
			h2.8v0c0-0.4,0.2-0.8,0.5-1.1C-38.4-38.8-38-39.6-38-40.6z"/>
	</g>
	<g id="surface1_2_" transform="matrix(4.17 0 0 4.17 200.29 214.69)">
		<path class="st0" d="M-39.5-45.5l-0.7-0.5c-0.1,0-0.2,0-0.3,0l-0.6,0.4l-0.6-0.4c-0.1,0-0.2,0-0.3,0l-0.7,0.5c0,0-0.1,0.1-0.1,0.2
			c0,0.1,0,0.1,0,0.2l0.9,1.1v2.4h0.5v-2.5c0,0,0-0.1,0-0.1l-0.8-0.9l0.3-0.2l0.6,0.4c0.1,0,0.2,0,0.3,0l0.6-0.4l0.3,0.2l-0.8,0.9
			c0,0,0,0.1,0,0.1v2.5h0.5v-2.4l0.9-1.1c0,0,0.1-0.1,0-0.2C-39.4-45.4-39.5-45.5-39.5-45.5z"/>
	</g>
	<g id="surface1_3_" transform="matrix(4.17 0 0 4.17 200 283.33)">
		<path class="st2" d="M-40.3-56.5c0,0.4-0.3,0.7-0.7,0.7s-0.7-0.3-0.7-0.7s0.3-0.7,0.7-0.7S-40.3-56.9-40.3-56.5z"/>
	</g>
	<g id="surface1_4_" transform="matrix(4.17 0 0 4.17 200 268.75)">
		<path class="st3" d="M-40.5-52.8h-0.9c-0.5,0-0.9-0.4-0.9-0.9v-1.1h2.8v1.1C-39.6-53.2-40-52.8-40.5-52.8z"/>
	</g>
	<g id="surface1_5_" transform="matrix(4.17 0 0 4.17 200.83 277.91)">
		<path class="st2" d="M-39.8-55.9l-2.7,0.4c0.1,0.2,0.2,0.3,0.4,0.4l2.2-0.3C-39.8-55.5-39.8-55.7-39.8-55.9z"/>
	</g>
	<g id="surface1_6_" transform="matrix(4.17 0 0 4.17 200 261.87)">
		<path class="st2" d="M-42.3-52.6v0.5l2.8-0.4V-53L-42.3-52.6z"/>
	</g>
</g>
</svg>
