<?xml version="1.0" encoding="utf-8"?>
<!-- Generator: Adobe Illustrator 19.2.0, SVG Export Plug-In . SVG Version: 6.00 Build 0)  -->
<svg version="1.1" id="Layer_1" xmlns="http://www.w3.org/2000/svg" xmlns:xlink="http://www.w3.org/1999/xlink" x="0px" y="0px"
	 viewBox="0 0 58.1 55.4" style="enable-background:new 0 0 58.1 55.4;" xml:space="preserve">
<style type="text/css">
	.st0{fill:#D9E1E8;}
	.st1{fill:#2893EA;}
	.st2{fill:#0277BD;}
</style>
<g>
	<g id="Winter_Alarm" transform="matrix(6.25 0 0 6.25 165.42 259.7)">
		<path class="st0" d="M-23.8-33.1c-0.1,0-0.2,0-0.2-0.1c-0.1-0.1-0.1-0.3,0-0.4c0,0,0,0,0,0l0.9-0.9c0.1-0.1,0.3-0.1,0.4,0
			c0.1,0.1,0.1,0.3,0,0.4l-0.9,0.9C-23.7-33.1-23.7-33.1-23.8-33.1z"/>
	</g>
	<g id="Winter_Alarm_1_" transform="matrix(6.25 0 0 6.25 234.83 259.56)">
		<path class="st0" d="M-30.6-33.1c-0.1,0-0.2,0-0.2-0.1l-0.9-0.9c-0.1-0.1-0.1-0.3,0-0.4c0.1-0.1,0.3-0.1,0.4,0l0.9,0.9
			c0.1,0.1,0.1,0.3,0,0.4c0,0,0,0,0,0C-30.5-33.1-30.6-33.1-30.6-33.1z"/>
	</g>
	<g id="Winter_Alarm_2_" transform="matrix(6.25 0 0 6.25 150.51 156.74)">
		<path class="st0" d="M-21.4-21.8c-0.1,0-0.2,0-0.2-0.1l-0.7-0.7c-0.1-0.1-0.1-0.3,0-0.4s0.3-0.1,0.4,0l0.7,0.7
			c0.1,0.1,0.1,0.3,0,0.4c0,0,0,0,0,0C-21.2-21.8-21.3-21.8-21.4-21.8z"/>
	</g>
	<g id="Winter_Alarm_3_" transform="matrix(6.25 0 0 6.25 249.49 156.74)">
		<path class="st0" d="M-33-21.8c-0.1,0-0.2,0-0.2-0.1c-0.1-0.1-0.1-0.3,0-0.4c0,0,0,0,0,0l0.7-0.7c0.1-0.1,0.3-0.1,0.4,0
			c0.1,0.1,0.1,0.3,0,0.4l-0.7,0.7C-32.9-21.8-33-21.8-33-21.8z"/>
	</g>
	<g id="Winter_Alarm_4_" transform="matrix(6.25 0 0 6.25 200 200)">
		<circle class="st1" cx="-27.2" cy="-27.2" r="3.1"/>
	</g>
	<g id="Winter_Alarm_5_" transform="matrix(6.25 0 0 6.25 200 200)">
		<path class="st2" d="M-26-27.5h-0.5l0.3-0.3c0.1-0.1,0.1-0.3,0-0.4c-0.1-0.1-0.3-0.1-0.4,0l-0.3,0.3v-0.5c0-0.2-0.1-0.3-0.3-0.3
			s-0.3,0.1-0.3,0.3v0.5l-0.3-0.3c-0.1-0.1-0.3-0.1-0.4,0c-0.1,0.1-0.1,0.3,0,0.4l0.3,0.3h-0.5c-0.2,0-0.3,0.1-0.3,0.3
			c0,0.2,0.1,0.3,0.3,0.3h0.5l-0.3,0.3c-0.1,0.1-0.1,0.3,0,0.4c0,0,0,0,0,0c0.1,0.1,0.1,0.1,0.2,0.1c0.1,0,0.2,0,0.2-0.1l0.3-0.3
			v0.5c0,0.2,0.1,0.3,0.3,0.3s0.3-0.1,0.3-0.3v-0.5l0.3,0.3c0.1,0.1,0.1,0.1,0.2,0.1c0.1,0,0.2,0,0.2-0.1c0.1-0.1,0.1-0.3,0-0.4
			c0,0,0,0,0,0l-0.3-0.3h0.5c0.2,0,0.3-0.1,0.3-0.3C-25.7-27.4-25.8-27.5-26-27.5z"/>
	</g>
	<g id="Winter_Alarm_6_" transform="matrix(6.25 0 0 6.25 141.17 147.42)">
		<path class="st1" d="M-19.7-22.1c-0.5-0.5-1.2-0.5-1.7,0c-0.5,0.5-0.5,1.2,0,1.7c0.1,0.1,0.3,0.1,0.4,0c0,0,0,0,0,0l1.2-1.2
			C-19.6-21.8-19.6-22-19.7-22.1C-19.7-22.1-19.7-22.1-19.7-22.1z"/>
	</g>
	<g id="Winter_Alarm_7_" transform="matrix(6.25 0 0 6.25 258.82 147.43)">
		<path class="st1" d="M-33-22.1c-0.5-0.5-1.2-0.5-1.7,0c-0.1,0.1-0.1,0.3,0,0.4c0,0,0,0,0,0l1.2,1.2c0.1,0.1,0.3,0.1,0.4,0
			c0,0,0,0,0,0C-32.6-20.9-32.6-21.6-33-22.1z"/>
	</g>
</g>
</svg>
