<svg id="Layer_1" data-name="Layer 1" xmlns="http://www.w3.org/2000/svg" viewBox="0 0 42.61 29.05"><defs><style>.cls-1{fill:#ffee58;}.cls-2{fill:#00bcd4;}</style></defs><g id="surface1"><path class="cls-1" d="M15.4,16.23a1,1,0,0,1-1,.93c-.63,0-1-.35-1-.81a1.28,1.28,0,0,1,.18-.67s1-2,1.43-2.79a.8.8,0,0,0,.06-.37.52.52,0,0,0-.53-.46.51.51,0,0,0-.51.47c0,.31.17.44.34.44s.3-.08.3-.22-.05-.14-.12-.14-.13.23-.13.23a.16.16,0,0,1-.13-.22.33.33,0,0,1-.17-.1.35.35,0,0,1,.17-.09c0-.13,0-.2.14-.23a.2.2,0,0,0,0,.15.37.37,0,0,1,.49.35.52.52,0,0,1-.67.51.3.3,0,0,1,.17.25.55.55,0,0,0-.17,0,.5.5,0,0,1,.12.32c-.08,0-.16-.1-.26-.06.16.3,0,.72-.54.82a1,1,0,0,0,.27-.65c0-.71-.21-.83-.21-1.33a.71.71,0,0,1,.34-.59h0a.49.49,0,0,1-.3-.2,2.14,2.14,0,0,1,1.1,0,.83.83,0,0,1,.58.36,1.1,1.1,0,0,1,0,.89L13.89,15.9a1,1,0,0,0-.1.41.53.53,0,0,0,.56.5.46.46,0,0,0,.48-.39c0-.14-.08-.22-.19-.22-.27,0-.26.21-.2.35-.17-.07-.27-.2-.24-.33a.46.46,0,0,1-.28-.15.35.35,0,0,1,.28-.14c-.06-.21.09-.3.24-.35,0,.16-.08.33.2.33a.56.56,0,0,1,.46.16c0-.16,0-.82,0-.82,0-.25-.35-.24-.58-.17a.54.54,0,0,1,.67-.4.32.32,0,0,1-.2-.3.78.78,0,0,1,.33-.56Z" transform="translate(-7.09 -11.57)"/></g><g id="surface1-2" data-name="surface1"><path class="cls-1" d="M15.4,18.08a1,1,0,0,0-1-.94c-.63,0-1,.35-1,.82a1.28,1.28,0,0,0,.18.67s1,2,1.43,2.79a.75.75,0,0,1,.06.37.52.52,0,0,1-1,0c0-.31.17-.44.34-.44s.3.08.3.22-.05.14-.12.14-.13-.23-.13-.23a.16.16,0,0,0-.13.22.32.32,0,0,0-.17.09.37.37,0,0,0,.17.1c0,.13,0,.19.14.22a.17.17,0,0,1,0-.14.37.37,0,0,0,.49-.35.53.53,0,0,0-.67-.52.27.27,0,0,0,.17-.24.55.55,0,0,1-.17,0,.53.53,0,0,0,.12-.33c-.08,0-.16.1-.26.06.16-.3,0-.71-.54-.81a1,1,0,0,1,.27.65c0,.71-.21.83-.21,1.33a.73.73,0,0,0,.34.59h0a.45.45,0,0,0-.3.2,2.14,2.14,0,0,0,1.1,0,.84.84,0,0,0,.58-.37,1.07,1.07,0,0,0,0-.88l-1.45-2.9a.92.92,0,0,1-.1-.41.53.53,0,0,1,.56-.49.46.46,0,0,1,.48.39c0,.14-.08.22-.19.22-.27,0-.26-.22-.2-.36-.17.07-.27.2-.24.34a.41.41,0,0,0-.28.15.38.38,0,0,0,.28.14c-.06.21.09.29.24.34,0-.15-.08-.33.2-.33a.56.56,0,0,0,.46-.15c0,.17,0,.82,0,.82,0,.25-.35.24-.58.17a.55.55,0,0,0,.67.4.3.3,0,0,0-.2.29.78.78,0,0,0,.33.57Z" transform="translate(-7.09 -11.57)"/></g><g id="surface1-3" data-name="surface1"><path class="cls-1" d="M15.34,35.56s-.31.25-.42.12.53-1.18.53-1.53c0-.57-.41-.73-.91-.81a3.8,3.8,0,0,0-.87,0,.38.38,0,0,0,.34.17.67.67,0,0,0-.39.62c0,.49.21.7.21,1.25a1.57,1.57,0,0,1-.27.7.61.61,0,0,0,.58-.79.22.22,0,0,1,.2.06c0-.09,0-.2-.09-.29s.1,0,.19,0a.37.37,0,0,0-.21-.29.51.51,0,0,0,.68-.47.36.36,0,0,0-.32-.38.34.34,0,0,0-.17,0,.21.21,0,0,1,0-.2c-.12,0-.2.09-.14.23a.32.32,0,0,0-.21.09.22.22,0,0,0,.21.09c-.07.13,0,.2.11.26s-.07-.26.11-.26.15,0,.15.14-.09.22-.29.21a.38.38,0,0,1-.37-.43c0-.28.24-.42.56-.43s.5.14.5.41-.57,1.22-.57,1.54a.43.43,0,0,0,.47.39.87.87,0,0,0,.55-.28Z" transform="translate(-7.09 -11.57)"/></g><g id="surface1-4" data-name="surface1"><path class="cls-1" d="M15.4,28.89a1,1,0,0,0-1-.94c-.63,0-1,.36-1,.81a1.29,1.29,0,0,0,.18.68s1,2,1.43,2.79a.8.8,0,0,1,.06.37.52.52,0,0,1-.53.46.51.51,0,0,1-.51-.47c0-.31.17-.44.34-.44s.3.08.3.22-.05.14-.12.14-.13-.23-.13-.23a.16.16,0,0,0-.13.22.28.28,0,0,0-.17.1.35.35,0,0,0,.17.09c0,.13,0,.19.14.22a.17.17,0,0,1,0-.14.37.37,0,0,0,.49-.35.52.52,0,0,0-.67-.51.32.32,0,0,0,.17-.25.55.55,0,0,1-.17,0,.53.53,0,0,0,.12-.32c-.08,0-.16.1-.26.05.16-.3,0-.71-.54-.81a1,1,0,0,1,.27.65c0,.71-.21.83-.21,1.33a.73.73,0,0,0,.34.59h0a.45.45,0,0,0-.3.2,2.14,2.14,0,0,0,1.1,0,.81.81,0,0,0,.58-.37,1.07,1.07,0,0,0,0-.88l-1.45-2.9a.91.91,0,0,1-.1-.4.53.53,0,0,1,.56-.5.46.46,0,0,1,.48.39c0,.14-.08.22-.19.22-.27,0-.26-.22-.2-.36-.17.08-.27.2-.24.34a.5.5,0,0,0-.28.14.39.39,0,0,0,.28.15c-.06.21.09.3.24.35,0-.16-.08-.34.2-.34A.53.53,0,0,0,15.1,29c0,.17,0,.83,0,.83,0,.24-.35.24-.58.17.09.28.26.43.67.4a.3.3,0,0,0-.2.3.78.78,0,0,0,.33.56Z" transform="translate(-7.09 -11.57)"/></g><g id="surface1-5" data-name="surface1"><path class="cls-1" d="M15.4,27a1,1,0,0,1-1,.94c-.63,0-1-.36-1-.82a1.28,1.28,0,0,1,.18-.67s1-2,1.43-2.79a.8.8,0,0,0,.06-.37.52.52,0,0,0-.53-.46.51.51,0,0,0-.51.47c0,.3.17.44.34.44s.3-.08.3-.22-.05-.14-.12-.14-.13.23-.13.23a.16.16,0,0,1-.13-.22.28.28,0,0,1-.17-.1.46.46,0,0,1,.17-.09c0-.13,0-.2.14-.22a.17.17,0,0,0,0,.14.37.37,0,0,1,.49.35.52.52,0,0,1-.67.51.3.3,0,0,1,.17.25.55.55,0,0,0-.17,0,.53.53,0,0,1,.12.32c-.08,0-.16-.09-.26-.06.16.31,0,.72-.54.82a1,1,0,0,0,.27-.65c0-.72-.21-.84-.21-1.33a.71.71,0,0,1,.34-.59h0a.49.49,0,0,1-.3-.2,2.14,2.14,0,0,1,1.1,0,.83.83,0,0,1,.58.36,1.1,1.1,0,0,1,0,.89l-1.45,2.9a.91.91,0,0,0-.1.4.53.53,0,0,0,.56.5.46.46,0,0,0,.48-.39c0-.14-.08-.22-.19-.22-.27,0-.26.22-.2.36-.17-.08-.27-.2-.24-.34a.46.46,0,0,1-.28-.15.35.35,0,0,1,.28-.14c-.06-.21.09-.3.24-.35,0,.16-.08.33.2.33a.56.56,0,0,1,.46.16c0-.17,0-.82,0-.82,0-.25-.35-.24-.58-.17a.55.55,0,0,1,.67-.4.3.3,0,0,1-.2-.29.78.78,0,0,1,.33-.57Z" transform="translate(-7.09 -11.57)"/></g><g id="surface1-6" data-name="surface1"><path class="cls-2" d="M7.09,11.57H49.7V40.62H7.09Z" transform="translate(-7.09 -11.57)"/></g><g id="surface1-7" data-name="surface1"><path class="cls-1" d="M34.79,23.55a4,4,0,1,0-4,4A4,4,0,0,0,34.79,23.55Z" transform="translate(-7.09 -11.57)"/></g><g id="surface1-8" data-name="surface1"><path class="cls-1" d="M30.82,19.06a.3.3,0,0,0,.33-.33,11.63,11.63,0,0,0-.33-1.35,11.93,11.93,0,0,0-.32,1.35A.3.3,0,0,0,30.82,19.06Z" transform="translate(-7.09 -11.57)"/></g><g id="surface1-9" data-name="surface1"><path class="cls-1" d="M35.33,23.56a.29.29,0,0,0,.32.32A11.91,11.91,0,0,0,37,23.56a11.61,11.61,0,0,0-1.37-.33A.3.3,0,0,0,35.33,23.56Z" transform="translate(-7.09 -11.57)"/></g><g id="surface1-10" data-name="surface1"><path class="cls-1" d="M30.82,28.05a.29.29,0,0,0-.32.32,11.66,11.66,0,0,0,.32,1.36,11.37,11.37,0,0,0,.33-1.36A.29.29,0,0,0,30.82,28.05Z" transform="translate(-7.09 -11.57)"/></g><g id="surface1-11" data-name="surface1"><path class="cls-1" d="M26.32,23.56a.3.3,0,0,0-.33-.33,11.37,11.37,0,0,0-1.36.33,11.66,11.66,0,0,0,1.36.32A.3.3,0,0,0,26.32,23.56Z" transform="translate(-7.09 -11.57)"/></g><g id="surface1-12" data-name="surface1"><path class="cls-1" d="M32.55,19.41a.3.3,0,0,0,.42-.18,11.83,11.83,0,0,0,.22-1.38A11.36,11.36,0,0,0,32.37,19,.3.3,0,0,0,32.55,19.41Z" transform="translate(-7.09 -11.57)"/></g><g id="surface1-13" data-name="surface1"><path class="cls-1" d="M35,25.27a.3.3,0,0,0,.17.43,11.83,11.83,0,0,0,1.38.22,11.36,11.36,0,0,0-1.13-.82A.29.29,0,0,0,35,25.27Z" transform="translate(-7.09 -11.57)"/></g><g id="surface1-14" data-name="surface1"><path class="cls-1" d="M29.1,27.71a.3.3,0,0,0-.43.18,11.06,11.06,0,0,0-.21,1.37,10.79,10.79,0,0,0,.81-1.12A.29.29,0,0,0,29.1,27.71Z" transform="translate(-7.09 -11.57)"/></g><g id="surface1-15" data-name="surface1"><path class="cls-1" d="M26.66,21.83a.3.3,0,0,0-.18-.42,11.83,11.83,0,0,0-1.38-.22,11.36,11.36,0,0,0,1.13.82A.31.31,0,0,0,26.66,21.83Z" transform="translate(-7.09 -11.57)"/></g><g id="surface1-16" data-name="surface1"><path class="cls-1" d="M34,20.38a.3.3,0,0,0,.46,0,10.48,10.48,0,0,0,.73-1.18,11.43,11.43,0,0,0-1.19.73A.3.3,0,0,0,34,20.38Z" transform="translate(-7.09 -11.57)"/></g><g id="surface1-17" data-name="surface1"><path class="cls-1" d="M34,26.73a.3.3,0,0,0,0,.46,11.43,11.43,0,0,0,1.19.73,11.43,11.43,0,0,0-.73-1.19A.3.3,0,0,0,34,26.73Z" transform="translate(-7.09 -11.57)"/></g><g id="surface1-18" data-name="surface1"><path class="cls-1" d="M27.64,26.73a.3.3,0,0,0-.46,0,11.81,11.81,0,0,0-.74,1.19,10.46,10.46,0,0,0,1.19-.73A.3.3,0,0,0,27.64,26.73Z" transform="translate(-7.09 -11.57)"/></g><g id="surface1-19" data-name="surface1"><path class="cls-1" d="M27.63,20.38a.29.29,0,0,0,0-.46,11.43,11.43,0,0,0-1.19-.73,13.48,13.48,0,0,0,.73,1.19A.3.3,0,0,0,27.63,20.38Z" transform="translate(-7.09 -11.57)"/></g><g id="surface1-20" data-name="surface1"><path class="cls-1" d="M35,21.83a.3.3,0,0,0,.42.18,11.36,11.36,0,0,0,1.13-.82,11.83,11.83,0,0,0-1.38.22A.29.29,0,0,0,35,21.83Z" transform="translate(-7.09 -11.57)"/></g><g id="surface1-21" data-name="surface1"><path class="cls-1" d="M32.55,27.71a.29.29,0,0,0-.18.42,11.36,11.36,0,0,0,.82,1.13A11.83,11.83,0,0,0,33,27.88.29.29,0,0,0,32.55,27.71Z" transform="translate(-7.09 -11.57)"/></g><g id="surface1-22" data-name="surface1"><path class="cls-1" d="M26.66,25.27a.3.3,0,0,0-.43-.17,11.36,11.36,0,0,0-1.13.82,11.83,11.83,0,0,0,1.38-.22A.3.3,0,0,0,26.66,25.27Z" transform="translate(-7.09 -11.57)"/></g><g id="surface1-23" data-name="surface1"><path class="cls-1" d="M29.1,19.41a.3.3,0,0,0,.17-.43,10.06,10.06,0,0,0-.81-1.13,11.46,11.46,0,0,0,.21,1.38A.3.3,0,0,0,29.1,19.41Z" transform="translate(-7.09 -11.57)"/></g><g id="surface1-24" data-name="surface1"><path class="cls-1" d="M31.7,19.14a.29.29,0,0,0,.38-.25A12.75,12.75,0,0,0,32,17.5a12.45,12.45,0,0,0-.58,1.26A.29.29,0,0,0,31.7,19.14Z" transform="translate(-7.09 -11.57)"/></g><g id="surface1-25" data-name="surface1"><path class="cls-1" d="M35.24,24.43a.3.3,0,0,0,.26.39,12.75,12.75,0,0,0,1.39-.06,11.8,11.8,0,0,0-1.27-.58A.29.29,0,0,0,35.24,24.43Z" transform="translate(-7.09 -11.57)"/></g><g id="surface1-26" data-name="surface1"><path class="cls-1" d="M30,28a.31.31,0,0,0-.39.26,12.75,12.75,0,0,0,.06,1.39,12.79,12.79,0,0,0,.58-1.27A.3.3,0,0,0,30,28Z" transform="translate(-7.09 -11.57)"/></g><g id="surface1-27" data-name="surface1"><path class="cls-1" d="M26.41,22.67a.29.29,0,0,0-.26-.37,11.09,11.09,0,0,0-1.4.05,12.79,12.79,0,0,0,1.27.58A.31.31,0,0,0,26.41,22.67Z" transform="translate(-7.09 -11.57)"/></g><g id="surface1-28" data-name="surface1"><path class="cls-1" d="M33.33,19.82a.3.3,0,0,0,.45-.09,12,12,0,0,0,.48-1.31,11.05,11.05,0,0,0-1,.95A.29.29,0,0,0,33.33,19.82Z" transform="translate(-7.09 -11.57)"/></g><g id="surface1-29" data-name="surface1"><path class="cls-1" d="M34.57,26.05a.29.29,0,0,0,.09.45A12,12,0,0,0,36,27,12.25,12.25,0,0,0,35,26,.31.31,0,0,0,34.57,26.05Z" transform="translate(-7.09 -11.57)"/></g><g id="surface1-30" data-name="surface1"><path class="cls-1" d="M28.32,27.28a.3.3,0,0,0-.45.1,9.92,9.92,0,0,0-.49,1.3,12.25,12.25,0,0,0,1-.94A.31.31,0,0,0,28.32,27.28Z" transform="translate(-7.09 -11.57)"/></g><g id="surface1-31" data-name="surface1"><path class="cls-1" d="M27.07,21.06a.29.29,0,0,0-.09-.45,12.43,12.43,0,0,0-1.31-.49,12.37,12.37,0,0,0,.95,1A.3.3,0,0,0,27.07,21.06Z" transform="translate(-7.09 -11.57)"/></g><g id="surface1-32" data-name="surface1"><path class="cls-1" d="M34.57,21.06a.3.3,0,0,0,.45.09,12.37,12.37,0,0,0,.95-1,12.43,12.43,0,0,0-1.31.49A.29.29,0,0,0,34.57,21.06Z" transform="translate(-7.09 -11.57)"/></g><g id="surface1-33" data-name="surface1"><path class="cls-1" d="M33.33,27.28a.3.3,0,0,0-.09.46,12.25,12.25,0,0,0,1,.94,11.25,11.25,0,0,0-.48-1.3A.3.3,0,0,0,33.33,27.28Z" transform="translate(-7.09 -11.57)"/></g><g id="surface1-34" data-name="surface1"><path class="cls-1" d="M27.07,26.05a.3.3,0,0,0-.45-.09,12.66,12.66,0,0,0-.95,1A11.29,11.29,0,0,0,27,26.5.29.29,0,0,0,27.07,26.05Z" transform="translate(-7.09 -11.57)"/></g><g id="surface1-35" data-name="surface1"><path class="cls-1" d="M28.32,19.82a.29.29,0,0,0,.08-.45,11.05,11.05,0,0,0-1-.95,10.52,10.52,0,0,0,.49,1.31A.3.3,0,0,0,28.32,19.82Z" transform="translate(-7.09 -11.57)"/></g><g id="surface1-36" data-name="surface1"><path class="cls-1" d="M35.24,22.68a.3.3,0,0,0,.38.26,11.8,11.8,0,0,0,1.27-.58,10.63,10.63,0,0,0-1.39-.06A.29.29,0,0,0,35.24,22.68Z" transform="translate(-7.09 -11.57)"/></g><g id="surface1-37" data-name="surface1"><path class="cls-1" d="M31.7,28a.3.3,0,0,0-.26.38A12.79,12.79,0,0,0,32,29.61a12.75,12.75,0,0,0,.06-1.39A.3.3,0,0,0,31.7,28Z" transform="translate(-7.09 -11.57)"/></g><g id="surface1-38" data-name="surface1"><path class="cls-1" d="M26.41,24.43a.3.3,0,0,0-.39-.25,12.79,12.79,0,0,0-1.27.58,13,13,0,0,0,1.4.06A.31.31,0,0,0,26.41,24.43Z" transform="translate(-7.09 -11.57)"/></g><g id="surface1-39" data-name="surface1"><path class="cls-1" d="M30,19.14a.29.29,0,0,0,.25-.38,12.45,12.45,0,0,0-.58-1.26,12.75,12.75,0,0,0-.06,1.39A.3.3,0,0,0,30,19.14Z" transform="translate(-7.09 -11.57)"/></g><g id="surface1-40" data-name="surface1"><path class="cls-1" d="M30.11,32.12a1.12,1.12,0,0,0-.31.05c-.13,0-.27.07-.41.09h-.14s0,0,0,.08,0,0,0,.07l0,.06a.18.18,0,0,1-.07,0,.11.11,0,0,1-.08,0H29l-.08,0h-.16l-.08,0-.07,0a.69.69,0,0,0-.28.22.43.43,0,0,0-.05.16.46.46,0,0,0,.05.2s0-.07.05-.08a.63.63,0,0,1,.2-.1c.06,0,.05,0,0,0s0,.12,0,.08a2,2,0,0,1,.63-.13c.31,0,.63,0,.94,0l.89,0a3,3,0,0,0,.42,0,.35.35,0,0,0,.11,0,.8.8,0,0,0-.21-.05h-.56a1.49,1.49,0,0,1-.47-.07s-.08,0-.11,0a.58.58,0,0,1-.18,0,.63.63,0,0,1-.3-.05,3,3,0,0,1,.23-.27l-.18,0Z" transform="translate(-7.09 -11.57)"/></g><g id="surface1-41" data-name="surface1"><path class="cls-1" d="M34.71,33.13c-.22.13-.38-.1-.56-.17s-.14.3-.26.41-.32,0-.3-.2c-.17.14-.26.47-.53.43s-.23-.33-.33-.08-.3.3-.41.11-.12-.36-.21-.1a.35.35,0,0,1-.45.25c-.11-.09.08-.41-.05-.39s-.32.47-.6.44c-.11-.12.07-.33-.05-.46-.14.18-.3.44-.54.46s0-.37-.07-.41c-.25.15-.52.42-.83.33a1.08,1.08,0,0,1,1.06-.66,9.74,9.74,0,0,0,2.23-.19c.12-.07.4-.17.3-.33s.23-.08.26-.23.14-.16.3-.18c.72,0,1.43.12,2.15.15a.48.48,0,0,1-.65.48c-.14,0-.37-.34-.32-.08s0,.33-.14.42m-6.12-.71c.17.15.28,0,.44-.1a6.09,6.09,0,0,0,1.43-.8,2.08,2.08,0,0,1,.87-.59c.71-.21,1.47-.19,2.18-.38a6.12,6.12,0,0,1,2.25-1.44c.17-.05.24-.2.3-.36a3.57,3.57,0,0,1,1.17-1.15,1,1,0,0,1,.75-.14,1.26,1.26,0,0,1-.4.78c.17,0,.32-.11.49-.11.06.31-.27.48-.45.67.1,0,.48.05.27.15a8.67,8.67,0,0,0-.81.53c.22,0,.25.08,0,.17s-.37.11-.39.27c.17.11-.08.21-.17.25s-.38.12-.14.26a.46.46,0,0,1-.45.15c0,.16.12.34-.08.41a3.23,3.23,0,0,1-1.58.65,3.37,3.37,0,0,0,2.08-.47c.08-.09.51-.2.27-.28s-.35-.1-.37-.18c.33-.21.76-.13,1.12-.25,0-.12-.28-.09-.38-.12s-.24-.08,0-.1a2.62,2.62,0,0,0,.92-.3c-.21-.1-.48,0-.7-.09a5.84,5.84,0,0,0,1.17-.43c.16-.18-.2-.13-.3-.12s-.31-.06-.07-.15a4.25,4.25,0,0,0,1.21-.93c.07-.1.16-.39-.06-.29s-.53.42-.86.32A7.2,7.2,0,0,0,40,26.5c0-.19-.29-.21-.37-.06a5.15,5.15,0,0,1-1.31,1.11,8,8,0,0,0,1.29-1.66c.07-.17.29-.39.17-.59s-.41,0-.51.17a6.56,6.56,0,0,1-1,1.24,5,5,0,0,0,.74-2.2c0-.16,0-.4-.26-.37s-.13.29-.2.42a5.25,5.25,0,0,1-.56,1.6,3.57,3.57,0,0,0,.1-1.34c-.05-.2-.36-.11-.33.09a7,7,0,0,1-3.39,4.6,7.15,7.15,0,0,1-2.54.86,5.67,5.67,0,0,0-.72.1c-.55.42-.89,1.13-1.59,1.35-.31.16-.72.19-.94.48a.17.17,0,0,0,0,.12" transform="translate(-7.09 -11.57)"/></g><g id="surface1-42" data-name="surface1"><path class="cls-1" d="M30.69,30.46a3.81,3.81,0,0,1-.29.57,2.27,2.27,0,0,0-1.49-.37,2,2,0,0,1-1.2-.36,10.1,10.1,0,0,0-1-.87,2.37,2.37,0,0,1-1-.45c-.6-.48-.94-1.2-1.52-1.7a2.57,2.57,0,0,0-.37-.28c-.11,0-.06.28-.21.15s-.27-.06-.29,0a1.5,1.5,0,0,1,.38.79c-.12,0-.34,0-.4,0a2.43,2.43,0,0,0,.61.63c-.12,0-.34,0-.38.05a1.62,1.62,0,0,0,.79.43c.06.09-.09.25,0,.31s.32.09.15.17a.14.14,0,0,0,.07.26c.1.05.31.06.33.14s-.35.19-.12.27a1.58,1.58,0,0,0,.68.2c-.12.1-.27.15-.39.25a10,10,0,0,0,1.75.73,6.05,6.05,0,0,0,.73.2,6,6,0,0,1-2.07-.54c-.34-.15-.68-.29-1-.42.15-.08.33-.1.49-.17a2.75,2.75,0,0,1-1-.27c.05-.07.22-.08.31-.12s.28-.09,0-.11a2.06,2.06,0,0,1-.74-.18c0-.09.24-.06.33-.1a.66.66,0,0,0,.34-.12c-.38-.15-.88,0-1.18-.38-.07-.13.21,0,.29,0a1.66,1.66,0,0,0,.63,0,4.63,4.63,0,0,1-1.59-.93c0-.07-.18-.27-.07-.29.33,0,.57.4.93.35,0-.07-.21-.17-.27-.26a6.88,6.88,0,0,1-1.39-1.51c0-.19.28-.21.37-.07a5.3,5.3,0,0,0,1.24,1.08c.18.09-.1-.09-.13-.16a8.76,8.76,0,0,1-1.21-1.7c-.06-.12-.15-.32,0-.38a.32.32,0,0,1,.42.18,7.66,7.66,0,0,0,1,1.27,5.14,5.14,0,0,1-.74-2.2c0-.16,0-.39.22-.38s.15.2.21.3a6,6,0,0,0,.59,1.72,3.62,3.62,0,0,1-.11-1.31.17.17,0,0,1,.28-.1c.09.21.11.47.19.69a7,7,0,0,0,2.73,3.74,7.26,7.26,0,0,0,3.64,1.25l.35,0" transform="translate(-7.09 -11.57)"/></g><g id="surface1-43" data-name="surface1"><path class="cls-1" d="M29.11,32.4a.07.07,0,1,1-.07-.07A.07.07,0,0,1,29.11,32.4Z" transform="translate(-7.09 -11.57)"/></g><g id="surface1-44" data-name="surface1"><path class="cls-1" d="M11,13.09s.31-.25.42-.12-.52,1.18-.52,1.53c0,.57.4.73.9.81a3.91,3.91,0,0,0,.88,0,.4.4,0,0,0-.34-.17.69.69,0,0,0,.39-.62c0-.49-.22-.7-.22-1.25a1.57,1.57,0,0,1,.27-.7.6.6,0,0,0-.57.79.26.26,0,0,1-.21-.06.32.32,0,0,0,.1.29c-.06,0-.11,0-.2,0a.4.4,0,0,0,.21.29.51.51,0,0,0-.68.47.36.36,0,0,0,.33.38.41.41,0,0,0,.17,0,.24.24,0,0,1,0,.2c.11,0,.19-.09.14-.23a.34.34,0,0,0,.21-.09.24.24,0,0,0-.21-.09c.06-.13,0-.21-.12-.26s.07.26-.1.26-.15,0-.15-.14.08-.22.29-.21.36.13.36.43-.24.42-.55.43-.5-.14-.5-.41.56-1.22.56-1.55a.42.42,0,0,0-.46-.38.9.9,0,0,0-.56.28Z" transform="translate(-7.09 -11.57)"/></g><g id="surface1-45" data-name="surface1"><path class="cls-1" d="M10.91,19.76a1,1,0,0,0,1.05.93c.62,0,.95-.35.95-.81a1.28,1.28,0,0,0-.18-.67l-1.42-2.79a.79.79,0,0,1-.07-.37.52.52,0,0,1,.53-.46.5.5,0,0,1,.51.47c0,.31-.17.44-.34.44s-.3-.08-.3-.22,0-.14.13-.14.13.23.13.23a.16.16,0,0,0,.12-.22.27.27,0,0,0,.18-.1A.38.38,0,0,0,12,16c0-.13,0-.19-.14-.22a.18.18,0,0,1,0,.14.37.37,0,0,0-.49.35.51.51,0,0,0,.66.51.3.3,0,0,0-.16.25.47.47,0,0,1,.16,0,.53.53,0,0,0-.12.32c.08,0,.16-.1.26-.05-.16.29,0,.71.55.81a1,1,0,0,1-.28-.65c0-.71.21-.83.21-1.33a.74.74,0,0,0-.33-.59h0a.43.43,0,0,0,.29-.2,2.15,2.15,0,0,0-1.1,0,.81.81,0,0,0-.58.37,1.07,1.07,0,0,0,0,.88c.21.39,1.16,2.3,1.45,2.89a.87.87,0,0,1,.11.41.53.53,0,0,1-.56.5c-.24,0-.49-.18-.49-.39s.08-.22.19-.22c.28,0,.26.22.21.36a.34.34,0,0,0,.24-.34.44.44,0,0,0,.27-.15.38.38,0,0,0-.27-.14c.05-.21-.1-.3-.24-.35,0,.16.07.34-.21.34a.53.53,0,0,0-.45.15c0-.16,0-.82,0-.82,0-.25.36-.24.58-.17-.08-.28-.26-.43-.67-.4a.29.29,0,0,0,.2-.3.75.75,0,0,0-.33-.56Z" transform="translate(-7.09 -11.57)"/></g><g id="surface1-46" data-name="surface1"><path class="cls-1" d="M10.91,21.61A1,1,0,0,1,12,20.67a.83.83,0,0,1,.95.82,1.28,1.28,0,0,1-.18.67L11.31,25a.79.79,0,0,0-.07.37.52.52,0,0,0,1,0c0-.31-.17-.44-.34-.44s-.3.08-.3.22,0,.14.13.14.13-.23.13-.23a.16.16,0,0,1,.12.22.31.31,0,0,1,.18.09.4.4,0,0,1-.18.1c0,.13,0,.2-.14.22a.18.18,0,0,0,0-.14.37.37,0,0,1-.49-.35.51.51,0,0,1,.66-.51.29.29,0,0,1-.16-.25.47.47,0,0,0,.16,0,.53.53,0,0,1-.12-.32c.08,0,.16.09.26.06-.16-.31,0-.72.55-.82a1,1,0,0,0-.28.65c0,.71.21.84.21,1.33a.73.73,0,0,1-.33.59h0a.46.46,0,0,1,.29.2,2.15,2.15,0,0,1-1.1,0,.83.83,0,0,1-.58-.36,1.1,1.1,0,0,1,0-.89c.21-.4,1.16-2.3,1.45-2.9a.81.81,0,0,0,.11-.41A.53.53,0,0,0,12,21c-.24,0-.49.17-.49.39s.08.22.19.22c.28,0,.26-.22.21-.36a.33.33,0,0,1,.24.34.44.44,0,0,1,.27.15.35.35,0,0,1-.27.14c.05.21-.1.3-.24.34,0-.15.07-.32-.21-.32a.53.53,0,0,1-.45-.16c0,.16,0,.82,0,.82,0,.25.36.24.58.17-.08.28-.26.43-.67.39a.32.32,0,0,1,.2.3A.75.75,0,0,1,11,24Z" transform="translate(-7.09 -11.57)"/></g><g id="surface1-47" data-name="surface1"><path class="cls-1" d="M11,39.09s.31.25.42.12-.52-1.18-.52-1.53c0-.57.4-.73.9-.81a3.91,3.91,0,0,1,.88,0,.4.4,0,0,1-.34.17.69.69,0,0,1,.39.62c0,.49-.22.7-.22,1.25a1.57,1.57,0,0,0,.27.7.6.6,0,0,1-.57-.79.26.26,0,0,0-.21.06.32.32,0,0,1,.1-.29c-.06,0-.11,0-.2,0a.4.4,0,0,1,.21-.29.51.51,0,0,1-.68-.47.36.36,0,0,1,.33-.38.41.41,0,0,1,.17,0,.24.24,0,0,0,0-.2c.11,0,.19.09.14.23a.34.34,0,0,1,.21.09.24.24,0,0,1-.21.09c.06.13,0,.21-.12.26s.07-.26-.1-.26-.15,0-.15.14.08.22.29.21.36-.13.36-.43-.24-.42-.55-.43-.5.14-.5.41.56,1.22.56,1.55a.42.42,0,0,1-.46.38.9.9,0,0,1-.56-.28Z" transform="translate(-7.09 -11.57)"/></g><g id="surface1-48" data-name="surface1"><path class="cls-1" d="M10.91,32.42A1,1,0,0,1,12,31.49c.62,0,.95.35.95.81a1.28,1.28,0,0,1-.18.67l-1.42,2.79a.79.79,0,0,0-.07.37.52.52,0,0,0,.53.46.5.5,0,0,0,.51-.47c0-.31-.17-.44-.34-.44s-.3.08-.3.22,0,.14.13.14.13-.23.13-.23A.16.16,0,0,1,12,36a.27.27,0,0,1,.18.1.38.38,0,0,1-.18.09c0,.13,0,.19-.14.22a.18.18,0,0,0,0-.14.37.37,0,0,1-.49-.35.51.51,0,0,1,.66-.51.3.3,0,0,1-.16-.25.47.47,0,0,0,.16,0A.53.53,0,0,1,12,34.9c.08,0,.16.1.26.05-.16-.29,0-.71.55-.81a1,1,0,0,0-.28.65c0,.71.21.83.21,1.33a.74.74,0,0,1-.33.59h0a.43.43,0,0,1,.29.2,2.15,2.15,0,0,1-1.1,0,.81.81,0,0,1-.58-.37,1.07,1.07,0,0,1,0-.88c.21-.39,1.16-2.3,1.45-2.89a.87.87,0,0,0,.11-.41.53.53,0,0,0-.56-.5c-.24,0-.49.18-.49.39s.08.22.19.22c.28,0,.26-.22.21-.36a.34.34,0,0,1,.24.34.44.44,0,0,1,.27.15.38.38,0,0,1-.27.14c.05.21-.1.3-.24.35,0-.16.07-.34-.21-.34a.53.53,0,0,1-.45-.15c0,.16,0,.82,0,.82,0,.25.36.24.58.17-.08.28-.26.44-.67.4a.3.3,0,0,1,.2.3.75.75,0,0,1-.33.56Z" transform="translate(-7.09 -11.57)"/></g><g id="surface1-49" data-name="surface1"><path class="cls-1" d="M10.91,30.57a1,1,0,0,0,1.05.94c.62,0,.95-.35.95-.82a1.28,1.28,0,0,0-.18-.67l-1.42-2.79a.79.79,0,0,1-.07-.37.52.52,0,0,1,1,0c0,.31-.17.44-.34.44s-.3-.08-.3-.22,0-.14.13-.14.13.23.13.23A.16.16,0,0,0,12,27a.31.31,0,0,0,.18-.09.4.4,0,0,0-.18-.1c0-.13,0-.2-.14-.22a.18.18,0,0,1,0,.14.37.37,0,0,0-.49.35.51.51,0,0,0,.66.51.29.29,0,0,0-.16.25.47.47,0,0,1,.16,0,.53.53,0,0,0-.12.33c.08,0,.16-.1.26-.07-.16.31,0,.72.55.82a1,1,0,0,1-.28-.65c0-.71.21-.84.21-1.33a.73.73,0,0,0-.33-.59h0a.46.46,0,0,0,.29-.2,2.15,2.15,0,0,0-1.1,0,.87.87,0,0,0-.58.36,1.1,1.1,0,0,0,0,.89c.21.4,1.16,2.3,1.45,2.9a.81.81,0,0,1,.11.41.53.53,0,0,1-.56.49c-.24,0-.49-.17-.49-.39s.08-.22.19-.22c.28,0,.26.22.21.36a.33.33,0,0,0,.24-.34.44.44,0,0,0,.27-.15.35.35,0,0,0-.27-.14c.05-.21-.1-.3-.24-.34,0,.15.07.32-.21.32a.53.53,0,0,0-.45.16c0-.16,0-.82,0-.82,0-.25.36-.24.58-.17-.08-.28-.26-.43-.67-.39a.32.32,0,0,0,.2-.3.75.75,0,0,0-.33-.57Z" transform="translate(-7.09 -11.57)"/></g></svg>