<?xml version="1.0" encoding="utf-8"?>
<!-- Generator: Adobe Illustrator 19.2.0, SVG Export Plug-In . SVG Version: 6.00 Build 0)  -->
<svg version="1.1" id="Layer_1" xmlns="http://www.w3.org/2000/svg" xmlns:xlink="http://www.w3.org/1999/xlink" x="0px" y="0px"
	 viewBox="0 0 58.1 55.4" style="enable-background:new 0 0 58.1 55.4;" xml:space="preserve">
<style type="text/css">
	.st0{fill:#CCCCCC;}
	.st1{fill:#7CB342;}
</style>
<g>
	<g id="Layer_1_56_" transform="matrix(4.17 0 0 4.17 185.21 200)">
		<path class="st0" d="M-37.6-35.6c-3,0-5.4-2.4-5.4-5.4s2.4-5.4,5.4-5.4c1.3,0,2.5,0.5,3.5,1.3l-0.7,0.8c-0.8-0.7-1.8-1-2.8-1
			c-2.4,0-4.3,2-4.3,4.3s2,4.3,4.3,4.3V-35.6z"/>
	</g>
	<g>
		<path class="st1" d="M32.6,31.4c0,2.9-0.6,5.1-1.8,6.6c-1.2,1.5-3,2.3-5.3,2.3c-2.3,0-4-0.8-5.2-2.3c-1.2-1.5-1.8-3.7-1.9-6.5
			v-3.9c0-2.9,0.6-5.1,1.8-6.7c1.2-1.5,3-2.3,5.2-2.3s4,0.8,5.2,2.2c1.2,1.5,1.8,3.7,1.9,6.5V31.4z M28.4,27.2c0-1.7-0.2-3-0.7-3.8
			c-0.5-0.8-1.2-1.2-2.2-1.2c-1,0-1.7,0.4-2.2,1.1c-0.5,0.8-0.7,1.9-0.7,3.5V32c0,1.7,0.2,3,0.7,3.8c0.5,0.8,1.2,1.2,2.2,1.2
			c1,0,1.7-0.4,2.2-1.2c0.4-0.8,0.7-2,0.7-3.7V27.2z"/>
		<path class="st1" d="M35.3,23.2c0-1.3,0.4-2.3,1.3-3.1s1.9-1.2,3.3-1.2c1.4,0,2.5,0.4,3.3,1.2c0.8,0.8,1.3,1.9,1.3,3.2v1
			c0,1.3-0.4,2.3-1.3,3.1c-0.8,0.8-1.9,1.2-3.3,1.2c-1.4,0-2.5-0.4-3.3-1.2c-0.8-0.8-1.3-1.9-1.3-3.2V23.2z M38.1,24.3
			c0,0.6,0.2,1,0.5,1.4c0.3,0.4,0.8,0.5,1.3,0.5s1-0.2,1.3-0.5s0.5-0.8,0.5-1.4v-1.1c0-0.6-0.2-1-0.5-1.4c-0.3-0.4-0.8-0.5-1.3-0.5
			c-0.5,0-1,0.2-1.3,0.5c-0.3,0.3-0.5,0.8-0.5,1.5V24.3z M40.7,38.5l-2-1.1l10.2-16.4l2,1.1L40.7,38.5z M45.3,34.9
			c0-1.3,0.4-2.3,1.3-3.1c0.8-0.8,1.9-1.2,3.3-1.2c1.4,0,2.5,0.4,3.3,1.2c0.8,0.8,1.3,1.9,1.3,3.2v1c0,1.3-0.4,2.3-1.2,3.1
			c-0.8,0.8-1.9,1.2-3.3,1.2c-1.4,0-2.5-0.4-3.3-1.2c-0.8-0.8-1.3-1.8-1.3-3.2V34.9z M48.1,36.1c0,0.5,0.2,1,0.5,1.4
			c0.3,0.4,0.8,0.6,1.3,0.6c1.2,0,1.8-0.6,1.8-1.9v-1.1c0-0.6-0.2-1-0.5-1.4c-0.3-0.3-0.8-0.5-1.3-0.5c-0.5,0-1,0.2-1.3,0.5
			c-0.3,0.4-0.5,0.8-0.5,1.4V36.1z"/>
	</g>
</g>
</svg>
