<?xml version="1.0" encoding="utf-8"?>
<!-- Generator: Adobe Illustrator 19.2.0, SVG Export Plug-In . SVG Version: 6.00 Build 0)  -->
<svg version="1.1" id="Layer_1" xmlns="http://www.w3.org/2000/svg" xmlns:xlink="http://www.w3.org/1999/xlink" x="0px" y="0px"
	 viewBox="0 0 58.1 55.4" style="enable-background:new 0 0 58.1 55.4;" xml:space="preserve">
<style type="text/css">
	.st0{fill:#FFFFFF;}
	.st1{fill:#DCEDC8;}
	.st2{fill:#7CB342;}
	.st3{fill:#B0BEC5;}
	.st4{fill:#546E7A;}
</style>
<g>
	<g id="Layer_1_1_" transform="matrix(4.17 0 0 4.17 200 200)">
		<path class="st0" d="M-45.1-40.7c0,2.6,2.1,4.6,4.6,4.6c2.6,0,4.6-2.1,4.6-4.6s-2.1-4.6-4.6-4.6C-43.1-45.3-45.1-43.2-45.1-40.7"
			/>
	</g>
	<g id="Layer_1_2_" transform="matrix(4.17 0 0 4.17 185.21 200)">
		<path class="st1" d="M-37-35.3c-3,0-5.4-2.4-5.4-5.4s2.4-5.4,5.4-5.4c1.3,0,2.5,0.5,3.5,1.3l-0.7,0.8c-0.8-0.7-1.8-1-2.8-1
			c-2.4,0-4.3,2-4.3,4.3s2,4.3,4.3,4.3V-35.3z"/>
	</g>
	<g id="Layer_1_3_" transform="matrix(4.17 0 0 4.17 195.83 125)">
		<polygon class="st2" points="-38.7,-26 -40.9,-27.6 -38.7,-29.2 		"/>
	</g>
	<g id="Layer_1_4_" transform="matrix(4.17 0 0 4.17 200 233.33)">
		<path class="st3" d="M-44.1-48.7c0,0.2-0.1,0.3-0.3,0.3h-0.8V-49h0.8C-44.2-49-44.1-48.9-44.1-48.7z M-40.5-45.2
			c-0.2,0-0.3,0.1-0.3,0.3v0.8h0.5v-0.8C-40.3-45.1-40.4-45.2-40.5-45.2z M-36.7-49c-0.2,0-0.3,0.1-0.3,0.3s0.1,0.3,0.3,0.3h0.8V-49
			H-36.7z"/>
	</g>
	<g id="Layer_1_5_" transform="matrix(4.17 0 0 4.17 200 200)">
		<path class="st2" d="M-40.5-35.3c-3,0-5.4-2.4-5.4-5.4c0-1.3,0.5-2.5,1.3-3.5l0.8,0.7c-0.7,0.8-1,1.8-1,2.8c0,2.4,2,4.3,4.3,4.3
			s4.3-2,4.3-4.3s-2-4.3-4.3-4.3v-1.1c3,0,5.4,2.4,5.4,5.4S-37.5-35.3-40.5-35.3z"/>
	</g>
	<g id="Layer_1_6_" transform="matrix(4.17 0 0 4.17 200 200)">
		<path class="st4" d="M-40.8-39.1H-43v-0.5l1-1.1c0.2-0.3,0.4-0.5,0.4-0.7c0-0.1,0-0.2-0.1-0.3c-0.1-0.1-0.1-0.1-0.3-0.1
			c-0.1,0-0.2,0.1-0.3,0.1c-0.1,0.1-0.1,0.2-0.1,0.4H-43c0-0.2,0.1-0.4,0.1-0.5c0.1-0.2,0.2-0.3,0.4-0.4c0.2-0.1,0.3-0.1,0.5-0.1
			c0.4,0,0.6,0.1,0.8,0.2c0.2,0.2,0.3,0.4,0.3,0.7c0,0.1,0,0.2-0.1,0.4c-0.1,0.1-0.1,0.2-0.2,0.4s-0.3,0.3-0.5,0.5l-0.4,0.5h1.2
			V-39.1z M-38.4-40.2h0.3v0.5h-0.3v0.5h-0.8v-0.5h-1.2l-0.1-0.4l1.3-2.3h0.8V-40.2z M-39.8-40.2h0.6v-1.2l-0.1,0.1L-39.8-40.2z"/>
	</g>
</g>
</svg>
