<?xml version="1.0" encoding="utf-8"?>
<!-- Generator: Adobe Illustrator 19.2.0, SVG Export Plug-In . SVG Version: 6.00 Build 0)  -->
<svg version="1.1" id="Layer_1" xmlns="http://www.w3.org/2000/svg" xmlns:xlink="http://www.w3.org/1999/xlink" x="0px" y="0px"
	 viewBox="0 0 58.1 55.4" style="enable-background:new 0 0 58.1 55.4;" xml:space="preserve">
<style type="text/css">
	.st0{fill:#80D8FF;}
	.st1{fill:#0277BD;}
</style>
<g>
	<g id="surface1_19_" transform="matrix(4.17 0 0 4.17 200 200)">
		<path class="st0" d="M-37.9-37H-44c-0.5,0-0.9-0.4-0.9-0.9V-44c0-0.5,0.4-0.9,0.9-0.9h6.1c0.5,0,0.9,0.4,0.9,0.9v6.1
			C-37-37.4-37.4-37-37.9-37z"/>
	</g>
	<g id="surface1_18_" transform="matrix(4.17 0 0 4.17 166.67 166.67)">
		<path class="st1" d="M-36-35.1h2.6v0.9H-36V-35.1z"/>
	</g>
	<g id="surface1_17_" transform="matrix(4.17 0 0 4.17 166.67 166.67)">
		<path class="st1" d="M-35.1-36h0.9v2.6h-0.9V-36z"/>
	</g>
	<g id="surface1_16_" transform="matrix(4.17 0 0 4.17 201.67 202.29)">
		<path class="st1" d="M-37.7-45.2l-7.4,7.2c0.2,0.2,0.4,0.4,0.7,0.4h6.1c0.5,0,0.9-0.4,0.9-0.9v-6.1C-37.4-44.8-37.6-45-37.7-45.2z
			 M-38.3-39.3h-2.6v-0.9h2.6V-39.3z"/>
	</g>
</g>
</svg>
