<?xml version="1.0" encoding="utf-8"?>
<!-- Generator: Adobe Illustrator 19.2.0, SVG Export Plug-In . SVG Version: 6.00 Build 0)  -->
<svg version="1.1" id="Layer_1" xmlns="http://www.w3.org/2000/svg" xmlns:xlink="http://www.w3.org/1999/xlink" x="0px" y="0px"
	 viewBox="0 0 58.1 55.4" style="enable-background:new 0 0 58.1 55.4;" xml:space="preserve">
<style type="text/css">
	.st0{fill:#D34405;}
	.st1{fill:#FEFEFE;}
	.st2{fill:#727270;}
	.st3{fill:#2893EA;}
</style>
<g>
	<path class="st0" d="M29.8,5.7L29.8,5.7c6.3,0,12.1,2.6,16.2,6.7c4.2,4.2,6.7,10,6.7,16.3c0,6.3-2.5,12.1-6.7,16.2
		c-4.1,4.2-9.9,6.9-16.2,6.9c-6.3,0-12.1-2.6-16.2-6.9c-4.2-4.1-6.9-9.9-6.9-16.2c0-6.3,2.6-12.1,6.9-16.3
		C17.7,8.4,23.5,5.7,29.8,5.7L29.8,5.7z"/>
	<path class="st1" d="M14.3,42.8L14.3,42.8l29.3-29.3c-3.7-3.3-8.6-5.3-13.8-5.3c-5.7,0-10.9,2.4-14.6,6.1c-3.7,3.8-6.1,9-6.1,14.6
		C9,34.2,11,39.1,14.3,42.8L14.3,42.8z"/>
	<path class="st1" d="M45.5,15.2L45.5,15.2L16.4,44.5c3.6,3.3,8.4,5.3,13.7,5.3c5.7,0,10.9-2.4,14.6-6.1c3.8-3.8,6.1-9,6.1-14.6
		C50.8,23.7,48.8,18.9,45.5,15.2L45.5,15.2z"/>
	<path class="st2" d="M35.1,20L35.1,20c0-0.3,0-0.4,0-0.7c0,0-4.5,2.6-6.2,2.6c0,0,3-1.5,3.4-2.5c-1.3,0.9-4.5,2.5-5.4,2.5
		c0,0,1.3-0.8,1.6-1.5c-3.3,0.8-3.2,3.3-3.3,5.8c0,0-0.7-2.8-0.8-3.4c-1.3-4.6,1.8-8.3,6.3-8.3c3.3,0,5.5,1.3,6.3,3.4L35.1,20z"/>
	<path class="st2" d="M30.2,23.9L30.2,23.9h0.9c0-0.1,0-0.3,0-0.3c0-0.1,0-0.1,0-0.3c0.1,0,0.1-0.1,0.3-0.1h0.4l-1.1,1.2h-0.5
		c0,0.1-0.1,0.4-0.1,0.5l-1.2,1.2c-0.3,0-0.5,0-0.7,0c-0.3,0-0.9,0-1.4-0.3c-0.4-0.4-0.5-1.8-0.7-2.2c0-0.1,0-0.1,0.1-0.3l0.1-0.1
		H30c0.1,0,0.3,0.1,0.3,0.1c0,0.1,0.1,0.1,0.1,0.3C30.4,23.7,30.2,23.8,30.2,23.9L30.2,23.9z"/>
	<path class="st3" d="M22.5,40.1L22.5,40.1h8.2h0.1h12.9c0.3-0.3,0.5-0.7,0.8-0.9c-0.3-7.6-3.6-6.2-10-9.8c-0.9,0.8-1.8,1.5-2.9,1.7
		L22.5,40.1z"/>
</g>
</svg>
