<?xml version="1.0" encoding="utf-8"?>
<!-- Generator: Adobe Illustrator 19.2.0, SVG Export Plug-In . SVG Version: 6.00 Build 0)  -->
<svg version="1.1" id="Layer_1" xmlns="http://www.w3.org/2000/svg" xmlns:xlink="http://www.w3.org/1999/xlink" x="0px" y="0px"
	 viewBox="0 0 58.1 55.4" style="enable-background:new 0 0 58.1 55.4;" xml:space="preserve">
<style type="text/css">
	.st0{fill:#2893EA;}
	.st1{fill:#303F9F;}
	.st2{fill:#FF9800;}
	.st3{fill:#FFA726;}
	.st4{fill:#FFB74D;}
	.st5{fill:#424242;}
	.st6{fill:#784719;}
	.st7{fill:#FFFFFF;}
	.st8{fill:#D32F2F;}
	.st9{fill:#607D8B;}
	.st10{fill:#455A64;}
</style>
<g>
	<g id="Layer_1_45_" transform="matrix(4.17 0 0 4.17 168.52 256.25)">
		<path class="st0" d="M-33.8-50.7l-1.1-2.7c0,0-2.4,0.4-2.4,2.9h3.8C-33.6-50.6-33.7-50.7-33.8-50.7L-33.8-50.7z"/>
	</g>
	<g id="Layer_1_44_" transform="matrix(4.17 0 0 4.17 221.13 256.25)">
		<path class="st1" d="M-44.6-52.4c0.1-0.2,0.2-0.4,0.4-0.5c-0.6-0.4-1.1-0.5-1.1-0.5l-1.1,2.6c0,0.1,0.1,0.2,0.2,0.3h1.1
			C-45.1-50.5-44.6-52.2-44.6-52.4z"/>
	</g>
	<g id="Layer_1_43_" transform="matrix(4.17 0 0 4.17 200 229.17)">
		<polygon class="st2" points="-41.3,-45.5 -42.4,-46.9 -42.4,-48.2 -40.2,-48.2 -40.2,-46.9 		"/>
	</g>
	<g id="Layer_1_42_" transform="matrix(4.17 0 0 4.17 200 179.17)">
		<path class="st3" d="M-38.9-37.5c0,0.2-0.2,0.4-0.4,0.4c-0.2,0-0.4-0.2-0.4-0.4c0-0.2,0.2-0.4,0.4-0.4
			C-39.1-38-38.9-37.8-38.9-37.5 M-42.9-37.5c0-0.2-0.2-0.4-0.4-0.4c-0.2,0-0.4,0.2-0.4,0.4c0,0.2,0.2,0.4,0.4,0.4
			C-43.1-37.1-42.9-37.3-42.9-37.5"/>
	</g>
	<g id="Layer_1_41_" transform="matrix(4.17 0 0 4.17 200 177.54)">
		<path class="st4" d="M-39.3-38.5c0-1.7-4-1.1-4,0v1.6c0,1.1,0.9,2,2,2c1.1,0,2-0.9,2-2V-38.5z"/>
	</g>
	<g id="Layer_1_40_" transform="matrix(4.17 0 0 4.17 200 147.92)">
		<path class="st5" d="M-41.3-33.4c-1.4,0-2.2,1.1-2.2,2.4v0.5l0.4,0.4v-1.1l2.7-0.9l0.9,0.9v1.1l0.4-0.4v-0.5c0-0.9-0.2-1.8-1.3-2
			l-0.2-0.4H-41.3z"/>
	</g>
	<g id="Layer_1_39_" transform="matrix(4.17 0 0 4.17 200 179.17)">
		<path class="st6" d="M-40.7-37.5c0-0.1,0.1-0.2,0.2-0.2s0.2,0.1,0.2,0.2c0,0.1-0.1,0.2-0.2,0.2S-40.7-37.4-40.7-37.5 M-42.4-37.5
			c0,0.1,0.1,0.2,0.2,0.2c0.1,0,0.2-0.1,0.2-0.2c0-0.1-0.1-0.2-0.2-0.2C-42.3-37.8-42.4-37.7-42.4-37.5"/>
	</g>
	<g id="Layer_1_38_" transform="matrix(4.17 0 0 4.17 200 254.17)">
		<polygon class="st7" points="-41.3,-50.2 -42.4,-52.8 -41.3,-52.6 -40.2,-52.8 		"/>
	</g>
	<g id="Layer_1_37_" transform="matrix(4.17 0 0 4.17 200 256.25)">
		<polygon class="st8" points="-41.1,-52.5 -41,-51.5 -41.1,-51.3 -41.3,-50.7 -41.7,-51.5 -41.5,-52.5 -41.8,-52.7 -41.3,-53.1 
			-40.9,-52.7 		"/>
	</g>
	<g id="Layer_1_36_" transform="matrix(4.17 0 0 4.17 254.17 254.17)">
		<path class="st9" d="M-49.6-51.3c0-0.1,0-0.2,0-0.2c0-0.1,0-0.2,0-0.2l0.5-0.4c0,0,0.1-0.1,0-0.2l-0.5-0.9c0,0-0.1-0.1-0.2,0
			l-0.6,0.3c-0.1-0.1-0.3-0.2-0.4-0.3l-0.1-0.6c0-0.1-0.1-0.1-0.1-0.1h-1c0,0-0.1,0-0.1,0.1l-0.1,0.6c-0.2,0-0.3,0.1-0.4,0.2
			l-0.6-0.3c-0.1,0-0.1,0-0.2,0l-0.5,0.9c0,0,0,0.1,0,0.2l0.5,0.4c0,0.1,0,0.2,0,0.2c0,0.1,0,0.2,0,0.2l-0.5,0.4c0,0-0.1,0.1,0,0.2
			l0.5,0.9c0,0,0.1,0.1,0.2,0l0.6-0.3c0.1,0.1,0.3,0.2,0.4,0.3l0.1,0.6c0,0.1,0.1,0.1,0.1,0.1h1c0.1,0,0.1,0,0.1-0.1l0.1-0.6
			c0.2-0.1,0.3-0.2,0.4-0.3l0.6,0.3c0.1,0,0.1,0,0.2,0l0.5-0.9c0,0,0-0.1,0-0.2L-49.6-51.3z M-51.4-50.4c-0.6,0-1.2-0.5-1.2-1.2
			s0.5-1.2,1.2-1.2c0.6,0,1.2,0.5,1.2,1.2S-50.8-50.4-51.4-50.4"/>
	</g>
	<g id="Layer_1_35_" transform="matrix(4.17 0 0 4.17 254.17 254.17)">
		<path class="st10" d="M-51.4-52.8c-0.7,0-1.3,0.6-1.3,1.3s0.6,1.3,1.3,1.3c0.7,0,1.3-0.6,1.3-1.3S-50.7-52.8-51.4-52.8
			 M-51.4-50.8c-0.4,0-0.7-0.3-0.7-0.7s0.3-0.7,0.7-0.7s0.7,0.3,0.7,0.7S-51-50.8-51.4-50.8"/>
	</g>
</g>
</svg>
