<?xml version="1.0" encoding="utf-8"?>
<!-- Generator: Adobe Illustrator 19.2.0, SVG Export Plug-In . SVG Version: 6.00 Build 0)  -->
<svg version="1.1" id="Layer_1" xmlns="http://www.w3.org/2000/svg" xmlns:xlink="http://www.w3.org/1999/xlink" x="0px" y="0px"
	 viewBox="0 0 58.1 55.4" style="enable-background:new 0 0 58.1 55.4;" xml:space="preserve">
<style type="text/css">
	.st0{fill:#D34405;}
	.st1{fill:#FBC02D;}
</style>
<g>
	<g id="surface1_13_" transform="matrix(4.17 0 0 4.17 200 200)">
		<path class="st0" d="M-36.7-36.4c0,0.1-0.1,0.2-0.2,0.2c0,0-5.7,0-6.4,0c-0.7,0-0.7-0.7-0.7-0.7v-8.4c0,0,0-0.7,0.7-0.7
			c0.7,0,6.4,0,6.4,0c0.1,0,0.2,0.1,0.2,0.2V-36.4z"/>
	</g>
	<g id="surface1_12_" transform="matrix(4.17 0 0 4.17 204.17 183.33)">
		<path class="st1" d="M-41.1-35.8c-1.2,0-2.2-1-2.2-2.2s1-2.2,2.2-2.2c1.2,0,2.2,1,2.2,2.2S-39.9-35.8-41.1-35.8z M-41.1-39.8
			c-1,0-1.7,0.8-1.7,1.7c0,1,0.8,1.7,1.7,1.7c1,0,1.7-0.8,1.7-1.7C-39.4-39-40.2-39.8-41.1-39.8z"/>
	</g>
	<g id="surface1_11_" transform="matrix(4.17 0 0 4.17 204.17 183.33)">
		<path class="st1" d="M-41.1-35.8c-0.7,0-1.2-1-1.2-2.2c0-1.3,0.5-2.2,1.2-2.2c0.7,0,1.2,1,1.2,2.2C-39.9-36.8-40.4-35.8-41.1-35.8
			z M-41.1-39.8c-0.3,0-0.7,0.7-0.7,1.7c0,1,0.4,1.7,0.7,1.7c0.3,0,0.7-0.7,0.7-1.7C-40.4-39-40.8-39.8-41.1-39.8z"/>
	</g>
	<g id="surface1_10_" transform="matrix(4.17 0 0 4.17 204.17 181.25)">
		<rect x="-41.4" y="-39.8" class="st1" width="0.5" height="4.2"/>
	</g>
	<g id="surface1_9_" transform="matrix(4.17 0 0 4.17 204.17 183.33)">
		<rect x="-43.1" y="-38.3" class="st1" width="3.9" height="0.5"/>
	</g>
	<g id="surface1_8_" transform="matrix(4.17 0 0 4.17 204.17 250)">
		<path class="st1" d="M-38.9-49.8c0,0.1-0.1,0.2-0.2,0.2h-3.9c-0.1,0-0.2-0.1-0.2-0.2v-0.5c0-0.1,0.1-0.2,0.2-0.2h3.9
			c0.1,0,0.2,0.1,0.2,0.2V-49.8z"/>
	</g>
	<g id="surface1_7_" transform="matrix(4.17 0 0 4.17 143.75 200)">
		<path class="st1" d="M-29.8-46c0,0-0.7,0-0.7,0.7s0,7.7,0,8.4s0.7,0.7,0.7,0.7V-46z"/>
	</g>
</g>
</svg>
