<?xml version="1.0" encoding="UTF-8"?>
<svg xmlns="http://www.w3.org/2000/svg" xmlns:xlink="http://www.w3.org/1999/xlink" width="33" height="45" viewBox="0 0 44.9561 60.8252" fill="#fda729" version="1.1">
<defs>
<clipPath id="clip1">
  <path d="M 0 0 L 44.957031 0 L 44.957031 60.824219 L 0 60.824219 Z M 0 0 "/>
</clipPath>
</defs>
<g clip-path="url(#clip1)">
<path d="M 36.429688 41.105469 C 36.429688 41.75 35.90625 42.277344 35.257812 42.277344 L 8.65625 42.277344 C 8.007812 42.277344 7.484375 41.75 7.484375 41.105469 C 7.484375 40.457031 8.007812 39.929688 8.65625 39.929688 L 35.257812 39.929688 C 35.90625 39.929688 36.429688 40.457031 36.429688 41.105469 M 36.429688 33.347656 C 36.429688 33.996094 35.90625 34.519531 35.257812 34.519531 L 8.65625 34.519531 C 8.007812 34.519531 7.484375 33.996094 7.484375 33.347656 C 7.484375 32.699219 8.007812 32.171875 8.65625 32.171875 L 35.257812 32.171875 C 35.90625 32.171875 36.429688 32.699219 36.429688 33.347656 M 36.429688 25.71875 C 36.429688 26.367188 35.90625 26.890625 35.257812 26.890625 L 8.65625 26.890625 C 8.007812 26.890625 7.484375 26.367188 7.484375 25.71875 C 7.484375 25.070312 8.007812 24.546875 8.65625 24.546875 L 35.257812 24.546875 C 35.90625 24.546875 36.429688 25.070312 36.429688 25.71875 M 8.65625 16.660156 L 35.257812 16.660156 C 35.90625 16.660156 36.429688 17.183594 36.429688 17.832031 C 36.429688 18.480469 35.90625 19.003906 35.257812 19.003906 L 8.65625 19.003906 C 8.007812 19.003906 7.484375 18.480469 7.484375 17.832031 C 7.484375 17.183594 8.007812 16.660156 8.65625 16.660156 M 41.824219 57.09375 C 41.824219 57.421875 41.554688 57.691406 41.226562 57.691406 L 3.730469 57.691406 C 3.398438 57.691406 3.128906 57.421875 3.128906 57.09375 L 3.128906 3.730469 C 3.128906 3.402344 3.398438 3.132812 3.730469 3.132812 L 32.085938 3.132812 L 32.085938 12.203125 C 32.085938 13.070312 32.792969 13.769531 33.65625 13.769531 L 41.824219 13.769531 Z M 35.222656 5.582031 L 39.875 10.636719 L 35.222656 10.636719 Z M 34.339844 0 L 3.730469 0 C 1.671875 0 0 1.675781 0 3.730469 L 0 57.09375 C 0 59.152344 1.671875 60.824219 3.730469 60.824219 L 41.226562 60.824219 C 43.285156 60.824219 44.957031 59.152344 44.957031 57.09375 L 44.957031 11.535156 Z M 34.339844 0 "/>
</g>
</svg>
