<?xml version="1.0" encoding="UTF-8"?>
<svg xmlns="http://www.w3.org/2000/svg" xmlns:xlink="http://www.w3.org/1999/xlink" width="34" height="42" fill="#ffffff" viewBox="0 0 134.995 168.604" version="1.1">
<path d="M 3.644531 164.960938 C 3.609375 161.585938 3.742188 117.890625 32.457031 92.269531 C 32.992188 92.738281 33.539062 93.199219 34.097656 93.652344 L 56.839844 138.335938 C 57.199219 139.042969 57.976562 139.433594 58.75 139.308594 C 59.53125 139.1875 60.140625 138.574219 60.261719 137.792969 L 64.144531 112.875 C 64.210938 112.445312 64.125 112.007812 63.894531 111.636719 L 59.886719 105.152344 C 63.875 105.789062 67.9375 105.964844 71.871094 105.71875 C 73.292969 105.632812 74.738281 105.484375 76.1875 105.277344 L 72.238281 111.625 C 72.003906 112.003906 71.914062 112.453125 71.988281 112.890625 L 76.109375 137.371094 C 76.242188 138.152344 76.863281 138.757812 77.648438 138.871094 C 78.441406 138.984375 79.199219 138.578125 79.542969 137.867188 L 100.027344 95.78125 C 100.929688 95.144531 101.808594 94.480469 102.664062 93.789062 C 103.144531 93.40625 103.613281 93.015625 104.15625 92.546875 C 104.210938 92.496094 104.269531 92.449219 104.324219 92.402344 C 127.734375 109.613281 130.875 155.40625 131.277344 164.960938 Z M 56.355469 100.757812 C 55.703125 100.675781 55.050781 100.9375 54.660156 101.480469 C 54.222656 102.078125 54.195312 102.878906 54.582031 103.503906 L 60.441406 112.980469 L 57.53125 131.660156 L 37.167969 91.648438 C 37.070312 91.457031 36.921875 91.300781 36.765625 91.15625 C 42.445312 95.660156 49.097656 98.988281 56.355469 100.757812 M 21 51.109375 C 21 24.9375 42.292969 3.644531 68.464844 3.644531 C 94.640625 3.644531 115.933594 24.9375 115.933594 51.109375 C 115.933594 77.285156 94.640625 98.578125 68.464844 98.578125 C 42.292969 98.578125 21 77.285156 21 51.109375 M 81.386719 101.703125 C 81 101.15625 80.355469 100.882812 79.6875 100.964844 C 86.164062 99.507812 92.179688 96.820312 97.476562 93.15625 C 97.265625 93.324219 97.074219 93.519531 96.957031 93.765625 L 78.757812 131.15625 L 75.695312 112.964844 L 81.449219 103.71875 C 81.835938 103.09375 81.8125 102.300781 81.386719 101.703125 M 134.925781 164.964844 C 132.742188 111.246094 111.636719 92.914062 105.21875 88.574219 C 104.566406 88.132812 103.714844 88.179688 103.101562 88.65625 C 113.222656 79.3125 119.578125 65.941406 119.578125 51.109375 C 119.578125 22.925781 96.648438 0 68.464844 0 C 40.285156 0 17.355469 22.925781 17.355469 51.109375 C 17.355469 65.820312 23.609375 79.085938 33.585938 88.417969 C 32.90625 87.886719 31.945312 87.882812 31.277344 88.457031 L 30.863281 88.820312 C -0.445312 115.898438 -0.03125 163.167969 0.00390625 165.167969 L 0.03125 166.8125 C 0.0507812 167.808594 0.859375 168.605469 1.855469 168.605469 L 133.171875 168.605469 C 133.667969 168.605469 134.144531 168.402344 134.484375 168.042969 C 134.828125 167.6875 135.011719 167.207031 134.992188 166.710938 Z M 134.925781 164.964844 "/>
</svg>
